<svg xmlns="http://www.w3.org/2000/svg" xmlns:xlink="http://www.w3.org/1999/xlink" width="1920" zoomAndPan="magnify" viewBox="0 0 1440 809.999993" height="1080" preserveAspectRatio="xMidYMid meet" version="1.0"><defs><g/><clipPath id="id1"><path d="M 684 0 L 1440 0 L 1440 810 L 684 810 Z M 684 0 " clip-rule="nonzero"/></clipPath><clipPath id="id2"><path d="M 1625.589844 1107.808594 L 464.855469 633.242188 L 910.472656 -456.683594 L 2071.207031 17.886719 Z M 1625.589844 1107.808594 " clip-rule="nonzero"/></clipPath><clipPath id="id3"><path d="M 1625.589844 1107.808594 L 464.855469 633.242188 L 910.472656 -456.683594 L 2071.207031 17.886719 Z M 1625.589844 1107.808594 " clip-rule="nonzero"/></clipPath><clipPath id="id4"><path d="M 81 57.046875 L 102.75 57.046875 L 102.75 78.796875 L 81 78.796875 Z M 81 57.046875 " clip-rule="nonzero"/></clipPath><clipPath id="id5"><path d="M 1223.597656 57.046875 L 1258.097656 57.046875 L 1258.097656 91.546875 L 1223.597656 91.546875 Z M 1223.597656 57.046875 " clip-rule="nonzero"/></clipPath><clipPath id="id6"><path d="M 1240.726562 57.046875 L 1338.976562 57.046875 L 1338.976562 91.546875 L 1240.726562 91.546875 Z M 1240.726562 57.046875 " clip-rule="nonzero"/></clipPath><clipPath id="id7"><path d="M 1321.746094 57.046875 L 1356.246094 57.046875 L 1356.246094 91.546875 L 1321.746094 91.546875 Z M 1321.746094 57.046875 " clip-rule="nonzero"/></clipPath><clipPath id="id8"><path d="M 1307.707031 568.425781 L 1440 568.425781 L 1440 810 L 1307.707031 810 Z M 1307.707031 568.425781 " clip-rule="nonzero"/></clipPath><clipPath id="id9"><path d="M 489.300781 0 L 773.550781 0 L 773.550781 200 L 489.300781 200 Z M 489.300781 0 " clip-rule="nonzero"/></clipPath><clipPath id="id10"><path d="M 688 215 L 1105 215 L 1105 684 L 688 684 Z M 688 215 " clip-rule="nonzero"/></clipPath><clipPath id="id11"><path d="M 1144.972656 208.335938 L 1135.925781 691.253906 L 682.257812 682.753906 L 691.304688 199.839844 Z M 1144.972656 208.335938 " clip-rule="nonzero"/></clipPath><clipPath id="id12"><path d="M 1144.972656 208.335938 L 1135.925781 691.253906 L 682.257812 682.753906 L 691.304688 199.839844 Z M 1144.972656 208.335938 " clip-rule="nonzero"/></clipPath></defs><rect x="-144" width="1728" fill="#ffffff" y="-80.999999" height="971.999992" fill-opacity="1"/><rect x="-144" width="1728" fill="#f3f4f6" y="-80.999999" height="971.999992" fill-opacity="1"/><rect x="-144" width="1728" fill="#ffffff" y="-80.999999" height="971.999992" fill-opacity="1"/><rect x="-144" width="1728" fill="#f3f4f6" y="-80.999999" height="971.999992" fill-opacity="1"/><g clip-path="url(#id1)"><g clip-path="url(#id2)"><g clip-path="url(#id3)"><path fill="#4e45ff" d="M 1113.5625 -112.429688 C 925.148438 -154.394531 780.632812 -74.398438 718.140625 42.847656 C 667.523438 137.808594 670.710938 257.203125 747.960938 356.019531 C 779.632812 396.53125 821.871094 426.761719 867.195312 456.710938 C 1015.222656 554.546875 1009.824219 542.246094 1082.996094 695.722656 C 1195.671875 932.019531 1570.785156 941.523438 1730.011719 739.960938 C 1824.988281 619.730469 1858.613281 435.199219 1698.96875 215.105469 C 1599.105469 77.429688 1729.628906 -97.875 1551.480469 -189.445312 C 1502.308594 -214.71875 1442.761719 -222.257812 1392.53125 -201.875 C 1310.589844 -168.632812 1255.257812 -80.863281 1113.5625 -112.429688 " fill-opacity="1" fill-rule="evenodd"/></g></g></g><g fill="#171717" fill-opacity="1"><g transform="translate(81.000002, 457.198972)"><g><path d="M 36.46875 0 L 33.734375 -8.265625 L 16.09375 -8.265625 L 13.375 0 L 0.625 0 L 17.703125 -49.28125 L 32.265625 -49.28125 L 49.28125 0 Z M 19.109375 -17.359375 L 30.734375 -17.359375 L 24.921875 -34.859375 Z M 19.109375 -17.359375 "/></g></g></g><g fill="#171717" fill-opacity="1"><g transform="translate(130.907272, 457.198972)"><g><path d="M 31.703125 -12.359375 C 33.429688 -14.015625 34.296875 -16.378906 34.296875 -19.453125 C 34.296875 -22.535156 33.429688 -24.914062 31.703125 -26.59375 C 29.984375 -28.28125 28.003906 -29.125 25.765625 -29.125 C 23.523438 -29.125 21.539062 -28.296875 19.8125 -26.640625 C 18.082031 -24.984375 17.21875 -22.613281 17.21875 -19.53125 C 17.21875 -16.445312 18.082031 -14.066406 19.8125 -12.390625 C 21.539062 -10.710938 23.523438 -9.875 25.765625 -9.875 C 28.003906 -9.875 29.984375 -10.703125 31.703125 -12.359375 Z M 17.21875 -33.953125 C 19.875 -37.640625 23.6875 -39.484375 28.65625 -39.484375 C 33.632812 -39.484375 37.847656 -37.601562 41.296875 -33.84375 C 44.753906 -30.082031 46.484375 -25.285156 46.484375 -19.453125 C 46.484375 -13.617188 44.753906 -8.835938 41.296875 -5.109375 C 37.847656 -1.378906 33.671875 0.484375 28.765625 0.484375 C 23.867188 0.484375 20.019531 -1.566406 17.21875 -5.671875 L 17.21875 0 L 5.25 0 L 5.25 -51.796875 L 17.21875 -51.796875 Z M 17.21875 -33.953125 "/></g></g></g><g fill="#171717" fill-opacity="1"><g transform="translate(179.764604, 457.198972)"><g><path d="M 28.6875 -12.25 C 30.28125 -13.925781 31.078125 -16.351562 31.078125 -19.53125 C 31.078125 -22.707031 30.257812 -25.125 28.625 -26.78125 C 27 -28.4375 25.0625 -29.265625 22.8125 -29.265625 C 20.570312 -29.265625 18.644531 -28.4375 17.03125 -26.78125 C 15.425781 -25.125 14.625 -22.707031 14.625 -19.53125 C 14.625 -16.351562 15.453125 -13.925781 17.109375 -12.25 C 18.765625 -10.570312 20.710938 -9.734375 22.953125 -9.734375 C 25.191406 -9.734375 27.101562 -10.570312 28.6875 -12.25 Z M 8.359375 -5.03125 C 4.421875 -8.71875 2.453125 -13.570312 2.453125 -19.59375 C 2.453125 -25.613281 4.410156 -30.429688 8.328125 -34.046875 C 12.242188 -37.671875 17.09375 -39.484375 22.875 -39.484375 C 28.664062 -39.484375 33.507812 -37.671875 37.40625 -34.046875 C 41.3125 -30.429688 43.265625 -25.613281 43.265625 -19.59375 C 43.265625 -13.570312 41.328125 -8.71875 37.453125 -5.03125 C 33.578125 -1.351562 28.742188 0.484375 22.953125 0.484375 C 17.171875 0.484375 12.304688 -1.351562 8.359375 -5.03125 Z M 8.359375 -5.03125 "/></g></g></g><g fill="#171717" fill-opacity="1"><g transform="translate(225.472109, 457.198972)"><g><path d="M 31.78125 -39.0625 L 43.75 -39.0625 L 43.75 0 L 31.78125 0 L 31.78125 -5.734375 C 29.300781 -1.628906 25.359375 0.421875 19.953125 0.421875 C 15.472656 0.421875 11.84375 -1.070312 9.0625 -4.0625 C 6.289062 -7.050781 4.90625 -11.109375 4.90625 -16.234375 L 4.90625 -39.0625 L 16.796875 -39.0625 L 16.796875 -17.84375 C 16.796875 -15.320312 17.460938 -13.375 18.796875 -12 C 20.128906 -10.625 21.960938 -9.9375 24.296875 -9.9375 C 26.628906 -9.9375 28.457031 -10.625 29.78125 -12 C 31.113281 -13.375 31.78125 -15.320312 31.78125 -17.84375 Z M 31.78125 -39.0625 "/></g></g></g><g fill="#171717" fill-opacity="1"><g transform="translate(274.469437, 457.198972)"><g><path d="M 21.84375 -10.15625 L 26.109375 -10.15625 L 26.109375 0 L 20.015625 0 C 15.628906 0 12.234375 -0.96875 9.828125 -2.90625 C 7.429688 -4.84375 6.234375 -8.164062 6.234375 -12.875 L 6.234375 -29.125 L 2.59375 -29.125 L 2.59375 -39.0625 L 6.234375 -39.0625 L 6.234375 -48.578125 L 18.203125 -48.578125 L 18.203125 -39.0625 L 26.046875 -39.0625 L 26.046875 -29.125 L 18.203125 -29.125 L 18.203125 -12.875 C 18.203125 -11.0625 19.414062 -10.15625 21.84375 -10.15625 Z M 21.84375 -10.15625 "/></g></g></g><g fill="#171717" fill-opacity="1"><g transform="translate(303.517859, 457.198972)"><g/></g></g><g fill="#171717" fill-opacity="1"><g transform="translate(324.516714, 457.198972)"><g><path d="M 5.046875 -19.8125 L 5.046875 -49.140625 L 17.015625 -49.140625 L 17.015625 -19.8125 C 17.015625 -16.875 17.734375 -14.609375 19.171875 -13.015625 C 20.617188 -11.429688 22.742188 -10.640625 25.546875 -10.640625 C 28.347656 -10.640625 30.492188 -11.429688 31.984375 -13.015625 C 33.484375 -14.609375 34.234375 -16.875 34.234375 -19.8125 L 34.234375 -49.140625 L 46.203125 -49.140625 L 46.203125 -19.8125 C 46.203125 -15.46875 45.1875 -11.71875 43.15625 -8.5625 C 41.125 -5.414062 38.554688 -3.117188 35.453125 -1.671875 C 32.347656 -0.234375 28.976562 0.484375 25.34375 0.484375 C 19.644531 0.484375 14.835938 -1.285156 10.921875 -4.828125 C 7.003906 -8.378906 5.046875 -13.375 5.046875 -19.8125 Z M 5.046875 -19.8125 "/></g></g></g><g fill="#171717" fill-opacity="1"><g transform="translate(375.683932, 457.198972)"><g><path d="M 2.59375 -27.296875 C 2.59375 -30.753906 4.0625 -33.648438 7 -35.984375 C 9.9375 -38.316406 13.910156 -39.484375 18.921875 -39.484375 C 23.941406 -39.484375 27.992188 -38.335938 31.078125 -36.046875 C 34.160156 -33.765625 35.796875 -30.640625 35.984375 -26.671875 L 23.734375 -26.671875 C 23.585938 -28.023438 23.117188 -28.945312 22.328125 -29.4375 C 21.535156 -29.925781 20.347656 -30.171875 18.765625 -30.171875 C 15.628906 -30.171875 14.0625 -29.210938 14.0625 -27.296875 C 14.0625 -25.566406 15.976562 -24.378906 19.8125 -23.734375 C 23.6875 -23.078125 27.207031 -22.070312 30.375 -20.71875 C 32.007812 -20.0625 33.375 -18.972656 34.46875 -17.453125 C 35.570312 -15.941406 36.125 -14.09375 36.125 -11.90625 C 36.125 -8.257812 34.554688 -5.28125 31.421875 -2.96875 C 28.296875 -0.664062 24.351562 0.484375 19.59375 0.484375 C 14.832031 0.484375 10.863281 -0.597656 7.6875 -2.765625 C 4.519531 -4.929688 2.796875 -8.140625 2.515625 -12.390625 L 14.765625 -12.390625 C 15.097656 -10.003906 16.78125 -8.8125 19.8125 -8.8125 C 21.207031 -8.8125 22.359375 -9.140625 23.265625 -9.796875 C 24.179688 -10.453125 24.640625 -11.289062 24.640625 -12.3125 C 24.640625 -13.34375 23.878906 -14.160156 22.359375 -14.765625 C 20.847656 -15.378906 19.019531 -15.894531 16.875 -16.3125 C 14.726562 -16.726562 12.566406 -17.25 10.390625 -17.875 C 8.222656 -18.507812 6.378906 -19.609375 4.859375 -21.171875 C 3.347656 -22.734375 2.59375 -24.773438 2.59375 -27.296875 Z M 2.59375 -27.296875 "/></g></g></g><g clip-path="url(#id4)"><path fill="#4e45ff" d="M 102.75 67.921875 C 102.75 73.929688 97.882812 78.796875 91.875 78.796875 C 85.867188 78.796875 81 73.929688 81 67.921875 C 81 61.914062 85.867188 57.046875 91.875 57.046875 C 97.882812 57.046875 102.75 61.914062 102.75 67.921875 " fill-opacity="1" fill-rule="nonzero"/></g><path fill="#ffffff" d="M 90.714844 62.929688 C 90.714844 63.179688 90.511719 63.382812 90.261719 63.382812 C 90.011719 63.382812 89.808594 63.179688 89.808594 62.929688 C 89.808594 62.679688 90.011719 62.480469 90.261719 62.480469 C 90.511719 62.480469 90.714844 62.679688 90.714844 62.929688 " fill-opacity="1" fill-rule="nonzero"/><path fill="#ffffff" d="M 90.714844 64.179688 C 90.714844 64.429688 90.511719 64.632812 90.261719 64.632812 C 90.011719 64.632812 89.808594 64.429688 89.808594 64.179688 C 89.808594 63.929688 90.011719 63.726562 90.261719 63.726562 C 90.511719 63.726562 90.714844 63.929688 90.714844 64.179688 " fill-opacity="1" fill-rule="nonzero"/><path fill="#ffffff" d="M 90.714844 65.425781 C 90.714844 65.675781 90.511719 65.878906 90.261719 65.878906 C 90.011719 65.878906 89.808594 65.675781 89.808594 65.425781 C 89.808594 65.175781 90.011719 64.972656 90.261719 64.972656 C 90.511719 64.972656 90.714844 65.175781 90.714844 65.425781 " fill-opacity="1" fill-rule="nonzero"/><path fill="#ffffff" d="M 90.714844 66.675781 C 90.714844 66.925781 90.511719 67.125 90.261719 67.125 C 90.011719 67.125 89.808594 66.925781 89.808594 66.675781 C 89.808594 66.425781 90.011719 66.222656 90.261719 66.222656 C 90.511719 66.222656 90.714844 66.425781 90.714844 66.675781 " fill-opacity="1" fill-rule="nonzero"/><path fill="#ffffff" d="M 90.714844 67.921875 C 90.714844 68.171875 90.511719 68.375 90.261719 68.375 C 90.011719 68.375 89.808594 68.171875 89.808594 67.921875 C 89.808594 67.671875 90.011719 67.46875 90.261719 67.46875 C 90.511719 67.46875 90.714844 67.671875 90.714844 67.921875 " fill-opacity="1" fill-rule="nonzero"/><path fill="#ffffff" d="M 90.714844 69.167969 C 90.714844 69.417969 90.511719 69.621094 90.261719 69.621094 C 90.011719 69.621094 89.808594 69.417969 89.808594 69.167969 C 89.808594 68.917969 90.011719 68.71875 90.261719 68.71875 C 90.511719 68.71875 90.714844 68.917969 90.714844 69.167969 " fill-opacity="1" fill-rule="nonzero"/><path fill="#ffffff" d="M 90.714844 70.417969 C 90.714844 70.667969 90.511719 70.871094 90.261719 70.871094 C 90.011719 70.871094 89.808594 70.667969 89.808594 70.417969 C 89.808594 70.167969 90.011719 69.964844 90.261719 69.964844 C 90.511719 69.964844 90.714844 70.167969 90.714844 70.417969 " fill-opacity="1" fill-rule="nonzero"/><path fill="#ffffff" d="M 90.714844 71.664062 C 90.714844 71.914062 90.511719 72.117188 90.261719 72.117188 C 90.011719 72.117188 89.808594 71.914062 89.808594 71.664062 C 89.808594 71.414062 90.011719 71.210938 90.261719 71.210938 C 90.511719 71.210938 90.714844 71.414062 90.714844 71.664062 " fill-opacity="1" fill-rule="nonzero"/><path fill="#ffffff" d="M 90.714844 72.914062 C 90.714844 73.164062 90.511719 73.363281 90.261719 73.363281 C 90.011719 73.363281 89.808594 73.164062 89.808594 72.914062 C 89.808594 72.664062 90.011719 72.460938 90.261719 72.460938 C 90.511719 72.460938 90.714844 72.664062 90.714844 72.914062 " fill-opacity="1" fill-rule="nonzero"/><path fill="#ffffff" d="M 91.972656 64.179688 C 91.972656 64.429688 91.769531 64.632812 91.519531 64.632812 C 91.269531 64.632812 91.066406 64.429688 91.066406 64.179688 C 91.066406 63.929688 91.269531 63.726562 91.519531 63.726562 C 91.769531 63.726562 91.972656 63.929688 91.972656 64.179688 " fill-opacity="1" fill-rule="nonzero"/><path fill="#ffffff" d="M 91.972656 65.425781 C 91.972656 65.675781 91.769531 65.878906 91.519531 65.878906 C 91.269531 65.878906 91.066406 65.675781 91.066406 65.425781 C 91.066406 65.175781 91.269531 64.972656 91.519531 64.972656 C 91.769531 64.972656 91.972656 65.175781 91.972656 65.425781 " fill-opacity="1" fill-rule="nonzero"/><path fill="#ffffff" d="M 91.972656 66.675781 C 91.972656 66.925781 91.769531 67.125 91.519531 67.125 C 91.269531 67.125 91.066406 66.925781 91.066406 66.675781 C 91.066406 66.425781 91.269531 66.222656 91.519531 66.222656 C 91.769531 66.222656 91.972656 66.425781 91.972656 66.675781 " fill-opacity="1" fill-rule="nonzero"/><path fill="#ffffff" d="M 91.972656 67.921875 C 91.972656 68.171875 91.769531 68.375 91.519531 68.375 C 91.269531 68.375 91.066406 68.171875 91.066406 67.921875 C 91.066406 67.671875 91.269531 67.46875 91.519531 67.46875 C 91.769531 67.46875 91.972656 67.671875 91.972656 67.921875 " fill-opacity="1" fill-rule="nonzero"/><path fill="#ffffff" d="M 91.972656 69.167969 C 91.972656 69.417969 91.769531 69.621094 91.519531 69.621094 C 91.269531 69.621094 91.066406 69.417969 91.066406 69.167969 C 91.066406 68.917969 91.269531 68.71875 91.519531 68.71875 C 91.769531 68.71875 91.972656 68.917969 91.972656 69.167969 " fill-opacity="1" fill-rule="nonzero"/><path fill="#ffffff" d="M 91.972656 70.417969 C 91.972656 70.667969 91.769531 70.871094 91.519531 70.871094 C 91.269531 70.871094 91.066406 70.667969 91.066406 70.417969 C 91.066406 70.167969 91.269531 69.964844 91.519531 69.964844 C 91.769531 69.964844 91.972656 70.167969 91.972656 70.417969 " fill-opacity="1" fill-rule="nonzero"/><path fill="#ffffff" d="M 91.972656 71.664062 C 91.972656 71.914062 91.769531 72.117188 91.519531 72.117188 C 91.269531 72.117188 91.066406 71.914062 91.066406 71.664062 C 91.066406 71.414062 91.269531 71.210938 91.519531 71.210938 C 91.769531 71.210938 91.972656 71.414062 91.972656 71.664062 " fill-opacity="1" fill-rule="nonzero"/><path fill="#ffffff" d="M 93.230469 65.425781 C 93.230469 65.675781 93.03125 65.878906 92.78125 65.878906 C 92.53125 65.878906 92.328125 65.675781 92.328125 65.425781 C 92.328125 65.175781 92.53125 64.972656 92.78125 64.972656 C 93.03125 64.972656 93.230469 65.175781 93.230469 65.425781 " fill-opacity="1" fill-rule="nonzero"/><path fill="#ffffff" d="M 93.230469 66.675781 C 93.230469 66.925781 93.03125 67.125 92.78125 67.125 C 92.53125 67.125 92.328125 66.925781 92.328125 66.675781 C 92.328125 66.425781 92.53125 66.222656 92.78125 66.222656 C 93.03125 66.222656 93.230469 66.425781 93.230469 66.675781 " fill-opacity="1" fill-rule="nonzero"/><path fill="#ffffff" d="M 93.230469 67.921875 C 93.230469 68.171875 93.03125 68.375 92.78125 68.375 C 92.53125 68.375 92.328125 68.171875 92.328125 67.921875 C 92.328125 67.671875 92.53125 67.46875 92.78125 67.46875 C 93.03125 67.46875 93.230469 67.671875 93.230469 67.921875 " fill-opacity="1" fill-rule="nonzero"/><path fill="#ffffff" d="M 93.230469 69.167969 C 93.230469 69.417969 93.03125 69.621094 92.78125 69.621094 C 92.53125 69.621094 92.328125 69.417969 92.328125 69.167969 C 92.328125 68.917969 92.53125 68.71875 92.78125 68.71875 C 93.03125 68.71875 93.230469 68.917969 93.230469 69.167969 " fill-opacity="1" fill-rule="nonzero"/><path fill="#ffffff" d="M 93.230469 70.417969 C 93.230469 70.667969 93.03125 70.871094 92.78125 70.871094 C 92.53125 70.871094 92.328125 70.667969 92.328125 70.417969 C 92.328125 70.167969 92.53125 69.964844 92.78125 69.964844 C 93.03125 69.964844 93.230469 70.167969 93.230469 70.417969 " fill-opacity="1" fill-rule="nonzero"/><path fill="#ffffff" d="M 94.492188 66.675781 C 94.492188 66.925781 94.289062 67.125 94.039062 67.125 C 93.789062 67.125 93.585938 66.925781 93.585938 66.675781 C 93.585938 66.425781 93.789062 66.222656 94.039062 66.222656 C 94.289062 66.222656 94.492188 66.425781 94.492188 66.675781 " fill-opacity="1" fill-rule="nonzero"/><path fill="#ffffff" d="M 94.492188 67.921875 C 94.492188 68.171875 94.289062 68.375 94.039062 68.375 C 93.789062 68.375 93.585938 68.171875 93.585938 67.921875 C 93.585938 67.671875 93.789062 67.46875 94.039062 67.46875 C 94.289062 67.46875 94.492188 67.671875 94.492188 67.921875 " fill-opacity="1" fill-rule="nonzero"/><path fill="#ffffff" d="M 94.492188 69.167969 C 94.492188 69.417969 94.289062 69.621094 94.039062 69.621094 C 93.789062 69.621094 93.585938 69.417969 93.585938 69.167969 C 93.585938 68.917969 93.789062 68.71875 94.039062 68.71875 C 94.289062 68.71875 94.492188 68.917969 94.492188 69.167969 " fill-opacity="1" fill-rule="nonzero"/><path fill="#ffffff" d="M 95.75 67.921875 C 95.75 68.171875 95.546875 68.375 95.296875 68.375 C 95.046875 68.375 94.84375 68.171875 94.84375 67.921875 C 94.84375 67.671875 95.046875 67.46875 95.296875 67.46875 C 95.546875 67.46875 95.75 67.671875 95.75 67.921875 " fill-opacity="1" fill-rule="nonzero"/><g fill="#171717" fill-opacity="1"><g transform="translate(107.131429, 74.875058)"><g><path d="M 2.71875 -1.875 C 1.351562 -3.207031 0.671875 -4.894531 0.671875 -6.9375 C 0.671875 -8.976562 1.351562 -10.660156 2.71875 -11.984375 C 4.082031 -13.316406 5.753906 -13.984375 7.734375 -13.984375 C 9.265625 -13.984375 10.625 -13.578125 11.8125 -12.765625 C 13.007812 -11.953125 13.84375 -10.828125 14.3125 -9.390625 L 10.3125 -9.390625 C 9.789062 -10.398438 8.953125 -10.90625 7.796875 -10.90625 C 6.640625 -10.90625 5.726562 -10.539062 5.0625 -9.8125 C 4.40625 -9.09375 4.078125 -8.128906 4.078125 -6.921875 C 4.078125 -5.722656 4.40625 -4.765625 5.0625 -4.046875 C 5.726562 -3.328125 6.640625 -2.96875 7.796875 -2.96875 C 8.953125 -2.96875 9.789062 -3.472656 10.3125 -4.484375 L 14.3125 -4.484375 C 13.84375 -3.035156 13.007812 -1.90625 11.8125 -1.09375 C 10.625 -0.28125 9.265625 0.125 7.734375 0.125 C 5.753906 0.125 4.082031 -0.539062 2.71875 -1.875 Z M 2.71875 -1.875 "/></g></g></g><g fill="#171717" fill-opacity="1"><g transform="translate(121.154682, 74.875058)"><g><path d="M 10.375 -4.046875 C 11.039062 -4.765625 11.375 -5.722656 11.375 -6.921875 C 11.375 -8.128906 11.039062 -9.09375 10.375 -9.8125 C 9.71875 -10.539062 8.832031 -10.90625 7.71875 -10.90625 C 6.613281 -10.90625 5.726562 -10.539062 5.0625 -9.8125 C 4.40625 -9.09375 4.078125 -8.128906 4.078125 -6.921875 C 4.078125 -5.722656 4.40625 -4.765625 5.0625 -4.046875 C 5.726562 -3.328125 6.613281 -2.96875 7.71875 -2.96875 C 8.832031 -2.96875 9.71875 -3.328125 10.375 -4.046875 Z M 2.71875 -1.859375 C 1.351562 -3.203125 0.671875 -4.894531 0.671875 -6.9375 C 0.671875 -8.976562 1.351562 -10.660156 2.71875 -11.984375 C 4.082031 -13.316406 5.753906 -13.984375 7.734375 -13.984375 C 9.722656 -13.984375 11.394531 -13.316406 12.75 -11.984375 C 14.113281 -10.660156 14.796875 -8.976562 14.796875 -6.9375 C 14.796875 -4.894531 14.113281 -3.203125 12.75 -1.859375 C 11.382812 -0.523438 9.710938 0.140625 7.734375 0.140625 C 5.753906 0.140625 4.082031 -0.523438 2.71875 -1.859375 Z M 2.71875 -1.859375 "/></g></g></g><g fill="#171717" fill-opacity="1"><g transform="translate(135.649306, 74.875058)"><g><path d="M 4.828125 -2.546875 L 6.328125 -2.546875 C 7.609375 -2.546875 8.613281 -2.9375 9.34375 -3.71875 C 10.082031 -4.507812 10.453125 -5.566406 10.453125 -6.890625 C 10.453125 -8.210938 10.082031 -9.265625 9.34375 -10.046875 C 8.613281 -10.835938 7.609375 -11.234375 6.328125 -11.234375 L 4.828125 -11.234375 Z M 6.328125 -13.78125 C 8.523438 -13.78125 10.328125 -13.140625 11.734375 -11.859375 C 13.148438 -10.585938 13.859375 -8.929688 13.859375 -6.890625 C 13.859375 -4.859375 13.148438 -3.203125 11.734375 -1.921875 C 10.328125 -0.640625 8.523438 0 6.328125 0 L 1.46875 0 L 1.46875 -13.78125 Z M 6.328125 -13.78125 "/></g></g></g><g fill="#171717" fill-opacity="1"><g transform="translate(149.181551, 74.875058)"><g><path d="M 9.828125 -13.828125 L 9.828125 -11.28125 L 4.828125 -11.28125 L 4.828125 -8.3125 L 9.234375 -8.3125 L 9.234375 -5.75 L 4.828125 -5.75 L 4.828125 -2.546875 L 9.828125 -2.546875 L 9.828125 0 L 1.46875 0 L 1.46875 -13.828125 Z M 9.828125 -13.828125 "/></g></g></g><g fill="#171717" fill-opacity="1"><g transform="translate(159.433815, 74.875058)"><g><path d="M 17.09375 -13.78125 L 17.09375 0 L 13.734375 0 L 13.734375 -7.78125 L 10.53125 0 L 8.03125 0 L 4.828125 -7.78125 L 4.828125 0 L 1.46875 0 L 1.46875 -13.78125 L 5.328125 -13.78125 L 9.296875 -4.28125 L 13.234375 -13.78125 Z M 17.09375 -13.78125 "/></g></g></g><g fill="#171717" fill-opacity="1"><g transform="translate(177.012013, 74.875058)"><g><path d="M 10.234375 0 L 9.46875 -2.3125 L 4.515625 -2.3125 L 3.75 0 L 0.171875 0 L 4.96875 -13.828125 L 9.046875 -13.828125 L 13.828125 0 Z M 5.359375 -4.875 L 8.625 -4.875 L 6.984375 -9.78125 Z M 5.359375 -4.875 "/></g></g></g><g fill="#171717" fill-opacity="1"><g transform="translate(190.033598, 74.875058)"><g><path d="M 6.140625 -11.328125 C 5.722656 -11.328125 5.378906 -11.21875 5.109375 -11 C 4.847656 -10.78125 4.71875 -10.457031 4.71875 -10.03125 C 4.71875 -9.613281 4.835938 -9.273438 5.078125 -9.015625 C 5.328125 -8.765625 5.648438 -8.570312 6.046875 -8.4375 C 6.453125 -8.300781 6.898438 -8.171875 7.390625 -8.046875 C 7.878906 -7.921875 8.363281 -7.769531 8.84375 -7.59375 C 9.332031 -7.414062 9.773438 -7.195312 10.171875 -6.9375 C 10.578125 -6.675781 10.90625 -6.304688 11.15625 -5.828125 C 11.40625 -5.347656 11.53125 -4.773438 11.53125 -4.109375 C 11.53125 -2.941406 11.054688 -1.941406 10.109375 -1.109375 C 9.160156 -0.273438 7.910156 0.140625 6.359375 0.140625 C 4.804688 0.140625 3.550781 -0.226562 2.59375 -0.96875 C 1.644531 -1.71875 1.171875 -2.78125 1.171875 -4.15625 L 4.75 -4.15625 C 4.84375 -3.0625 5.40625 -2.515625 6.4375 -2.515625 C 6.925781 -2.515625 7.304688 -2.640625 7.578125 -2.890625 C 7.859375 -3.148438 8 -3.472656 8 -3.859375 C 8 -4.253906 7.875 -4.578125 7.625 -4.828125 C 7.375 -5.078125 7.046875 -5.273438 6.640625 -5.421875 C 6.242188 -5.566406 5.800781 -5.703125 5.3125 -5.828125 C 4.820312 -5.953125 4.332031 -6.101562 3.84375 -6.28125 C 3.363281 -6.46875 2.921875 -6.6875 2.515625 -6.9375 C 2.117188 -7.195312 1.796875 -7.566406 1.546875 -8.046875 C 1.296875 -8.523438 1.171875 -9.085938 1.171875 -9.734375 C 1.171875 -11.023438 1.648438 -12.054688 2.609375 -12.828125 C 3.566406 -13.597656 4.785156 -13.984375 6.265625 -13.984375 C 7.753906 -13.984375 8.957031 -13.644531 9.875 -12.96875 C 10.789062 -12.300781 11.269531 -11.238281 11.3125 -9.78125 L 7.65625 -9.78125 C 7.601562 -10.28125 7.441406 -10.660156 7.171875 -10.921875 C 6.910156 -11.191406 6.566406 -11.328125 6.140625 -11.328125 Z M 6.140625 -11.328125 "/></g></g></g><g fill="#171717" fill-opacity="1"><g transform="translate(201.758911, 74.875058)"><g><path d="M 0.53125 -11.234375 L 0.53125 -13.78125 L 11.40625 -13.78125 L 11.40625 -11.234375 L 7.640625 -11.234375 L 7.640625 0 L 4.28125 0 L 4.28125 -11.234375 Z M 0.53125 -11.234375 "/></g></g></g><g fill="#171717" fill-opacity="1"><g transform="translate(212.718242, 74.875058)"><g><path d="M 9.828125 -13.828125 L 9.828125 -11.28125 L 4.828125 -11.28125 L 4.828125 -8.3125 L 9.234375 -8.3125 L 9.234375 -5.75 L 4.828125 -5.75 L 4.828125 -2.546875 L 9.828125 -2.546875 L 9.828125 0 L 1.46875 0 L 1.46875 -13.828125 Z M 9.828125 -13.828125 "/></g></g></g><g fill="#171717" fill-opacity="1"><g transform="translate(222.970511, 74.875058)"><g><path d="M 4.828125 -5.359375 L 4.828125 0 L 1.46875 0 L 1.46875 -13.78125 L 6.90625 -13.78125 C 8.507812 -13.78125 9.753906 -13.367188 10.640625 -12.546875 C 11.535156 -11.722656 11.984375 -10.726562 11.984375 -9.5625 C 11.984375 -8.757812 11.738281 -7.976562 11.25 -7.21875 C 10.769531 -6.46875 9.976562 -5.9375 8.875 -5.625 L 12.25 0 L 8.328125 0 L 5.21875 -5.359375 Z M 4.828125 -11.234375 L 4.828125 -7.921875 L 6.90625 -7.921875 C 7.414062 -7.921875 7.816406 -8.066406 8.109375 -8.359375 C 8.410156 -8.660156 8.5625 -9.054688 8.5625 -9.546875 C 8.5625 -10.046875 8.410156 -10.453125 8.109375 -10.765625 C 7.804688 -11.078125 7.40625 -11.234375 6.90625 -11.234375 Z M 4.828125 -11.234375 "/></g></g></g><g fill="#171717" fill-opacity="1"><g transform="translate(235.108274, 74.875058)"><g><path d="M 4.359375 -1.828125 C 4.359375 -1.316406 4.179688 -0.882812 3.828125 -0.53125 C 3.472656 -0.175781 3.035156 0 2.515625 0 C 2.003906 0 1.570312 -0.175781 1.21875 -0.53125 C 0.863281 -0.882812 0.6875 -1.316406 0.6875 -1.828125 C 0.6875 -2.347656 0.863281 -2.785156 1.21875 -3.140625 C 1.570312 -3.492188 2.003906 -3.671875 2.515625 -3.671875 C 3.035156 -3.671875 3.472656 -3.492188 3.828125 -3.140625 C 4.179688 -2.785156 4.359375 -2.347656 4.359375 -1.828125 Z M 4.359375 -1.828125 "/></g></g></g><g fill="#171717" fill-opacity="1"><g transform="translate(239.173765, 74.875058)"><g><path d="M 2.71875 -1.875 C 1.351562 -3.207031 0.671875 -4.894531 0.671875 -6.9375 C 0.671875 -8.976562 1.351562 -10.660156 2.71875 -11.984375 C 4.082031 -13.316406 5.753906 -13.984375 7.734375 -13.984375 C 9.265625 -13.984375 10.625 -13.578125 11.8125 -12.765625 C 13.007812 -11.953125 13.84375 -10.828125 14.3125 -9.390625 L 10.3125 -9.390625 C 9.789062 -10.398438 8.953125 -10.90625 7.796875 -10.90625 C 6.640625 -10.90625 5.726562 -10.539062 5.0625 -9.8125 C 4.40625 -9.09375 4.078125 -8.128906 4.078125 -6.921875 C 4.078125 -5.722656 4.40625 -4.765625 5.0625 -4.046875 C 5.726562 -3.328125 6.640625 -2.96875 7.796875 -2.96875 C 8.953125 -2.96875 9.789062 -3.472656 10.3125 -4.484375 L 14.3125 -4.484375 C 13.84375 -3.035156 13.007812 -1.90625 11.8125 -1.09375 C 10.625 -0.28125 9.265625 0.125 7.734375 0.125 C 5.753906 0.125 4.082031 -0.539062 2.71875 -1.875 Z M 2.71875 -1.875 "/></g></g></g><g fill="#171717" fill-opacity="1"><g transform="translate(253.197023, 74.875058)"><g><path d="M 10.375 -4.046875 C 11.039062 -4.765625 11.375 -5.722656 11.375 -6.921875 C 11.375 -8.128906 11.039062 -9.09375 10.375 -9.8125 C 9.71875 -10.539062 8.832031 -10.90625 7.71875 -10.90625 C 6.613281 -10.90625 5.726562 -10.539062 5.0625 -9.8125 C 4.40625 -9.09375 4.078125 -8.128906 4.078125 -6.921875 C 4.078125 -5.722656 4.40625 -4.765625 5.0625 -4.046875 C 5.726562 -3.328125 6.613281 -2.96875 7.71875 -2.96875 C 8.832031 -2.96875 9.71875 -3.328125 10.375 -4.046875 Z M 2.71875 -1.859375 C 1.351562 -3.203125 0.671875 -4.894531 0.671875 -6.9375 C 0.671875 -8.976562 1.351562 -10.660156 2.71875 -11.984375 C 4.082031 -13.316406 5.753906 -13.984375 7.734375 -13.984375 C 9.722656 -13.984375 11.394531 -13.316406 12.75 -11.984375 C 14.113281 -10.660156 14.796875 -8.976562 14.796875 -6.9375 C 14.796875 -4.894531 14.113281 -3.203125 12.75 -1.859375 C 11.382812 -0.523438 9.710938 0.140625 7.734375 0.140625 C 5.753906 0.140625 4.082031 -0.523438 2.71875 -1.859375 Z M 2.71875 -1.859375 "/></g></g></g><g fill="#171717" fill-opacity="1"><g transform="translate(267.691651, 74.875058)"><g><path d="M 17.09375 -13.78125 L 17.09375 0 L 13.734375 0 L 13.734375 -7.78125 L 10.53125 0 L 8.03125 0 L 4.828125 -7.78125 L 4.828125 0 L 1.46875 0 L 1.46875 -13.78125 L 5.328125 -13.78125 L 9.296875 -4.28125 L 13.234375 -13.78125 Z M 17.09375 -13.78125 "/></g></g></g><g clip-path="url(#id5)"><path fill="#ffcf3e" d="M 1240.847656 57.046875 C 1231.320312 57.046875 1223.597656 64.769531 1223.597656 74.296875 C 1223.597656 83.824219 1231.320312 91.546875 1240.847656 91.546875 C 1250.375 91.546875 1258.097656 83.824219 1258.097656 74.296875 C 1258.097656 64.769531 1250.375 57.046875 1240.847656 57.046875 " fill-opacity="1" fill-rule="nonzero"/></g><g clip-path="url(#id6)"><path fill="#ffcf3e" d="M 1240.738281 57.046875 L 1338.960938 57.046875 L 1338.960938 91.546875 L 1240.738281 91.546875 L 1240.738281 57.046875 " fill-opacity="1" fill-rule="nonzero"/></g><g clip-path="url(#id7)"><path fill="#ffcf3e" d="M 1338.996094 57.046875 C 1329.46875 57.046875 1321.746094 64.769531 1321.746094 74.296875 C 1321.746094 83.824219 1329.46875 91.546875 1338.996094 91.546875 C 1348.523438 91.546875 1356.246094 83.824219 1356.246094 74.296875 C 1356.246094 64.769531 1348.523438 57.046875 1338.996094 57.046875 " fill-opacity="1" fill-rule="nonzero"/></g><g fill="#171717" fill-opacity="1"><g transform="translate(1260.988532, 80.548281)"><g><path d="M 8.921875 -13.65625 L 8.921875 -3.8125 C 8.921875 -2.59375 8.550781 -1.628906 7.8125 -0.921875 C 7.070312 -0.210938 6.097656 0.140625 4.890625 0.140625 C 3.679688 0.140625 2.707031 -0.210938 1.96875 -0.921875 C 1.226562 -1.628906 0.859375 -2.59375 0.859375 -3.8125 L 3.125 -3.8125 C 3.132812 -3.207031 3.285156 -2.726562 3.578125 -2.375 C 3.878906 -2.019531 4.316406 -1.84375 4.890625 -1.84375 C 5.460938 -1.84375 5.898438 -2.019531 6.203125 -2.375 C 6.503906 -2.738281 6.65625 -3.21875 6.65625 -3.8125 L 6.65625 -13.65625 Z M 8.921875 -13.65625 "/></g></g></g><g fill="#171717" fill-opacity="1"><g transform="translate(1275.994351, 80.548281)"><g><path d="M 7.703125 0.140625 C 6.429688 0.140625 5.257812 -0.15625 4.1875 -0.75 C 3.125 -1.351562 2.28125 -2.1875 1.65625 -3.25 C 1.039062 -4.3125 0.734375 -5.515625 0.734375 -6.859375 C 0.734375 -8.191406 1.039062 -9.390625 1.65625 -10.453125 C 2.28125 -11.515625 3.125 -12.34375 4.1875 -12.9375 C 5.257812 -13.53125 6.429688 -13.828125 7.703125 -13.828125 C 8.984375 -13.828125 10.15625 -13.53125 11.21875 -12.9375 C 12.289062 -12.34375 13.132812 -11.515625 13.75 -10.453125 C 14.363281 -9.390625 14.671875 -8.191406 14.671875 -6.859375 C 14.671875 -5.515625 14.363281 -4.3125 13.75 -3.25 C 13.132812 -2.1875 12.289062 -1.351562 11.21875 -0.75 C 10.15625 -0.15625 8.984375 0.140625 7.703125 0.140625 Z M 7.703125 -1.8125 C 8.597656 -1.8125 9.398438 -2.015625 10.109375 -2.421875 C 10.816406 -2.835938 11.367188 -3.425781 11.765625 -4.1875 C 12.171875 -4.957031 12.375 -5.847656 12.375 -6.859375 C 12.375 -7.859375 12.171875 -8.738281 11.765625 -9.5 C 11.367188 -10.257812 10.816406 -10.84375 10.109375 -11.25 C 9.398438 -11.65625 8.597656 -11.859375 7.703125 -11.859375 C 6.796875 -11.859375 5.988281 -11.65625 5.28125 -11.25 C 4.570312 -10.84375 4.019531 -10.257812 3.625 -9.5 C 3.226562 -8.738281 3.03125 -7.859375 3.03125 -6.859375 C 3.03125 -5.847656 3.226562 -4.957031 3.625 -4.1875 C 4.019531 -3.425781 4.570312 -2.835938 5.28125 -2.421875 C 5.988281 -2.015625 6.796875 -1.8125 7.703125 -1.8125 Z M 7.703125 -1.8125 "/></g></g></g><g fill="#171717" fill-opacity="1"><g transform="translate(1295.321103, 80.548281)"><g><path d="M 3.71875 -13.65625 L 3.71875 0 L 1.46875 0 L 1.46875 -13.65625 Z M 3.71875 -13.65625 "/></g></g></g><g fill="#171717" fill-opacity="1"><g transform="translate(1304.43476, 80.548281)"><g><path d="M 12.6875 0 L 10.453125 0 L 3.71875 -10.1875 L 3.71875 0 L 1.46875 0 L 1.46875 -13.671875 L 3.71875 -13.671875 L 10.453125 -3.5 L 10.453125 -13.671875 L 12.6875 -13.671875 Z M 12.6875 0 "/></g></g></g><g clip-path="url(#id8)"><path fill="#ffffff" d="M 1556.835938 716.433594 C 1554.988281 716.433594 1553.449219 717.972656 1553.449219 719.925781 C 1553.449219 721.773438 1554.988281 723.3125 1556.9375 723.3125 C 1558.890625 723.3125 1560.328125 721.773438 1560.328125 719.820312 C 1560.328125 717.972656 1558.789062 716.433594 1556.835938 716.433594 Z M 1556.835938 765.90625 C 1554.988281 765.90625 1553.449219 767.449219 1553.449219 769.398438 C 1553.449219 771.246094 1554.988281 772.785156 1556.9375 772.785156 C 1558.890625 772.785156 1560.328125 771.246094 1560.328125 769.296875 C 1560.328125 767.449219 1558.789062 765.90625 1556.835938 765.90625 Z M 1556.835938 815.277344 C 1554.988281 815.277344 1553.449219 816.820312 1553.449219 818.769531 C 1553.449219 820.617188 1554.988281 822.15625 1556.9375 822.15625 C 1558.890625 822.15625 1560.328125 820.617188 1560.328125 818.667969 C 1560.328125 816.820312 1558.789062 815.277344 1556.835938 815.277344 Z M 1556.835938 865.164062 C 1555.195312 865.164062 1553.960938 866.496094 1553.960938 868.140625 C 1553.960938 869.78125 1555.296875 871.011719 1556.9375 871.011719 C 1558.582031 871.011719 1559.816406 869.679688 1559.816406 868.035156 C 1559.816406 866.394531 1558.480469 865.164062 1556.835938 865.164062 Z M 1556.835938 667.0625 C 1554.988281 667.0625 1553.449219 668.601562 1553.449219 670.449219 C 1553.449219 672.296875 1554.988281 673.835938 1556.835938 673.835938 C 1558.683594 673.835938 1560.226562 672.296875 1560.226562 670.449219 C 1560.328125 668.601562 1558.683594 667.0625 1556.835938 667.0625 Z M 1556.835938 568.835938 C 1555.195312 568.835938 1553.960938 570.167969 1553.960938 571.8125 C 1553.960938 573.453125 1555.296875 574.683594 1556.9375 574.683594 C 1558.582031 574.683594 1559.816406 573.351562 1559.816406 571.707031 C 1559.816406 570.066406 1558.480469 568.835938 1556.835938 568.835938 Z M 1458.457031 714.996094 C 1455.992188 714.996094 1453.9375 717.050781 1453.9375 719.511719 C 1453.9375 721.976562 1455.992188 724.03125 1458.457031 724.03125 C 1460.921875 724.03125 1462.972656 721.976562 1462.972656 719.511719 C 1462.972656 717.050781 1460.921875 714.996094 1458.457031 714.996094 Z M 1458.457031 765.085938 C 1456.300781 765.085938 1454.449219 766.933594 1454.449219 768.988281 C 1454.449219 771.144531 1456.300781 772.785156 1458.457031 772.785156 C 1460.613281 772.785156 1462.460938 770.9375 1462.460938 768.988281 C 1462.460938 766.730469 1460.613281 765.085938 1458.457031 765.085938 C 1458.457031 764.882812 1458.457031 764.882812 1458.457031 765.085938 Z M 1458.457031 814.765625 C 1456.503906 814.765625 1454.964844 816.40625 1454.964844 818.253906 C 1454.964844 820.207031 1456.605469 821.746094 1458.457031 821.746094 C 1460.304688 821.746094 1461.949219 820.101562 1461.949219 818.253906 C 1461.949219 816.304688 1460.40625 814.765625 1458.457031 814.765625 Z M 1458.457031 864.753906 C 1456.8125 864.753906 1455.476562 866.085938 1455.476562 867.730469 C 1455.476562 869.371094 1456.8125 870.707031 1458.457031 870.707031 C 1460.097656 870.707031 1461.433594 869.371094 1461.433594 867.730469 C 1461.433594 866.085938 1460.097656 864.753906 1458.457031 864.753906 Z M 1458.457031 666.242188 C 1456.300781 666.242188 1454.554688 668.089844 1454.554688 670.246094 C 1454.554688 672.402344 1456.402344 674.144531 1458.558594 674.144531 C 1460.714844 674.144531 1462.460938 672.296875 1462.460938 670.246094 C 1462.460938 667.988281 1460.613281 666.242188 1458.457031 666.242188 C 1458.457031 666.140625 1458.457031 666.140625 1458.457031 666.242188 Z M 1458.457031 568.425781 C 1456.8125 568.425781 1455.476562 569.757812 1455.476562 571.402344 C 1455.476562 573.042969 1456.8125 574.378906 1458.457031 574.378906 C 1460.097656 574.378906 1461.433594 573.042969 1461.433594 571.402344 C 1461.433594 569.757812 1460.097656 568.425781 1458.457031 568.425781 Z M 1409.265625 716.433594 C 1407.109375 716.433594 1405.261719 718.179688 1405.261719 720.335938 C 1405.261719 722.492188 1407.007812 724.335938 1409.164062 724.335938 C 1411.320312 724.335938 1413.167969 722.59375 1413.167969 720.4375 C 1413.167969 718.28125 1411.421875 716.433594 1409.265625 716.433594 Z M 1409.265625 765.804688 C 1407.109375 765.804688 1405.261719 767.550781 1405.261719 769.707031 C 1405.261719 771.859375 1407.007812 773.707031 1409.164062 773.707031 C 1411.320312 773.707031 1413.167969 771.964844 1413.167969 769.808594 C 1413.167969 767.652344 1411.421875 765.804688 1409.265625 765.804688 Z M 1409.265625 815.691406 C 1407.417969 815.691406 1405.773438 817.230469 1405.773438 819.078125 C 1405.773438 820.925781 1407.3125 822.566406 1409.164062 822.566406 C 1411.011719 822.566406 1412.652344 821.027344 1412.652344 819.179688 C 1412.652344 817.230469 1411.113281 815.691406 1409.265625 815.691406 Z M 1409.265625 865.574219 C 1407.621094 865.574219 1406.289062 866.804688 1406.289062 868.449219 C 1406.289062 870.089844 1407.519531 871.425781 1409.164062 871.425781 C 1410.804688 871.425781 1412.140625 870.191406 1412.140625 868.550781 C 1412.140625 866.90625 1410.910156 865.574219 1409.265625 865.574219 Z M 1409.265625 667.0625 C 1407.109375 667.0625 1405.363281 668.808594 1405.363281 670.964844 C 1405.363281 673.121094 1407.109375 674.863281 1409.265625 674.863281 C 1411.421875 674.863281 1413.167969 673.121094 1413.167969 670.964844 C 1413.167969 668.910156 1411.421875 667.0625 1409.265625 667.0625 Z M 1360.074219 716.949219 C 1358.226562 716.949219 1356.582031 718.488281 1356.582031 720.335938 C 1356.582031 722.183594 1358.125 723.824219 1359.972656 723.824219 C 1361.820312 723.824219 1363.464844 722.285156 1363.464844 720.4375 C 1363.566406 718.488281 1361.921875 716.84375 1360.074219 716.949219 C 1360.074219 716.84375 1360.074219 716.84375 1360.074219 716.949219 Z M 1360.074219 766.320312 C 1358.226562 766.320312 1356.582031 767.859375 1356.582031 769.707031 C 1356.582031 771.554688 1358.125 773.195312 1359.972656 773.195312 C 1361.820312 773.195312 1363.464844 771.65625 1363.464844 769.808594 C 1363.566406 767.859375 1361.921875 766.214844 1360.074219 766.320312 C 1360.074219 766.214844 1360.074219 766.214844 1360.074219 766.320312 Z M 1360.074219 815.691406 C 1358.226562 815.691406 1356.582031 817.230469 1356.582031 819.078125 C 1356.582031 820.925781 1358.125 822.566406 1359.972656 822.566406 C 1361.820312 822.566406 1363.464844 821.027344 1363.464844 819.179688 C 1363.566406 817.230469 1361.921875 815.585938 1360.074219 815.691406 C 1360.074219 815.585938 1360.074219 815.585938 1360.074219 815.691406 Z M 1360.074219 865.574219 C 1358.433594 865.574219 1357.097656 866.804688 1357.097656 868.449219 C 1357.097656 870.089844 1358.328125 871.425781 1359.972656 871.425781 C 1361.617188 871.425781 1362.949219 870.191406 1362.949219 868.550781 C 1363.054688 866.804688 1361.71875 865.472656 1360.074219 865.574219 C 1360.074219 865.472656 1360.074219 865.472656 1360.074219 865.574219 Z M 1507.75 618.207031 C 1505.902344 618.207031 1504.257812 619.746094 1504.257812 621.59375 C 1504.257812 623.441406 1505.796875 625.082031 1507.644531 625.082031 C 1509.496094 625.082031 1511.136719 623.542969 1511.136719 621.695312 C 1511.242188 619.746094 1509.597656 618.101562 1507.75 618.207031 C 1507.75 618.101562 1507.75 618.101562 1507.75 618.207031 Z M 1409.265625 569.347656 C 1407.621094 569.347656 1406.289062 570.578125 1406.289062 572.222656 C 1406.289062 573.863281 1407.519531 575.199219 1409.164062 575.199219 C 1410.804688 575.199219 1412.140625 573.96875 1412.140625 572.324219 C 1412.242188 570.578125 1410.910156 569.246094 1409.265625 569.347656 C 1409.265625 569.246094 1409.265625 569.246094 1409.265625 569.347656 Z M 1310.882812 717.359375 C 1309.242188 717.359375 1307.90625 718.589844 1307.90625 720.230469 C 1307.90625 721.875 1309.140625 723.207031 1310.78125 723.207031 C 1312.425781 723.207031 1313.761719 721.976562 1313.761719 720.335938 C 1313.761719 718.691406 1312.527344 717.359375 1310.882812 717.359375 Z M 1310.882812 766.730469 C 1309.242188 766.730469 1307.90625 767.960938 1307.90625 769.601562 C 1307.90625 771.246094 1309.140625 772.578125 1310.78125 772.578125 C 1312.425781 772.578125 1313.761719 771.347656 1313.761719 769.707031 C 1313.761719 768.0625 1312.527344 766.730469 1310.882812 766.730469 Z M 1310.882812 816.101562 C 1309.242188 816.101562 1307.90625 817.332031 1307.90625 818.972656 C 1307.90625 820.617188 1309.140625 821.949219 1310.78125 821.949219 C 1312.425781 821.949219 1313.761719 820.71875 1313.761719 819.078125 C 1313.761719 817.433594 1312.527344 816.101562 1310.882812 816.101562 Z M 1310.882812 865.472656 C 1309.242188 865.472656 1307.90625 866.703125 1307.90625 868.34375 C 1307.90625 869.988281 1309.140625 871.320312 1310.78125 871.320312 C 1312.425781 871.320312 1313.761719 870.089844 1313.761719 868.449219 C 1313.761719 866.804688 1312.527344 865.472656 1310.882812 865.472656 Z M 1310.882812 618.71875 C 1309.242188 618.71875 1307.90625 620.054688 1307.90625 621.59375 C 1307.90625 623.132812 1309.242188 624.46875 1310.882812 624.46875 C 1312.527344 624.46875 1313.863281 623.132812 1313.863281 621.59375 C 1313.65625 619.949219 1312.527344 618.71875 1310.882812 618.71875 Z M 1310.882812 668.089844 C 1309.242188 668.089844 1307.90625 669.425781 1307.90625 670.964844 C 1307.90625 672.503906 1309.242188 673.835938 1310.882812 673.835938 C 1312.527344 673.835938 1313.863281 672.503906 1313.863281 670.964844 C 1313.65625 669.320312 1312.527344 668.089844 1310.882812 668.089844 Z M 1310.882812 569.246094 C 1309.242188 569.246094 1307.90625 570.476562 1307.90625 572.121094 C 1307.90625 573.761719 1309.140625 575.097656 1310.78125 575.097656 C 1312.425781 575.097656 1313.761719 573.863281 1313.761719 572.222656 C 1313.761719 570.578125 1312.527344 569.246094 1310.882812 569.246094 Z M 1507.644531 715.921875 C 1505.488281 715.921875 1503.640625 717.667969 1503.640625 719.925781 C 1503.640625 722.183594 1505.386719 723.925781 1507.644531 723.925781 C 1509.90625 723.925781 1511.652344 722.183594 1511.652344 719.925781 C 1511.652344 717.667969 1509.804688 715.921875 1507.644531 715.921875 Z M 1507.644531 765.292969 C 1505.488281 765.292969 1503.640625 767.140625 1503.640625 769.296875 C 1503.640625 771.449219 1505.488281 773.296875 1507.644531 773.296875 C 1509.804688 773.296875 1511.652344 771.449219 1511.652344 769.296875 C 1511.652344 767.140625 1509.804688 765.292969 1507.644531 765.292969 Z M 1507.644531 815.175781 C 1505.695312 815.175781 1504.15625 816.820312 1504.15625 818.667969 C 1504.15625 820.617188 1505.796875 822.15625 1507.644531 822.15625 C 1509.496094 822.15625 1511.136719 820.511719 1511.136719 818.667969 C 1511.136719 816.820312 1509.597656 815.175781 1507.644531 815.175781 Z M 1507.644531 865.164062 C 1506.003906 865.164062 1504.667969 866.496094 1504.667969 868.140625 C 1504.667969 869.78125 1506.003906 871.117188 1507.644531 871.117188 C 1509.289062 871.117188 1510.625 869.78125 1510.625 868.140625 C 1510.625 866.394531 1509.289062 865.164062 1507.644531 865.164062 Z M 1556.835938 617.796875 C 1554.988281 617.796875 1553.34375 619.335938 1553.34375 621.183594 C 1553.34375 623.03125 1554.886719 624.570312 1556.835938 624.570312 C 1558.789062 624.570312 1560.328125 623.03125 1560.328125 621.183594 C 1560.328125 619.230469 1558.683594 617.796875 1556.835938 617.796875 Z M 1507.644531 666.550781 C 1505.488281 666.550781 1503.742188 668.398438 1503.742188 670.554688 C 1503.742188 672.707031 1505.59375 674.453125 1507.75 674.453125 C 1509.90625 674.453125 1511.652344 672.605469 1511.652344 670.449219 C 1511.652344 668.296875 1509.804688 666.550781 1507.644531 666.550781 Z M 1507.644531 568.730469 C 1506.003906 568.730469 1504.667969 570.066406 1504.667969 571.605469 C 1504.667969 573.25 1506.003906 574.582031 1507.644531 574.582031 C 1509.289062 574.582031 1510.625 573.25 1510.625 571.605469 C 1510.625 570.066406 1509.289062 568.730469 1507.644531 568.730469 Z M 1606.027344 717.050781 C 1604.382812 717.050781 1603.152344 718.382812 1603.152344 720.027344 C 1603.152344 721.667969 1604.488281 722.902344 1606.128906 722.902344 C 1607.773438 722.902344 1609.003906 721.566406 1609.003906 719.925781 C 1609.003906 718.28125 1607.671875 717.050781 1606.027344 717.050781 Z M 1606.027344 766.421875 C 1604.382812 766.421875 1603.152344 767.753906 1603.152344 769.398438 C 1603.152344 771.039062 1604.488281 772.273438 1606.128906 772.273438 C 1607.773438 772.273438 1609.003906 770.9375 1609.003906 769.296875 C 1609.003906 767.652344 1607.671875 766.421875 1606.027344 766.421875 Z M 1606.027344 815.792969 C 1604.382812 815.792969 1603.152344 817.125 1603.152344 818.769531 C 1603.152344 820.410156 1604.488281 821.644531 1606.128906 821.644531 C 1607.773438 821.644531 1609.003906 820.308594 1609.003906 818.667969 C 1609.003906 817.023438 1607.671875 815.792969 1606.027344 815.792969 Z M 1606.027344 865.164062 C 1604.382812 865.164062 1603.152344 866.496094 1603.152344 868.140625 C 1603.152344 869.78125 1604.488281 871.011719 1606.128906 871.011719 C 1607.773438 871.011719 1609.003906 869.679688 1609.003906 868.035156 C 1609.003906 866.394531 1607.671875 865.164062 1606.027344 865.164062 Z M 1606.027344 618.308594 C 1604.488281 618.308594 1603.152344 619.644531 1603.152344 621.183594 C 1603.152344 622.722656 1604.488281 624.054688 1606.027344 624.054688 C 1607.566406 624.054688 1608.902344 622.722656 1608.902344 621.183594 C 1609.003906 619.539062 1607.566406 618.308594 1606.027344 618.308594 Z M 1606.027344 568.835938 C 1604.382812 568.835938 1603.152344 570.167969 1603.152344 571.8125 C 1603.152344 573.453125 1604.488281 574.683594 1606.128906 574.683594 C 1607.773438 574.683594 1609.003906 573.351562 1609.003906 571.707031 C 1609.003906 570.066406 1607.671875 568.835938 1606.027344 568.835938 Z M 1360.074219 667.578125 C 1358.125 667.578125 1356.6875 669.117188 1356.6875 670.964844 C 1356.6875 672.8125 1358.226562 674.351562 1360.074219 674.351562 C 1361.921875 674.351562 1363.464844 672.8125 1363.464844 670.964844 C 1363.566406 669.015625 1361.921875 667.578125 1360.074219 667.578125 Z M 1360.074219 569.347656 C 1358.433594 569.347656 1357.097656 570.578125 1357.097656 572.222656 C 1357.097656 573.863281 1358.328125 575.199219 1359.972656 575.199219 C 1361.617188 575.199219 1362.949219 573.96875 1362.949219 572.324219 C 1363.054688 570.578125 1361.71875 569.246094 1360.074219 569.347656 C 1360.074219 569.246094 1360.074219 569.246094 1360.074219 569.347656 Z M 1458.558594 618.207031 C 1456.710938 618.207031 1455.066406 619.746094 1455.066406 621.59375 C 1455.066406 623.441406 1456.605469 625.082031 1458.457031 625.082031 C 1460.304688 625.082031 1461.949219 623.542969 1461.949219 621.695312 C 1462.050781 619.746094 1460.40625 618.101562 1458.558594 618.207031 C 1458.558594 618.101562 1458.558594 618.101562 1458.558594 618.207031 Z M 1409.265625 618.207031 C 1407.417969 618.207031 1405.875 619.644531 1405.875 621.59375 C 1405.875 623.441406 1407.3125 624.980469 1409.265625 624.980469 C 1411.214844 624.980469 1412.652344 623.542969 1412.652344 621.59375 C 1412.757812 619.746094 1411.214844 618.207031 1409.265625 618.207031 Z M 1360.074219 618.207031 C 1358.125 618.207031 1356.6875 619.746094 1356.6875 621.59375 C 1356.6875 623.441406 1358.226562 624.980469 1360.074219 624.980469 C 1361.921875 624.980469 1363.464844 623.441406 1363.464844 621.59375 C 1363.566406 619.644531 1362.027344 618.207031 1360.074219 618.207031 Z M 1606.027344 667.679688 C 1604.488281 667.679688 1603.152344 669.015625 1603.152344 670.554688 C 1603.152344 672.09375 1604.488281 673.425781 1606.027344 673.425781 C 1607.566406 673.425781 1608.902344 672.09375 1608.902344 670.554688 C 1609.003906 668.910156 1607.566406 667.679688 1606.027344 667.679688 Z M 1606.027344 667.679688 " fill-opacity="1" fill-rule="nonzero"/></g><g clip-path="url(#id9)"><path fill="#99b9ff" d="M 724.175781 53.835938 C 722.433594 53.835938 720.984375 55.285156 720.984375 57.125 C 720.984375 58.867188 722.433594 60.320312 724.273438 60.320312 C 726.113281 60.320312 727.46875 58.867188 727.46875 57.027344 C 727.46875 55.285156 726.015625 53.835938 724.175781 53.835938 Z M 724.175781 100.492188 C 722.433594 100.492188 720.984375 101.941406 720.984375 103.78125 C 720.984375 105.523438 722.433594 106.976562 724.273438 106.976562 C 726.113281 106.976562 727.46875 105.523438 727.46875 103.6875 C 727.46875 101.941406 726.015625 100.492188 724.175781 100.492188 Z M 724.175781 147.050781 C 722.433594 147.050781 720.984375 148.503906 720.984375 150.34375 C 720.984375 152.085938 722.433594 153.535156 724.273438 153.535156 C 726.113281 153.535156 727.46875 152.085938 727.46875 150.246094 C 727.46875 148.503906 726.015625 147.050781 724.175781 147.050781 Z M 724.175781 194.097656 C 722.628906 194.097656 721.464844 195.355469 721.464844 196.902344 C 721.464844 198.453125 722.726562 199.613281 724.273438 199.613281 C 725.824219 199.613281 726.984375 198.355469 726.984375 196.804688 C 726.984375 195.257812 725.726562 194.097656 724.175781 194.097656 Z M 724.175781 7.273438 C 722.433594 7.273438 720.984375 8.726562 720.984375 10.46875 C 720.984375 12.210938 722.433594 13.664062 724.175781 13.664062 C 725.921875 13.664062 727.371094 12.210938 727.371094 10.46875 C 727.46875 8.726562 725.921875 7.273438 724.175781 7.273438 Z M 724.175781 -85.363281 C 722.628906 -85.363281 721.464844 -84.105469 721.464844 -82.554688 C 721.464844 -81.007812 722.726562 -79.84375 724.273438 -79.84375 C 725.824219 -79.84375 726.984375 -81.101562 726.984375 -82.652344 C 726.984375 -84.199219 725.726562 -85.363281 724.175781 -85.363281 Z M 631.425781 52.480469 C 629.101562 52.480469 627.164062 54.414062 627.164062 56.738281 C 627.164062 59.0625 629.101562 60.996094 631.425781 60.996094 C 633.75 60.996094 635.683594 59.0625 635.683594 56.738281 C 635.683594 54.414062 633.75 52.480469 631.425781 52.480469 Z M 631.425781 99.71875 C 629.390625 99.71875 627.648438 101.460938 627.648438 103.394531 C 627.648438 105.429688 629.390625 106.976562 631.425781 106.976562 C 633.457031 106.976562 635.199219 105.234375 635.199219 103.394531 C 635.199219 101.265625 633.457031 99.71875 631.425781 99.71875 C 631.425781 99.523438 631.425781 99.523438 631.425781 99.71875 Z M 631.425781 146.566406 C 629.585938 146.566406 628.132812 148.117188 628.132812 149.859375 C 628.132812 151.699219 629.683594 153.148438 631.425781 153.148438 C 633.167969 153.148438 634.714844 151.601562 634.714844 149.859375 C 634.714844 148.019531 633.265625 146.566406 631.425781 146.566406 Z M 631.425781 193.707031 C 629.875 193.707031 628.617188 194.96875 628.617188 196.515625 C 628.617188 198.066406 629.875 199.324219 631.425781 199.324219 C 632.972656 199.324219 634.234375 198.066406 634.234375 196.515625 C 634.234375 194.96875 632.972656 193.707031 631.425781 193.707031 Z M 631.425781 6.5 C 629.390625 6.5 627.746094 8.242188 627.746094 10.273438 C 627.746094 12.308594 629.488281 13.953125 631.523438 13.953125 C 633.554688 13.953125 635.199219 12.210938 635.199219 10.273438 C 635.199219 8.144531 633.457031 6.5 631.425781 6.5 C 631.425781 6.402344 631.425781 6.402344 631.425781 6.5 Z M 631.425781 -85.75 C 629.875 -85.75 628.617188 -84.492188 628.617188 -82.941406 C 628.617188 -81.394531 629.875 -80.136719 631.425781 -80.136719 C 632.972656 -80.136719 634.234375 -81.394531 634.234375 -82.941406 C 634.234375 -84.492188 632.972656 -85.75 631.425781 -85.75 Z M 585.046875 53.835938 C 583.015625 53.835938 581.273438 55.480469 581.273438 57.511719 C 581.273438 59.546875 582.917969 61.289062 584.953125 61.289062 C 586.984375 61.289062 588.726562 59.640625 588.726562 57.609375 C 588.726562 55.578125 587.082031 53.835938 585.046875 53.835938 Z M 585.046875 100.394531 C 583.015625 100.394531 581.273438 102.039062 581.273438 104.074219 C 581.273438 106.105469 582.917969 107.847656 584.953125 107.847656 C 586.984375 107.847656 588.726562 106.203125 588.726562 104.167969 C 588.726562 102.136719 587.082031 100.394531 585.046875 100.394531 Z M 585.046875 147.4375 C 583.304688 147.4375 581.757812 148.890625 581.757812 150.632812 C 581.757812 152.375 583.207031 153.925781 584.953125 153.925781 C 586.695312 153.925781 588.242188 152.472656 588.242188 150.730469 C 588.242188 148.890625 586.792969 147.4375 585.046875 147.4375 Z M 585.046875 194.484375 C 583.5 194.484375 582.242188 195.644531 582.242188 197.191406 C 582.242188 198.742188 583.402344 200 584.953125 200 C 586.5 200 587.757812 198.839844 587.757812 197.289062 C 587.757812 195.742188 586.597656 194.484375 585.046875 194.484375 Z M 585.046875 7.273438 C 583.015625 7.273438 581.371094 8.917969 581.371094 10.953125 C 581.371094 12.984375 583.015625 14.628906 585.046875 14.628906 C 587.082031 14.628906 588.726562 12.984375 588.726562 10.953125 C 588.726562 9.015625 587.082031 7.273438 585.046875 7.273438 Z M 538.671875 54.316406 C 536.929688 54.316406 535.378906 55.769531 535.378906 57.511719 C 535.378906 59.253906 536.832031 60.804688 538.574219 60.804688 C 540.316406 60.804688 541.867188 59.351562 541.867188 57.609375 C 541.964844 55.769531 540.414062 54.222656 538.671875 54.316406 C 538.671875 54.222656 538.671875 54.222656 538.671875 54.316406 Z M 538.671875 100.878906 C 536.929688 100.878906 535.378906 102.332031 535.378906 104.074219 C 535.378906 105.816406 536.832031 107.363281 538.574219 107.363281 C 540.316406 107.363281 541.867188 105.910156 541.867188 104.167969 C 541.964844 102.332031 540.414062 100.78125 538.671875 100.878906 C 538.671875 100.78125 538.671875 100.78125 538.671875 100.878906 Z M 538.671875 147.4375 C 536.929688 147.4375 535.378906 148.890625 535.378906 150.632812 C 535.378906 152.375 536.832031 153.925781 538.574219 153.925781 C 540.316406 153.925781 541.867188 152.472656 541.867188 150.730469 C 541.964844 148.890625 540.414062 147.34375 538.671875 147.4375 C 538.671875 147.34375 538.671875 147.34375 538.671875 147.4375 Z M 538.671875 194.484375 C 537.125 194.484375 535.863281 195.644531 535.863281 197.191406 C 535.863281 198.742188 537.027344 200 538.574219 200 C 540.125 200 541.382812 198.839844 541.382812 197.289062 C 541.480469 195.644531 540.222656 194.386719 538.671875 194.484375 C 538.671875 194.386719 538.671875 194.386719 538.671875 194.484375 Z M 677.898438 -38.800781 C 676.15625 -38.800781 674.605469 -37.351562 674.605469 -35.609375 C 674.605469 -33.867188 676.058594 -32.316406 677.800781 -32.316406 C 679.542969 -32.316406 681.09375 -33.769531 681.09375 -35.511719 C 681.191406 -37.351562 679.640625 -38.898438 677.898438 -38.800781 C 677.898438 -38.898438 677.898438 -38.898438 677.898438 -38.800781 Z M 585.046875 -84.878906 C 583.5 -84.878906 582.242188 -83.714844 582.242188 -82.167969 C 582.242188 -80.621094 583.402344 -79.359375 584.953125 -79.359375 C 586.5 -79.359375 587.757812 -80.523438 587.757812 -82.070312 C 587.855469 -83.714844 586.597656 -84.976562 585.046875 -84.878906 C 585.046875 -84.976562 585.046875 -84.976562 585.046875 -84.878906 Z M 492.296875 54.707031 C 490.746094 54.707031 489.488281 55.867188 489.488281 57.414062 C 489.488281 58.964844 490.648438 60.222656 492.199219 60.222656 C 493.75 60.222656 495.007812 59.0625 495.007812 57.511719 C 495.007812 55.964844 493.84375 54.707031 492.296875 54.707031 Z M 492.296875 101.265625 C 490.746094 101.265625 489.488281 102.425781 489.488281 103.976562 C 489.488281 105.523438 490.648438 106.785156 492.199219 106.785156 C 493.75 106.785156 495.007812 105.621094 495.007812 104.074219 C 495.007812 102.523438 493.84375 101.265625 492.296875 101.265625 Z M 492.296875 147.824219 C 490.746094 147.824219 489.488281 148.988281 489.488281 150.535156 C 489.488281 152.085938 490.648438 153.34375 492.199219 153.34375 C 493.75 153.34375 495.007812 152.183594 495.007812 150.632812 C 495.007812 149.085938 493.84375 147.824219 492.296875 147.824219 Z M 492.296875 194.386719 C 490.746094 194.386719 489.488281 195.546875 489.488281 197.097656 C 489.488281 198.644531 490.648438 199.902344 492.199219 199.902344 C 493.75 199.902344 495.007812 198.742188 495.007812 197.191406 C 495.007812 195.644531 493.84375 194.386719 492.296875 194.386719 Z M 492.296875 -38.316406 C 490.746094 -38.316406 489.488281 -37.058594 489.488281 -35.609375 C 489.488281 -34.15625 490.746094 -32.898438 492.296875 -32.898438 C 493.84375 -32.898438 495.105469 -34.15625 495.105469 -35.609375 C 494.910156 -37.15625 493.84375 -38.316406 492.296875 -38.316406 Z M 492.296875 8.242188 C 490.746094 8.242188 489.488281 9.5 489.488281 10.953125 C 489.488281 12.40625 490.746094 13.664062 492.296875 13.664062 C 493.84375 13.664062 495.105469 12.40625 495.105469 10.953125 C 494.910156 9.402344 493.84375 8.242188 492.296875 8.242188 Z M 492.296875 -84.976562 C 490.746094 -84.976562 489.488281 -83.8125 489.488281 -82.265625 C 489.488281 -80.714844 490.648438 -79.457031 492.199219 -79.457031 C 493.75 -79.457031 495.007812 -80.621094 495.007812 -82.167969 C 495.007812 -83.714844 493.84375 -84.976562 492.296875 -84.976562 Z M 677.800781 53.351562 C 675.769531 53.351562 674.023438 54.996094 674.023438 57.125 C 674.023438 59.253906 675.671875 60.902344 677.800781 60.902344 C 679.929688 60.902344 681.578125 59.253906 681.578125 57.125 C 681.578125 54.996094 679.835938 53.351562 677.800781 53.351562 Z M 677.800781 99.910156 C 675.769531 99.910156 674.023438 101.652344 674.023438 103.6875 C 674.023438 105.71875 675.769531 107.460938 677.800781 107.460938 C 679.835938 107.460938 681.578125 105.71875 681.578125 103.6875 C 681.578125 101.652344 679.835938 99.910156 677.800781 99.910156 Z M 677.800781 146.953125 C 675.960938 146.953125 674.507812 148.503906 674.507812 150.246094 C 674.507812 152.085938 676.058594 153.535156 677.800781 153.535156 C 679.542969 153.535156 681.09375 151.988281 681.09375 150.246094 C 681.09375 148.503906 679.640625 146.953125 677.800781 146.953125 Z M 677.800781 194.097656 C 676.253906 194.097656 674.992188 195.355469 674.992188 196.902344 C 674.992188 198.453125 676.253906 199.710938 677.800781 199.710938 C 679.351562 199.710938 680.609375 198.453125 680.609375 196.902344 C 680.609375 195.257812 679.351562 194.097656 677.800781 194.097656 Z M 724.175781 -39.1875 C 722.433594 -39.1875 720.886719 -37.738281 720.886719 -35.996094 C 720.886719 -34.253906 722.339844 -32.800781 724.175781 -32.800781 C 726.015625 -32.800781 727.46875 -34.253906 727.46875 -35.996094 C 727.46875 -37.835938 725.921875 -39.1875 724.175781 -39.1875 Z M 677.800781 6.789062 C 675.769531 6.789062 674.121094 8.53125 674.121094 10.566406 C 674.121094 12.597656 675.863281 14.242188 677.898438 14.242188 C 679.929688 14.242188 681.578125 12.5 681.578125 10.46875 C 681.578125 8.4375 679.835938 6.789062 677.800781 6.789062 Z M 677.800781 -85.460938 C 676.253906 -85.460938 674.992188 -84.199219 674.992188 -82.75 C 674.992188 -81.199219 676.253906 -79.941406 677.800781 -79.941406 C 679.351562 -79.941406 680.609375 -81.199219 680.609375 -82.75 C 680.609375 -84.199219 679.351562 -85.460938 677.800781 -85.460938 Z M 770.554688 54.414062 C 769.003906 54.414062 767.84375 55.671875 767.84375 57.222656 C 767.84375 58.769531 769.101562 59.933594 770.652344 59.933594 C 772.199219 59.933594 773.363281 58.675781 773.363281 57.125 C 773.363281 55.578125 772.101562 54.414062 770.554688 54.414062 Z M 770.554688 100.976562 C 769.003906 100.976562 767.84375 102.234375 767.84375 103.78125 C 767.84375 105.332031 769.101562 106.492188 770.652344 106.492188 C 772.199219 106.492188 773.363281 105.234375 773.363281 103.6875 C 773.363281 102.136719 772.101562 100.976562 770.554688 100.976562 Z M 770.554688 147.535156 C 769.003906 147.535156 767.84375 148.792969 767.84375 150.34375 C 767.84375 151.890625 769.101562 153.054688 770.652344 153.054688 C 772.199219 153.054688 773.363281 151.792969 773.363281 150.246094 C 773.363281 148.695312 772.101562 147.535156 770.554688 147.535156 Z M 770.554688 194.097656 C 769.003906 194.097656 767.84375 195.355469 767.84375 196.902344 C 767.84375 198.453125 769.101562 199.613281 770.652344 199.613281 C 772.199219 199.613281 773.363281 198.355469 773.363281 196.804688 C 773.363281 195.257812 772.101562 194.097656 770.554688 194.097656 Z M 770.554688 -38.707031 C 769.101562 -38.707031 767.84375 -37.445312 767.84375 -35.996094 C 767.84375 -34.542969 769.101562 -33.285156 770.554688 -33.285156 C 772.007812 -33.285156 773.265625 -34.542969 773.265625 -35.996094 C 773.363281 -37.542969 772.007812 -38.707031 770.554688 -38.707031 Z M 770.554688 -85.363281 C 769.003906 -85.363281 767.84375 -84.105469 767.84375 -82.554688 C 767.84375 -81.007812 769.101562 -79.84375 770.652344 -79.84375 C 772.199219 -79.84375 773.363281 -81.101562 773.363281 -82.652344 C 773.363281 -84.199219 772.101562 -85.363281 770.554688 -85.363281 Z M 538.671875 7.757812 C 536.832031 7.757812 535.476562 9.210938 535.476562 10.953125 C 535.476562 12.695312 536.929688 14.148438 538.671875 14.148438 C 540.414062 14.148438 541.867188 12.695312 541.867188 10.953125 C 541.964844 9.113281 540.414062 7.757812 538.671875 7.757812 Z M 538.671875 -84.878906 C 537.125 -84.878906 535.863281 -83.714844 535.863281 -82.167969 C 535.863281 -80.621094 537.027344 -79.359375 538.574219 -79.359375 C 540.125 -79.359375 541.382812 -80.523438 541.382812 -82.070312 C 541.480469 -83.714844 540.222656 -84.976562 538.671875 -84.878906 C 538.671875 -84.976562 538.671875 -84.976562 538.671875 -84.878906 Z M 631.523438 -38.800781 C 629.777344 -38.800781 628.230469 -37.351562 628.230469 -35.609375 C 628.230469 -33.867188 629.683594 -32.316406 631.425781 -32.316406 C 633.167969 -32.316406 634.714844 -33.769531 634.714844 -35.511719 C 634.8125 -37.351562 633.265625 -38.898438 631.523438 -38.800781 C 631.523438 -38.898438 631.523438 -38.898438 631.523438 -38.800781 Z M 585.046875 -38.800781 C 583.304688 -38.800781 581.851562 -37.445312 581.851562 -35.609375 C 581.851562 -33.867188 583.207031 -32.414062 585.046875 -32.414062 C 586.886719 -32.414062 588.242188 -33.769531 588.242188 -35.609375 C 588.339844 -37.351562 586.886719 -38.800781 585.046875 -38.800781 Z M 538.671875 -38.800781 C 536.832031 -38.800781 535.476562 -37.351562 535.476562 -35.609375 C 535.476562 -33.867188 536.929688 -32.414062 538.671875 -32.414062 C 540.414062 -32.414062 541.867188 -33.867188 541.867188 -35.609375 C 541.964844 -37.445312 540.511719 -38.800781 538.671875 -38.800781 Z M 770.554688 7.855469 C 769.101562 7.855469 767.84375 9.113281 767.84375 10.566406 C 767.84375 12.015625 769.101562 13.277344 770.554688 13.277344 C 772.007812 13.277344 773.265625 12.015625 773.265625 10.566406 C 773.363281 9.015625 772.007812 7.855469 770.554688 7.855469 Z M 770.554688 7.855469 " fill-opacity="1" fill-rule="nonzero"/></g><g clip-path="url(#id10)"><g clip-path="url(#id11)"><g clip-path="url(#id12)"><path fill="#ffcf3e" d="M 777.710938 561.933594 C 788.84375 635.445312 837.699219 676.226562 888.523438 682.371094 C 929.691406 687.347656 972.152344 669.601562 996.917969 628.113281 C 1007.066406 611.101562 1012.054688 591.726562 1016.511719 571.28125 C 1031.074219 504.507812 1027.40625 508.160156 1072.378906 460.535156 C 1141.617188 387.203125 1092.84375 251.148438 998.257812 221.984375 C 941.835938 204.589844 870.847656 218.171875 813.964844 306.117188 C 778.382812 361.132812 697.226562 338.628906 689.105469 415.347656 C 686.867188 436.523438 692.441406 458.960938 706.753906 474.171875 C 730.101562 498.980469 769.339844 506.648438 777.710938 561.933594 " fill-opacity="1" fill-rule="evenodd"/></g></g></g></svg>