<svg xmlns="http://www.w3.org/2000/svg" xmlns:xlink="http://www.w3.org/1999/xlink" width="500" zoomAndPan="magnify" viewBox="0 0 375 374.999991" height="500" preserveAspectRatio="xMidYMid meet" version="1.0"><defs><clipPath id="id1"><path d="M 70.867188 52.289062 L 304.117188 52.289062 L 304.117188 323 L 70.867188 323 Z M 70.867188 52.289062 " clip-rule="nonzero"/></clipPath></defs><rect x="-37.5" width="450" fill="#ffffff" y="-37.499999" height="449.999989" fill-opacity="1"/><rect x="-37.5" width="450" fill="#8c52ff" y="-37.499999" height="449.999989" fill-opacity="1"/><rect x="-37.5" width="450" fill="#ffffff" y="-37.499999" height="449.999989" fill-opacity="1"/><rect x="-37.5" width="450" fill="#8c52ff" y="-37.499999" height="449.999989" fill-opacity="1"/><g clip-path="url(#id1)"><path fill="#332c54" d="M 205.953125 70.125 L 139.117188 70.125 C 144.183594 67.226562 149.417969 64.671875 154.816406 62.453125 C 160.214844 60.238281 165.738281 58.382812 171.378906 56.890625 C 177.019531 55.394531 182.734375 54.273438 188.519531 53.523438 C 194.304688 52.773438 200.117188 52.40625 205.953125 52.414062 C 206.605469 52.414062 207.261719 52.414062 207.917969 52.414062 C 208.417969 52.414062 208.933594 52.414062 209.433594 52.441406 L 210.4375 52.46875 L 210.65625 52.46875 L 212.214844 52.53125 C 212.730469 52.558594 213.25 52.578125 213.773438 52.617188 C 214.296875 52.652344 214.804688 52.679688 215.324219 52.714844 C 216.363281 52.785156 217.394531 52.867188 218.421875 52.960938 C 218.9375 53.003906 219.449219 53.058594 219.960938 53.113281 C 220.988281 53.21875 222.011719 53.339844 223.03125 53.46875 C 223.625 53.539062 224.226562 53.621094 224.824219 53.703125 C 225.417969 53.789062 225.972656 53.875 226.539062 53.964844 C 227.40625 54.097656 228.265625 54.238281 229.121094 54.390625 C 230.132812 54.566406 231.140625 54.753906 232.136719 54.945312 C 242.601562 57.015625 252.679688 60.28125 262.371094 64.742188 C 263.265625 65.160156 264.164062 65.585938 265.058594 66.015625 C 265.953125 66.445312 266.714844 66.832031 267.539062 67.257812 C 268.433594 67.703125 269.351562 68.203125 270.25 68.691406 C 270.3125 68.71875 270.371094 68.75 270.429688 68.789062 C 271.261719 69.238281 272.089844 69.6875 272.914062 70.179688 C 273.566406 70.550781 274.214844 70.933594 274.859375 71.3125 L 274.886719 71.3125 C 275.460938 71.648438 276.027344 71.996094 276.59375 72.347656 C 276.652344 72.378906 276.707031 72.410156 276.761719 72.445312 C 277.042969 72.621094 277.316406 72.800781 277.605469 72.972656 C 277.652344 73.003906 277.707031 73.035156 277.761719 73.066406 C 278.058594 73.269531 278.363281 73.453125 278.65625 73.652344 C 284.417969 77.320312 289.867188 81.410156 295 85.917969 C 297.265625 87.898438 299.464844 89.957031 301.59375 92.09375 C 301.996094 92.5 302.355469 92.945312 302.667969 93.421875 C 302.984375 93.898438 303.25 94.402344 303.464844 94.933594 C 303.679688 95.460938 303.839844 96.007812 303.949219 96.570312 C 304.058594 97.132812 304.109375 97.699219 304.109375 98.269531 C 304.105469 98.84375 304.046875 99.410156 303.933594 99.96875 C 303.820312 100.53125 303.652344 101.074219 303.429688 101.601562 C 303.210938 102.128906 302.9375 102.632812 302.621094 103.105469 C 302.300781 103.582031 301.9375 104.019531 301.53125 104.421875 L 301.390625 104.566406 C 300.984375 104.972656 300.542969 105.335938 300.0625 105.65625 C 299.585938 105.976562 299.082031 106.246094 298.550781 106.464844 C 298.019531 106.683594 297.472656 106.851562 296.910156 106.964844 C 296.347656 107.074219 295.78125 107.132812 295.207031 107.132812 C 294.632812 107.132812 294.0625 107.074219 293.5 106.964844 C 292.9375 106.851562 292.390625 106.683594 291.859375 106.464844 C 291.328125 106.246094 290.824219 105.976562 290.347656 105.65625 C 289.871094 105.335938 289.425781 104.972656 289.023438 104.566406 C 286.910156 102.449219 284.726562 100.421875 282.460938 98.480469 C 279.824219 96.214844 277.09375 94.070312 274.269531 92.046875 C 271.441406 90.023438 268.53125 88.128906 265.539062 86.363281 C 262.542969 84.601562 259.480469 82.972656 256.339844 81.480469 C 253.203125 79.988281 250.003906 78.640625 246.746094 77.429688 C 243.488281 76.222656 240.183594 75.164062 236.832031 74.25 C 233.480469 73.335938 230.09375 72.574219 226.675781 71.960938 C 223.253906 71.347656 219.816406 70.890625 216.355469 70.582031 C 212.894531 70.277344 209.425781 70.125 205.953125 70.125 Z M 301.464844 270.769531 C 301.058594 270.363281 300.617188 270 300.136719 269.679688 C 299.660156 269.359375 299.15625 269.085938 298.625 268.867188 C 298.09375 268.644531 297.546875 268.480469 296.980469 268.367188 C 296.417969 268.253906 295.847656 268.199219 295.273438 268.199219 C 294.695312 268.199219 294.128906 268.253906 293.5625 268.367188 C 293 268.480469 292.453125 268.644531 291.921875 268.867188 C 291.390625 269.085938 290.882812 269.359375 290.40625 269.679688 C 289.929688 270 289.484375 270.363281 289.078125 270.769531 C 286.992188 272.890625 284.8125 274.921875 282.550781 276.867188 C 261.691406 294.886719 234.785156 305.175781 205.953125 305.175781 C 141.222656 305.175781 88.558594 252.445312 88.558594 187.636719 C 88.554688 174.976562 90.554688 162.640625 94.554688 150.632812 L 76.050781 150.632812 C 72.59375 162.730469 70.867188 175.074219 70.867188 187.660156 C 70.867188 262.238281 131.46875 322.914062 205.953125 322.914062 C 212.332031 322.917969 218.679688 322.472656 224.992188 321.578125 C 231.308594 320.679688 237.527344 319.339844 243.65625 317.558594 C 249.78125 315.777344 255.75 313.570312 261.558594 310.9375 C 267.371094 308.308594 272.96875 305.277344 278.351562 301.851562 C 284.222656 298.109375 289.773438 293.941406 295.007812 289.347656 C 297.277344 287.355469 299.476562 285.292969 301.605469 283.15625 C 302.003906 282.75 302.363281 282.308594 302.675781 281.828125 C 302.988281 281.351562 303.253906 280.847656 303.46875 280.316406 C 303.683594 279.785156 303.84375 279.242188 303.953125 278.679688 C 304.058594 278.117188 304.113281 277.550781 304.109375 276.976562 C 304.105469 276.40625 304.046875 275.839844 303.933594 275.28125 C 303.816406 274.71875 303.652344 274.175781 303.429688 273.648438 C 303.207031 273.121094 302.9375 272.617188 302.617188 272.144531 C 302.300781 271.671875 301.9375 271.230469 301.53125 270.828125 Z M 257.066406 123.960938 C 259.371094 125.808594 261.570312 127.777344 263.65625 129.863281 C 264.0625 130.277344 264.503906 130.648438 264.984375 130.972656 C 265.460938 131.300781 265.964844 131.574219 266.5 131.800781 C 267.03125 132.027344 267.582031 132.199219 268.148438 132.316406 C 268.714844 132.433594 269.289062 132.492188 269.867188 132.496094 C 270.445312 132.5 271.019531 132.449219 271.585938 132.339844 C 272.15625 132.230469 272.707031 132.066406 273.242188 131.847656 C 273.78125 131.628906 274.289062 131.359375 274.773438 131.039062 C 275.253906 130.722656 275.703125 130.359375 276.113281 129.949219 L 276.242188 129.820312 C 276.648438 129.414062 277.011719 128.96875 277.328125 128.492188 C 277.648438 128.011719 277.917969 127.507812 278.136719 126.976562 C 278.355469 126.445312 278.523438 125.894531 278.636719 125.332031 C 278.746094 124.765625 278.804688 124.195312 278.804688 123.621094 C 278.804688 123.046875 278.746094 122.476562 278.636719 121.914062 C 278.523438 121.347656 278.355469 120.800781 278.136719 120.269531 C 277.917969 119.738281 277.648438 119.230469 277.328125 118.753906 C 277.011719 118.273438 276.648438 117.832031 276.242188 117.421875 C 274.128906 115.308594 271.929688 113.292969 269.636719 111.378906 C 265.207031 107.667969 260.488281 104.371094 255.480469 101.488281 C 250.476562 98.601562 245.257812 96.175781 239.828125 94.207031 C 234.398438 92.234375 228.839844 90.75 223.148438 89.753906 C 217.460938 88.757812 211.726562 88.261719 205.953125 88.265625 L 114.386719 88.265625 C 108.519531 93.699219 103.171875 99.609375 98.351562 105.996094 L 205.953125 105.996094 C 210.566406 105.988281 215.144531 106.371094 219.695312 107.144531 C 224.242188 107.917969 228.691406 109.070312 233.046875 110.601562 C 237.398438 112.128906 241.589844 114.015625 245.625 116.257812 C 249.65625 118.503906 253.472656 121.070312 257.066406 123.960938 Z M 113.773438 150.65625 C 111.421875 156.539062 109.644531 162.589844 108.453125 168.816406 C 107.257812 175.039062 106.664062 181.320312 106.675781 187.660156 C 106.675781 242.460938 151.203125 287.042969 205.9375 287.042969 C 211.714844 287.050781 217.449219 286.558594 223.136719 285.5625 C 228.828125 284.566406 234.386719 283.085938 239.816406 281.113281 C 245.246094 279.144531 250.464844 276.71875 255.472656 273.835938 C 260.480469 270.953125 265.195312 267.65625 269.628906 263.945312 C 271.910156 262.035156 274.109375 260.015625 276.230469 257.890625 C 276.636719 257.484375 277 257.039062 277.316406 256.5625 C 277.636719 256.082031 277.90625 255.578125 278.125 255.046875 C 278.34375 254.515625 278.511719 253.964844 278.625 253.402344 C 278.734375 252.835938 278.792969 252.269531 278.792969 251.691406 C 278.792969 251.117188 278.734375 250.546875 278.625 249.980469 C 278.511719 249.417969 278.34375 248.871094 278.125 248.339844 C 277.90625 247.804688 277.636719 247.300781 277.316406 246.824219 C 277 246.34375 276.636719 245.902344 276.230469 245.496094 L 276.09375 245.359375 C 275.683594 244.953125 275.238281 244.589844 274.753906 244.269531 C 274.269531 243.949219 273.761719 243.679688 273.222656 243.464844 C 272.6875 243.246094 272.136719 243.082031 271.566406 242.972656 C 271 242.863281 270.425781 242.808594 269.847656 242.8125 C 269.265625 242.816406 268.695312 242.878906 268.128906 242.996094 C 267.5625 243.113281 267.011719 243.285156 266.476562 243.511719 C 265.945312 243.738281 265.4375 244.015625 264.960938 244.339844 C 264.480469 244.664062 264.039062 245.035156 263.632812 245.449219 C 261.554688 247.539062 259.363281 249.503906 257.066406 251.351562 C 253.472656 254.246094 249.660156 256.816406 245.625 259.058594 C 241.59375 261.304688 237.402344 263.191406 233.046875 264.722656 C 228.695312 266.253906 224.246094 267.402344 219.695312 268.175781 C 215.148438 268.949219 210.566406 269.332031 205.953125 269.324219 C 160.972656 269.324219 124.382812 232.6875 124.382812 187.648438 C 124.390625 181.214844 125.152344 174.871094 126.664062 168.617188 C 128.179688 162.363281 130.402344 156.371094 133.335938 150.644531 Z M 230.203125 150.84375 C 232.679688 152.476562 234.964844 154.339844 237.066406 156.4375 C 237.46875 156.851562 237.914062 157.222656 238.390625 157.546875 C 238.871094 157.875 239.375 158.152344 239.910156 158.378906 C 240.441406 158.605469 240.992188 158.777344 241.558594 158.898438 C 242.128906 159.015625 242.703125 159.078125 243.28125 159.082031 C 243.859375 159.085938 244.433594 159.035156 245.003906 158.925781 C 245.574219 158.816406 246.125 158.652344 246.664062 158.433594 C 247.199219 158.21875 247.710938 157.949219 248.195312 157.628906 C 248.679688 157.308594 249.128906 156.945312 249.539062 156.539062 L 249.671875 156.40625 C 250.078125 155.996094 250.441406 155.554688 250.761719 155.074219 C 251.078125 154.597656 251.347656 154.09375 251.570312 153.558594 C 251.789062 153.027344 251.953125 152.480469 252.066406 151.917969 C 252.179688 151.351562 252.234375 150.78125 252.234375 150.207031 C 252.234375 149.632812 252.179688 149.0625 252.066406 148.496094 C 251.953125 147.933594 251.789062 147.382812 251.570312 146.851562 C 251.347656 146.320312 251.078125 145.816406 250.761719 145.335938 C 250.441406 144.859375 250.078125 144.414062 249.671875 144.007812 C 246.808594 141.125 243.6875 138.554688 240.3125 136.289062 C 236.9375 134.023438 233.375 132.113281 229.621094 130.558594 C 225.871094 129 222.003906 127.824219 218.019531 127.035156 C 214.035156 126.242188 210.011719 125.851562 205.949219 125.859375 L 85.863281 125.859375 C 82.925781 131.582031 80.410156 137.488281 78.316406 143.574219 L 205.953125 143.574219 C 210.265625 143.570312 214.484375 144.183594 218.617188 145.421875 C 222.746094 146.660156 226.613281 148.46875 230.210938 150.84375 Z M 181.988281 150.65625 L 156.476562 150.65625 C 154.496094 153.308594 152.742188 156.101562 151.214844 159.039062 C 149.683594 161.972656 148.398438 165.015625 147.355469 168.160156 C 146.3125 171.300781 145.527344 174.511719 145 177.78125 C 144.472656 181.050781 144.207031 184.34375 144.207031 187.660156 C 144.207031 221.71875 171.90625 249.464844 205.9375 249.464844 C 209.242188 249.457031 212.527344 249.183594 215.785156 248.652344 C 219.046875 248.117188 222.242188 247.324219 225.378906 246.277344 C 228.511719 245.230469 231.542969 243.9375 234.46875 242.40625 C 237.398438 240.871094 240.183594 239.113281 242.828125 237.132812 C 245.265625 235.324219 247.550781 233.347656 249.691406 231.199219 C 250.09375 230.789062 250.449219 230.347656 250.761719 229.871094 C 251.078125 229.390625 251.339844 228.886719 251.554688 228.359375 C 251.769531 227.828125 251.933594 227.28125 252.039062 226.71875 C 252.148438 226.160156 252.199219 225.59375 252.195312 225.019531 C 252.191406 224.449219 252.132812 223.882812 252.019531 223.320312 C 251.90625 222.761719 251.738281 222.21875 251.515625 221.691406 C 251.292969 221.164062 251.023438 220.664062 250.703125 220.1875 C 250.382812 219.714844 250.019531 219.277344 249.617188 218.875 L 249.539062 218.796875 C 249.125 218.390625 248.679688 218.027344 248.195312 217.707031 C 247.710938 217.386719 247.199219 217.117188 246.660156 216.898438 C 246.121094 216.683594 245.570312 216.519531 245 216.410156 C 244.429688 216.300781 243.855469 216.25 243.273438 216.253906 C 242.695312 216.261719 242.121094 216.320312 241.554688 216.441406 C 240.984375 216.558594 240.433594 216.734375 239.902344 216.960938 C 239.367188 217.1875 238.859375 217.464844 238.382812 217.792969 C 237.902344 218.121094 237.460938 218.492188 237.054688 218.910156 C 234.964844 221.007812 232.683594 222.875 230.210938 224.507812 C 229.003906 225.320312 227.761719 226.070312 226.476562 226.757812 C 225.195312 227.445312 223.882812 228.070312 222.539062 228.628906 C 221.199219 229.1875 219.828125 229.675781 218.4375 230.101562 C 217.046875 230.523438 215.636719 230.875 214.210938 231.160156 C 212.78125 231.441406 211.34375 231.65625 209.898438 231.796875 C 208.449219 231.9375 207 232.003906 205.542969 232 C 204.089844 231.996094 202.636719 231.921875 201.191406 231.773438 C 199.742188 231.628906 198.308594 231.410156 196.882812 231.121094 C 195.457031 230.832031 194.050781 230.472656 192.660156 230.042969 C 191.269531 229.613281 189.902344 229.117188 188.5625 228.550781 C 187.222656 227.988281 185.910156 227.355469 184.632812 226.664062 C 183.355469 225.96875 182.113281 225.210938 180.910156 224.394531 C 179.707031 223.578125 178.546875 222.703125 177.429688 221.769531 C 176.3125 220.835938 175.242188 219.851562 174.222656 218.8125 C 173.203125 217.773438 172.234375 216.6875 171.324219 215.554688 C 170.410156 214.417969 169.558594 213.242188 168.761719 212.023438 C 167.964844 210.804688 167.230469 209.550781 166.558594 208.257812 C 165.886719 206.964844 165.28125 205.644531 164.742188 204.292969 C 164.199219 202.941406 163.726562 201.566406 163.320312 200.167969 C 162.914062 198.765625 162.582031 197.351562 162.316406 195.917969 C 162.050781 194.488281 161.855469 193.046875 161.734375 191.59375 C 161.613281 190.144531 161.5625 188.691406 161.582031 187.234375 C 161.605469 185.777344 161.695312 184.324219 161.863281 182.878906 C 162.027344 181.429688 162.261719 179.996094 162.570312 178.574219 C 162.875 177.148438 163.253906 175.742188 163.699219 174.355469 C 164.144531 172.972656 164.65625 171.609375 165.238281 170.273438 C 165.820312 168.9375 166.464844 167.636719 167.171875 166.363281 C 167.882812 165.09375 168.652344 163.859375 169.484375 162.664062 C 170.316406 161.46875 171.203125 160.316406 172.148438 159.210938 C 173.09375 158.105469 174.089844 157.046875 175.140625 156.039062 C 176.191406 155.03125 177.289062 154.074219 178.429688 153.175781 C 179.574219 152.277344 180.761719 151.4375 181.988281 150.65625 Z M 181.988281 150.65625 " fill-opacity="1" fill-rule="nonzero"/></g></svg>