<svg xmlns="http://www.w3.org/2000/svg" xmlns:xlink="http://www.w3.org/1999/xlink" width="1920" zoomAndPan="magnify" viewBox="0 0 1440 809.999993" height="1080" preserveAspectRatio="xMidYMid meet" version="1.0"><defs><g/><clipPath id="id1"><path d="M 649 0 L 1440 0 L 1440 617 L 649 617 Z M 649 0 " clip-rule="nonzero"/></clipPath><clipPath id="id2"><path d="M 1680.339844 778.058594 L 532.949219 545.34375 L 751.355469 -531.480469 L 1898.742188 -298.765625 Z M 1680.339844 778.058594 " clip-rule="nonzero"/></clipPath><clipPath id="id3"><path d="M 1680.339844 778.058594 L 532.949219 545.34375 L 751.355469 -531.480469 L 1898.742188 -298.765625 Z M 1680.339844 778.058594 " clip-rule="nonzero"/></clipPath><clipPath id="id4"><path d="M 0 0 L 307 0 L 307 305 L 0 305 Z M 0 0 " clip-rule="nonzero"/></clipPath><clipPath id="id5"><path d="M 425.320312 -38.292969 L 95.203125 446.480469 L -359.8125 136.632812 L -29.699219 -348.144531 Z M 425.320312 -38.292969 " clip-rule="nonzero"/></clipPath><clipPath id="id6"><path d="M 425.320312 -38.292969 L 95.203125 446.480469 L -359.8125 136.632812 L -29.699219 -348.144531 Z M 425.320312 -38.292969 " clip-rule="nonzero"/></clipPath><clipPath id="id7"><path d="M 400.5 0 L 742.5 0 L 742.5 252.582031 L 400.5 252.582031 Z M 400.5 0 " clip-rule="nonzero"/></clipPath><clipPath id="id8"><path d="M 1174 656.507812 L 1440 656.507812 L 1440 810 L 1174 810 Z M 1174 656.507812 " clip-rule="nonzero"/></clipPath><clipPath id="id9"><path d="M 81 375.824219 L 108 375.824219 L 108 402.824219 L 81 402.824219 Z M 81 375.824219 " clip-rule="nonzero"/></clipPath><clipPath id="id10"><path d="M 103.5 684 L 425.25 684 L 425.25 729 L 103.5 729 Z M 103.5 684 " clip-rule="nonzero"/></clipPath><clipPath id="id11"><path d="M 402.828125 684 L 447.828125 684 L 447.828125 729 L 402.828125 729 Z M 402.828125 684 " clip-rule="nonzero"/></clipPath></defs><rect x="-144" width="1728" fill="#ffffff" y="-80.999999" height="971.999992" fill-opacity="1"/><rect x="-144" width="1728" fill="#4e45ff" y="-80.999999" height="971.999992" fill-opacity="1"/><rect x="-144" width="1728" fill="#ffffff" y="-80.999999" height="971.999992" fill-opacity="1"/><rect x="-144" width="1728" fill="#4e45ff" y="-80.999999" height="971.999992" fill-opacity="1"/><g clip-path="url(#id1)"><g clip-path="url(#id2)"><g clip-path="url(#id3)"><path fill="#5479f7" d="M 997.714844 -251.296875 C 817.589844 -256.925781 699.019531 -158.402344 662.171875 -40.03125 C 632.328125 55.847656 656.09375 164.742188 744.195312 241.863281 C 780.316406 273.476562 824.332031 293.832031 871.128906 313.382812 C 1023.96875 377.269531 1016.867188 366.933594 1110.773438 494.871094 C 1255.363281 691.851562 1601.046875 635.175781 1711.890625 422.644531 C 1778.003906 295.875 1776.625 120.851562 1591.785156 -53.085938 C 1476.164062 -161.886719 1565.265625 -345.34375 1385.894531 -398.234375 C 1336.386719 -412.832031 1280.457031 -409.363281 1237.945312 -381.921875 C 1168.601562 -337.164062 1133.179688 -247.0625 997.714844 -251.296875 " fill-opacity="1" fill-rule="evenodd"/></g></g></g><g clip-path="url(#id4)"><g clip-path="url(#id5)"><g clip-path="url(#id6)"><path fill="#99b9ff" d="M -182.59375 77.21875 C -220.144531 159.320312 -197.640625 233.203125 -150.109375 273.195312 C -111.613281 305.585938 -56.703125 315.742188 -3.988281 290.015625 C 17.625 279.472656 35.566406 263.089844 53.675781 245.273438 C 112.839844 187.082031 106.6875 188.351562 184.003906 169.8125 C 303.042969 141.257812 343.933594 -29.398438 267.269531 -121.835938 C 221.542969 -176.976562 140.429688 -210.304688 24.222656 -158.691406 C -48.464844 -126.40625 -115.917969 -203.160156 -175.152344 -130.582031 C -191.5 -110.546875 -200.746094 -84.042969 -196.320312 -59.085938 C -189.101562 -18.371094 -154.355469 15.476562 -182.59375 77.21875 " fill-opacity="1" fill-rule="evenodd"/></g></g></g><g clip-path="url(#id7)"><path fill="#ffffff" d="M 683.097656 76.875 C 681 76.875 679.253906 78.621094 679.253906 80.832031 C 679.253906 82.925781 681 84.671875 683.210938 84.671875 C 685.425781 84.671875 687.058594 82.925781 687.058594 80.714844 C 687.058594 78.621094 685.308594 76.875 683.097656 76.875 Z M 683.097656 132.960938 C 681 132.960938 679.253906 134.707031 679.253906 136.917969 C 679.253906 139.011719 681 140.757812 683.210938 140.757812 C 685.425781 140.757812 687.058594 139.011719 687.058594 136.800781 C 687.058594 134.707031 685.308594 132.960938 683.097656 132.960938 Z M 683.097656 188.929688 C 681 188.929688 679.253906 190.675781 679.253906 192.886719 C 679.253906 194.980469 681 196.726562 683.210938 196.726562 C 685.425781 196.726562 687.058594 194.980469 687.058594 192.769531 C 687.058594 190.675781 685.308594 188.929688 683.097656 188.929688 Z M 683.097656 245.484375 C 681.234375 245.484375 679.835938 246.996094 679.835938 248.855469 C 679.835938 250.71875 681.347656 252.117188 683.210938 252.117188 C 685.078125 252.117188 686.472656 250.601562 686.472656 248.742188 C 686.472656 246.878906 684.960938 245.484375 683.097656 245.484375 Z M 683.097656 20.90625 C 681 20.90625 679.253906 22.648438 679.253906 24.746094 C 679.253906 26.839844 681 28.585938 683.097656 28.585938 C 685.191406 28.585938 686.941406 26.839844 686.941406 24.746094 C 687.058594 22.648438 685.191406 20.90625 683.097656 20.90625 Z M 683.097656 -90.453125 C 681.234375 -90.453125 679.835938 -88.941406 679.835938 -87.078125 C 679.835938 -85.21875 681.347656 -83.820312 683.210938 -83.820312 C 685.078125 -83.820312 686.472656 -85.332031 686.472656 -87.195312 C 686.472656 -89.058594 684.960938 -90.453125 683.097656 -90.453125 Z M 571.5 75.246094 C 568.703125 75.246094 566.375 77.574219 566.375 80.367188 C 566.375 83.15625 568.703125 85.484375 571.5 85.484375 C 574.296875 85.484375 576.625 83.15625 576.625 80.367188 C 576.625 77.574219 574.296875 75.246094 571.5 75.246094 Z M 571.5 132.03125 C 569.054688 132.03125 566.957031 134.125 566.957031 136.453125 C 566.957031 138.894531 569.054688 140.757812 571.5 140.757812 C 573.945312 140.757812 576.042969 138.664062 576.042969 136.453125 C 576.042969 133.890625 573.945312 132.03125 571.5 132.03125 C 571.5 131.796875 571.5 131.796875 571.5 132.03125 Z M 571.5 188.347656 C 569.285156 188.347656 567.539062 190.210938 567.539062 192.304688 C 567.539062 194.515625 569.402344 196.261719 571.5 196.261719 C 573.597656 196.261719 575.460938 194.398438 575.460938 192.304688 C 575.460938 190.09375 573.714844 188.347656 571.5 188.347656 Z M 571.5 245.015625 C 569.636719 245.015625 568.121094 246.53125 568.121094 248.390625 C 568.121094 250.253906 569.636719 251.765625 571.5 251.765625 C 573.363281 251.765625 574.878906 250.253906 574.878906 248.390625 C 574.878906 246.53125 573.363281 245.015625 571.5 245.015625 Z M 571.5 19.972656 C 569.054688 19.972656 567.074219 22.066406 567.074219 24.511719 C 567.074219 26.957031 569.171875 28.933594 571.617188 28.933594 C 574.0625 28.933594 576.042969 26.839844 576.042969 24.511719 C 576.042969 21.953125 573.945312 19.972656 571.5 19.972656 C 571.5 19.855469 571.5 19.855469 571.5 19.972656 Z M 571.5 -90.917969 C 569.636719 -90.917969 568.121094 -89.40625 568.121094 -87.542969 C 568.121094 -85.683594 569.636719 -84.171875 571.5 -84.171875 C 573.363281 -84.171875 574.878906 -85.683594 574.878906 -87.542969 C 574.878906 -89.40625 573.363281 -90.917969 571.5 -90.917969 Z M 515.703125 76.875 C 513.253906 76.875 511.160156 78.851562 511.160156 81.296875 C 511.160156 83.738281 513.140625 85.835938 515.585938 85.835938 C 518.03125 85.835938 520.128906 83.855469 520.128906 81.414062 C 520.128906 78.96875 518.148438 76.875 515.703125 76.875 Z M 515.703125 132.84375 C 513.253906 132.84375 511.160156 134.824219 511.160156 137.265625 C 511.160156 139.710938 513.140625 141.804688 515.585938 141.804688 C 518.03125 141.804688 520.128906 139.828125 520.128906 137.382812 C 520.128906 134.9375 518.148438 132.84375 515.703125 132.84375 Z M 515.703125 189.394531 C 513.605469 189.394531 511.742188 191.140625 511.742188 193.238281 C 511.742188 195.332031 513.488281 197.191406 515.585938 197.191406 C 517.683594 197.191406 519.546875 195.449219 519.546875 193.351562 C 519.546875 191.140625 517.796875 189.394531 515.703125 189.394531 Z M 515.703125 245.949219 C 513.839844 245.949219 512.324219 247.34375 512.324219 249.207031 C 512.324219 251.066406 513.722656 252.582031 515.585938 252.582031 C 517.449219 252.582031 518.964844 251.183594 518.964844 249.324219 C 518.964844 247.460938 517.566406 245.949219 515.703125 245.949219 Z M 515.703125 20.90625 C 513.253906 20.90625 511.273438 22.882812 511.273438 25.328125 C 511.273438 27.769531 513.253906 29.75 515.703125 29.75 C 518.148438 29.75 520.128906 27.769531 520.128906 25.328125 C 520.128906 23 518.148438 20.90625 515.703125 20.90625 Z M 459.902344 77.457031 C 457.808594 77.457031 455.941406 79.203125 455.941406 81.296875 C 455.941406 83.390625 457.691406 85.253906 459.785156 85.253906 C 461.882812 85.253906 463.746094 83.507812 463.746094 81.414062 C 463.863281 79.203125 462 77.339844 459.902344 77.457031 C 459.902344 77.339844 459.902344 77.339844 459.902344 77.457031 Z M 459.902344 133.425781 C 457.808594 133.425781 455.941406 135.171875 455.941406 137.265625 C 455.941406 139.359375 457.691406 141.222656 459.785156 141.222656 C 461.882812 141.222656 463.746094 139.476562 463.746094 137.382812 C 463.863281 135.171875 462 133.308594 459.902344 133.425781 C 459.902344 133.308594 459.902344 133.308594 459.902344 133.425781 Z M 459.902344 189.394531 C 457.808594 189.394531 455.941406 191.140625 455.941406 193.238281 C 455.941406 195.332031 457.691406 197.191406 459.785156 197.191406 C 461.882812 197.191406 463.746094 195.449219 463.746094 193.351562 C 463.863281 191.140625 462 189.28125 459.902344 189.394531 C 459.902344 189.28125 459.902344 189.28125 459.902344 189.394531 Z M 459.902344 245.949219 C 458.039062 245.949219 456.527344 247.34375 456.527344 249.207031 C 456.527344 251.066406 457.921875 252.582031 459.785156 252.582031 C 461.652344 252.582031 463.164062 251.183594 463.164062 249.324219 C 463.28125 247.34375 461.765625 245.832031 459.902344 245.949219 C 459.902344 245.832031 459.902344 245.832031 459.902344 245.949219 Z M 627.414062 -34.484375 C 625.316406 -34.484375 623.453125 -32.738281 623.453125 -30.644531 C 623.453125 -28.550781 625.203125 -26.6875 627.296875 -26.6875 C 629.394531 -26.6875 631.257812 -28.433594 631.257812 -30.527344 C 631.375 -32.738281 629.511719 -34.601562 627.414062 -34.484375 C 627.414062 -34.601562 627.414062 -34.601562 627.414062 -34.484375 Z M 515.703125 -89.871094 C 513.839844 -89.871094 512.324219 -88.476562 512.324219 -86.613281 C 512.324219 -84.75 513.722656 -83.238281 515.585938 -83.238281 C 517.449219 -83.238281 518.964844 -84.636719 518.964844 -86.496094 C 519.078125 -88.476562 517.566406 -89.988281 515.703125 -89.871094 C 515.703125 -89.988281 515.703125 -89.988281 515.703125 -89.871094 Z M 404.105469 77.921875 C 402.242188 77.921875 400.726562 79.316406 400.726562 81.179688 C 400.726562 83.042969 402.125 84.554688 403.988281 84.554688 C 405.851562 84.554688 407.367188 83.15625 407.367188 81.296875 C 407.367188 79.433594 405.96875 77.921875 404.105469 77.921875 Z M 404.105469 133.890625 C 402.242188 133.890625 400.726562 135.289062 400.726562 137.148438 C 400.726562 139.011719 402.125 140.523438 403.988281 140.523438 C 405.851562 140.523438 407.367188 139.128906 407.367188 137.265625 C 407.367188 135.40625 405.96875 133.890625 404.105469 133.890625 Z M 404.105469 189.863281 C 402.242188 189.863281 400.726562 191.257812 400.726562 193.121094 C 400.726562 194.980469 402.125 196.496094 403.988281 196.496094 C 405.851562 196.496094 407.367188 195.097656 407.367188 193.238281 C 407.367188 191.375 405.96875 189.863281 404.105469 189.863281 Z M 404.105469 245.832031 C 402.242188 245.832031 400.726562 247.226562 400.726562 249.089844 C 400.726562 250.953125 402.125 252.464844 403.988281 252.464844 C 405.851562 252.464844 407.367188 251.066406 407.367188 249.207031 C 407.367188 247.34375 405.96875 245.832031 404.105469 245.832031 Z M 404.105469 -33.902344 C 402.242188 -33.902344 400.726562 -32.390625 400.726562 -30.644531 C 400.726562 -28.898438 402.242188 -27.386719 404.105469 -27.386719 C 405.96875 -27.386719 407.484375 -28.898438 407.484375 -30.644531 C 407.25 -32.503906 405.96875 -33.902344 404.105469 -33.902344 Z M 404.105469 22.066406 C 402.242188 22.066406 400.726562 23.582031 400.726562 25.328125 C 400.726562 27.070312 402.242188 28.585938 404.105469 28.585938 C 405.96875 28.585938 407.484375 27.070312 407.484375 25.328125 C 407.25 23.464844 405.96875 22.066406 404.105469 22.066406 Z M 404.105469 -89.988281 C 402.242188 -89.988281 400.726562 -88.59375 400.726562 -86.730469 C 400.726562 -84.867188 402.125 -83.355469 403.988281 -83.355469 C 405.851562 -83.355469 407.367188 -84.75 407.367188 -86.613281 C 407.367188 -88.476562 405.96875 -89.988281 404.105469 -89.988281 Z M 627.296875 76.292969 C 624.851562 76.292969 622.753906 78.269531 622.753906 80.832031 C 622.753906 83.390625 624.734375 85.367188 627.296875 85.367188 C 629.859375 85.367188 631.839844 83.390625 631.839844 80.832031 C 631.839844 78.269531 629.746094 76.292969 627.296875 76.292969 Z M 627.296875 132.261719 C 624.851562 132.261719 622.753906 134.355469 622.753906 136.800781 C 622.753906 139.246094 624.851562 141.339844 627.296875 141.339844 C 629.746094 141.339844 631.839844 139.246094 631.839844 136.800781 C 631.839844 134.355469 629.746094 132.261719 627.296875 132.261719 Z M 627.296875 188.816406 C 625.085938 188.816406 623.335938 190.675781 623.335938 192.769531 C 623.335938 194.980469 625.203125 196.726562 627.296875 196.726562 C 629.394531 196.726562 631.257812 194.867188 631.257812 192.769531 C 631.257812 190.675781 629.511719 188.816406 627.296875 188.816406 Z M 627.296875 245.484375 C 625.433594 245.484375 623.921875 246.996094 623.921875 248.855469 C 623.921875 250.71875 625.433594 252.230469 627.296875 252.230469 C 629.160156 252.230469 630.675781 250.71875 630.675781 248.855469 C 630.675781 246.878906 629.160156 245.484375 627.296875 245.484375 Z M 683.097656 -34.949219 C 681 -34.949219 679.136719 -33.203125 679.136719 -31.109375 C 679.136719 -29.015625 680.882812 -27.269531 683.097656 -27.269531 C 685.308594 -27.269531 687.058594 -29.015625 687.058594 -31.109375 C 687.058594 -33.320312 685.191406 -34.949219 683.097656 -34.949219 Z M 627.296875 20.324219 C 624.851562 20.324219 622.871094 22.417969 622.871094 24.859375 C 622.871094 27.304688 624.96875 29.28125 627.414062 29.28125 C 629.859375 29.28125 631.839844 27.1875 631.839844 24.746094 C 631.839844 22.300781 629.746094 20.324219 627.296875 20.324219 Z M 627.296875 -90.570312 C 625.433594 -90.570312 623.921875 -89.058594 623.921875 -87.3125 C 623.921875 -85.449219 625.433594 -83.9375 627.296875 -83.9375 C 629.160156 -83.9375 630.675781 -85.449219 630.675781 -87.3125 C 630.675781 -89.058594 629.160156 -90.570312 627.296875 -90.570312 Z M 738.894531 77.574219 C 737.03125 77.574219 735.632812 79.085938 735.632812 80.949219 C 735.632812 82.808594 737.148438 84.207031 739.011719 84.207031 C 740.875 84.207031 742.273438 82.691406 742.273438 80.832031 C 742.273438 78.96875 740.757812 77.574219 738.894531 77.574219 Z M 738.894531 133.542969 C 737.03125 133.542969 735.632812 135.054688 735.632812 136.917969 C 735.632812 138.777344 737.148438 140.175781 739.011719 140.175781 C 740.875 140.175781 742.273438 138.664062 742.273438 136.800781 C 742.273438 134.9375 740.757812 133.542969 738.894531 133.542969 Z M 738.894531 189.511719 C 737.03125 189.511719 735.632812 191.027344 735.632812 192.886719 C 735.632812 194.75 737.148438 196.144531 739.011719 196.144531 C 740.875 196.144531 742.273438 194.632812 742.273438 192.769531 C 742.273438 190.910156 740.757812 189.511719 738.894531 189.511719 Z M 738.894531 245.484375 C 737.03125 245.484375 735.632812 246.996094 735.632812 248.855469 C 735.632812 250.71875 737.148438 252.117188 739.011719 252.117188 C 740.875 252.117188 742.273438 250.601562 742.273438 248.742188 C 742.273438 246.878906 740.757812 245.484375 738.894531 245.484375 Z M 738.894531 -34.367188 C 737.148438 -34.367188 735.632812 -32.855469 735.632812 -31.109375 C 735.632812 -29.363281 737.148438 -27.851562 738.894531 -27.851562 C 740.640625 -27.851562 742.15625 -29.363281 742.15625 -31.109375 C 742.273438 -32.972656 740.640625 -34.367188 738.894531 -34.367188 Z M 738.894531 -90.453125 C 737.03125 -90.453125 735.632812 -88.941406 735.632812 -87.078125 C 735.632812 -85.21875 737.148438 -83.820312 739.011719 -83.820312 C 740.875 -83.820312 742.273438 -85.332031 742.273438 -87.195312 C 742.273438 -89.058594 740.757812 -90.453125 738.894531 -90.453125 Z M 459.902344 21.488281 C 457.691406 21.488281 456.058594 23.230469 456.058594 25.328125 C 456.058594 27.421875 457.808594 29.167969 459.902344 29.167969 C 462 29.167969 463.746094 27.421875 463.746094 25.328125 C 463.863281 23.117188 462 21.488281 459.902344 21.488281 Z M 459.902344 -89.871094 C 458.039062 -89.871094 456.527344 -88.476562 456.527344 -86.613281 C 456.527344 -84.75 457.921875 -83.238281 459.785156 -83.238281 C 461.652344 -83.238281 463.164062 -84.636719 463.164062 -86.496094 C 463.28125 -88.476562 461.765625 -89.988281 459.902344 -89.871094 C 459.902344 -89.988281 459.902344 -89.988281 459.902344 -89.871094 Z M 571.617188 -34.484375 C 569.519531 -34.484375 567.65625 -32.738281 567.65625 -30.644531 C 567.65625 -28.550781 569.402344 -26.6875 571.5 -26.6875 C 573.597656 -26.6875 575.460938 -28.433594 575.460938 -30.527344 C 575.578125 -32.738281 573.714844 -34.601562 571.617188 -34.484375 C 571.617188 -34.601562 571.617188 -34.601562 571.617188 -34.484375 Z M 515.703125 -34.484375 C 513.605469 -34.484375 511.859375 -32.855469 511.859375 -30.644531 C 511.859375 -28.550781 513.488281 -26.804688 515.703125 -26.804688 C 517.914062 -26.804688 519.546875 -28.433594 519.546875 -30.644531 C 519.664062 -32.738281 517.914062 -34.484375 515.703125 -34.484375 Z M 459.902344 -34.484375 C 457.691406 -34.484375 456.058594 -32.738281 456.058594 -30.644531 C 456.058594 -28.550781 457.808594 -26.804688 459.902344 -26.804688 C 462 -26.804688 463.746094 -28.550781 463.746094 -30.644531 C 463.863281 -32.855469 462.117188 -34.484375 459.902344 -34.484375 Z M 738.894531 21.601562 C 737.148438 21.601562 735.632812 23.117188 735.632812 24.859375 C 735.632812 26.605469 737.148438 28.117188 738.894531 28.117188 C 740.640625 28.117188 742.15625 26.605469 742.15625 24.859375 C 742.273438 23 740.640625 21.601562 738.894531 21.601562 Z M 738.894531 21.601562 " fill-opacity="1" fill-rule="nonzero"/></g><g clip-path="url(#id8)"><path fill="#ffffff" d="M 1456.445312 824.304688 C 1454.347656 824.304688 1452.597656 826.046875 1452.597656 828.257812 C 1452.597656 830.355469 1454.347656 832.097656 1456.558594 832.097656 C 1458.773438 832.097656 1460.402344 830.355469 1460.402344 828.144531 C 1460.402344 826.046875 1458.65625 824.304688 1456.445312 824.304688 Z M 1456.445312 880.390625 C 1454.347656 880.390625 1452.597656 882.132812 1452.597656 884.34375 C 1452.597656 886.441406 1454.347656 888.183594 1456.558594 888.183594 C 1458.773438 888.183594 1460.402344 886.441406 1460.402344 884.230469 C 1460.402344 882.132812 1458.65625 880.390625 1456.445312 880.390625 Z M 1456.445312 936.359375 C 1454.347656 936.359375 1452.597656 938.105469 1452.597656 940.316406 C 1452.597656 942.410156 1454.347656 944.15625 1456.558594 944.15625 C 1458.773438 944.15625 1460.402344 942.410156 1460.402344 940.199219 C 1460.402344 938.105469 1458.65625 936.359375 1456.445312 936.359375 Z M 1456.445312 992.910156 C 1454.578125 992.910156 1453.183594 994.421875 1453.183594 996.285156 C 1453.183594 998.148438 1454.695312 999.542969 1456.558594 999.542969 C 1458.421875 999.542969 1459.820312 998.03125 1459.820312 996.167969 C 1459.820312 994.308594 1458.308594 992.910156 1456.445312 992.910156 Z M 1456.445312 768.332031 C 1454.347656 768.332031 1452.597656 770.078125 1452.597656 772.171875 C 1452.597656 774.265625 1454.347656 776.011719 1456.445312 776.011719 C 1458.539062 776.011719 1460.289062 774.265625 1460.289062 772.171875 C 1460.402344 770.078125 1458.539062 768.332031 1456.445312 768.332031 Z M 1456.445312 656.972656 C 1454.578125 656.972656 1453.183594 658.488281 1453.183594 660.347656 C 1453.183594 662.210938 1454.695312 663.605469 1456.558594 663.605469 C 1458.421875 663.605469 1459.820312 662.09375 1459.820312 660.234375 C 1459.820312 658.371094 1458.308594 656.972656 1456.445312 656.972656 Z M 1344.847656 822.671875 C 1342.050781 822.671875 1339.722656 825 1339.722656 827.792969 C 1339.722656 830.585938 1342.050781 832.914062 1344.847656 832.914062 C 1347.644531 832.914062 1349.972656 830.585938 1349.972656 827.792969 C 1349.972656 825 1347.644531 822.671875 1344.847656 822.671875 Z M 1344.847656 879.457031 C 1342.402344 879.457031 1340.304688 881.554688 1340.304688 883.878906 C 1340.304688 886.324219 1342.402344 888.183594 1344.847656 888.183594 C 1347.292969 888.183594 1349.390625 886.089844 1349.390625 883.878906 C 1349.390625 881.320312 1347.292969 879.457031 1344.847656 879.457031 C 1344.847656 879.226562 1344.847656 879.226562 1344.847656 879.457031 Z M 1344.847656 935.777344 C 1342.632812 935.777344 1340.886719 937.640625 1340.886719 939.734375 C 1340.886719 941.945312 1342.75 943.691406 1344.847656 943.691406 C 1346.945312 943.691406 1348.808594 941.828125 1348.808594 939.734375 C 1348.808594 937.523438 1347.058594 935.777344 1344.847656 935.777344 Z M 1344.847656 992.445312 C 1342.984375 992.445312 1341.46875 993.957031 1341.46875 995.820312 C 1341.46875 997.683594 1342.984375 999.195312 1344.847656 999.195312 C 1346.710938 999.195312 1348.226562 997.683594 1348.226562 995.820312 C 1348.226562 993.957031 1346.710938 992.445312 1344.847656 992.445312 Z M 1344.847656 767.402344 C 1342.402344 767.402344 1340.421875 769.496094 1340.421875 771.941406 C 1340.421875 774.382812 1342.515625 776.363281 1344.964844 776.363281 C 1347.410156 776.363281 1349.390625 774.265625 1349.390625 771.941406 C 1349.390625 769.378906 1347.292969 767.402344 1344.847656 767.402344 C 1344.847656 767.285156 1344.847656 767.285156 1344.847656 767.402344 Z M 1344.847656 656.507812 C 1342.984375 656.507812 1341.46875 658.023438 1341.46875 659.882812 C 1341.46875 661.746094 1342.984375 663.257812 1344.847656 663.257812 C 1346.710938 663.257812 1348.226562 661.746094 1348.226562 659.882812 C 1348.226562 658.023438 1346.710938 656.507812 1344.847656 656.507812 Z M 1289.050781 824.304688 C 1286.601562 824.304688 1284.503906 826.28125 1284.503906 828.722656 C 1284.503906 831.167969 1286.484375 833.261719 1288.933594 833.261719 C 1291.378906 833.261719 1293.476562 831.285156 1293.476562 828.839844 C 1293.476562 826.398438 1291.496094 824.304688 1289.050781 824.304688 Z M 1289.050781 880.273438 C 1286.601562 880.273438 1284.503906 882.25 1284.503906 884.695312 C 1284.503906 887.136719 1286.484375 889.234375 1288.933594 889.234375 C 1291.378906 889.234375 1293.476562 887.253906 1293.476562 884.8125 C 1293.476562 882.367188 1291.496094 880.273438 1289.050781 880.273438 Z M 1289.050781 936.824219 C 1286.953125 936.824219 1285.089844 938.570312 1285.089844 940.664062 C 1285.089844 942.757812 1286.835938 944.621094 1288.933594 944.621094 C 1291.027344 944.621094 1292.894531 942.875 1292.894531 940.78125 C 1292.894531 938.570312 1291.144531 936.824219 1289.050781 936.824219 Z M 1289.050781 993.375 C 1287.183594 993.375 1285.671875 994.773438 1285.671875 996.632812 C 1285.671875 998.496094 1287.070312 1000.007812 1288.933594 1000.007812 C 1290.796875 1000.007812 1292.3125 998.613281 1292.3125 996.75 C 1292.3125 994.890625 1290.914062 993.375 1289.050781 993.375 Z M 1289.050781 768.332031 C 1286.601562 768.332031 1284.621094 770.3125 1284.621094 772.753906 C 1284.621094 775.199219 1286.601562 777.175781 1289.050781 777.175781 C 1291.496094 777.175781 1293.476562 775.199219 1293.476562 772.753906 C 1293.476562 770.425781 1291.496094 768.332031 1289.050781 768.332031 Z M 1233.25 824.882812 C 1231.152344 824.882812 1229.289062 826.628906 1229.289062 828.722656 C 1229.289062 830.820312 1231.039062 832.679688 1233.132812 832.679688 C 1235.230469 832.679688 1237.09375 830.933594 1237.09375 828.839844 C 1237.210938 826.628906 1235.347656 824.769531 1233.25 824.882812 C 1233.25 824.769531 1233.25 824.769531 1233.25 824.882812 Z M 1233.25 880.855469 C 1231.152344 880.855469 1229.289062 882.601562 1229.289062 884.695312 C 1229.289062 886.789062 1231.039062 888.652344 1233.132812 888.652344 C 1235.230469 888.652344 1237.09375 886.90625 1237.09375 884.8125 C 1237.210938 882.601562 1235.347656 880.738281 1233.25 880.855469 C 1233.25 880.738281 1233.25 880.738281 1233.25 880.855469 Z M 1233.25 936.824219 C 1231.152344 936.824219 1229.289062 938.570312 1229.289062 940.664062 C 1229.289062 942.757812 1231.039062 944.621094 1233.132812 944.621094 C 1235.230469 944.621094 1237.09375 942.875 1237.09375 940.78125 C 1237.210938 938.570312 1235.347656 936.707031 1233.25 936.824219 C 1233.25 936.707031 1233.25 936.707031 1233.25 936.824219 Z M 1233.25 993.375 C 1231.386719 993.375 1229.871094 994.773438 1229.871094 996.632812 C 1229.871094 998.496094 1231.269531 1000.007812 1233.132812 1000.007812 C 1235 1000.007812 1236.511719 998.613281 1236.511719 996.75 C 1236.628906 994.773438 1235.113281 993.261719 1233.25 993.375 C 1233.25 993.261719 1233.25 993.261719 1233.25 993.375 Z M 1400.761719 712.945312 C 1398.664062 712.945312 1396.800781 714.691406 1396.800781 716.785156 C 1396.800781 718.878906 1398.546875 720.742188 1400.644531 720.742188 C 1402.742188 720.742188 1404.605469 718.996094 1404.605469 716.902344 C 1404.722656 714.691406 1402.859375 712.828125 1400.761719 712.945312 C 1400.761719 712.828125 1400.761719 712.828125 1400.761719 712.945312 Z M 1289.050781 657.554688 C 1287.183594 657.554688 1285.671875 658.953125 1285.671875 660.816406 C 1285.671875 662.675781 1287.070312 664.1875 1288.933594 664.1875 C 1290.796875 664.1875 1292.3125 662.792969 1292.3125 660.929688 C 1292.425781 658.953125 1290.914062 657.441406 1289.050781 657.554688 C 1289.050781 657.441406 1289.050781 657.441406 1289.050781 657.554688 Z M 1177.453125 825.351562 C 1175.589844 825.351562 1174.074219 826.746094 1174.074219 828.609375 C 1174.074219 830.46875 1175.472656 831.984375 1177.335938 831.984375 C 1179.199219 831.984375 1180.714844 830.585938 1180.714844 828.722656 C 1180.714844 826.863281 1179.316406 825.351562 1177.453125 825.351562 Z M 1177.453125 881.320312 C 1175.589844 881.320312 1174.074219 882.714844 1174.074219 884.578125 C 1174.074219 886.441406 1175.472656 887.953125 1177.335938 887.953125 C 1179.199219 887.953125 1180.714844 886.554688 1180.714844 884.695312 C 1180.714844 882.832031 1179.316406 881.320312 1177.453125 881.320312 Z M 1177.453125 937.289062 C 1175.589844 937.289062 1174.074219 938.6875 1174.074219 940.546875 C 1174.074219 942.410156 1175.472656 943.921875 1177.335938 943.921875 C 1179.199219 943.921875 1180.714844 942.527344 1180.714844 940.664062 C 1180.714844 938.804688 1179.316406 937.289062 1177.453125 937.289062 Z M 1177.453125 993.261719 C 1175.589844 993.261719 1174.074219 994.65625 1174.074219 996.519531 C 1174.074219 998.378906 1175.472656 999.894531 1177.335938 999.894531 C 1179.199219 999.894531 1180.714844 998.496094 1180.714844 996.632812 C 1180.714844 994.773438 1179.316406 993.261719 1177.453125 993.261719 Z M 1177.453125 713.527344 C 1175.589844 713.527344 1174.074219 715.039062 1174.074219 716.785156 C 1174.074219 718.53125 1175.589844 720.042969 1177.453125 720.042969 C 1179.316406 720.042969 1180.832031 718.53125 1180.832031 716.785156 C 1180.597656 714.921875 1179.316406 713.527344 1177.453125 713.527344 Z M 1177.453125 769.496094 C 1175.589844 769.496094 1174.074219 771.007812 1174.074219 772.753906 C 1174.074219 774.5 1175.589844 776.011719 1177.453125 776.011719 C 1179.316406 776.011719 1180.832031 774.5 1180.832031 772.753906 C 1180.597656 770.894531 1179.316406 769.496094 1177.453125 769.496094 Z M 1177.453125 657.441406 C 1175.589844 657.441406 1174.074219 658.835938 1174.074219 660.699219 C 1174.074219 662.558594 1175.472656 664.074219 1177.335938 664.074219 C 1179.199219 664.074219 1180.714844 662.675781 1180.714844 660.816406 C 1180.714844 658.953125 1179.316406 657.441406 1177.453125 657.441406 Z M 1400.644531 823.722656 C 1398.199219 823.722656 1396.101562 825.699219 1396.101562 828.257812 C 1396.101562 830.820312 1398.082031 832.796875 1400.644531 832.796875 C 1403.207031 832.796875 1405.1875 830.820312 1405.1875 828.257812 C 1405.1875 825.699219 1403.089844 823.722656 1400.644531 823.722656 Z M 1400.644531 879.691406 C 1398.199219 879.691406 1396.101562 881.785156 1396.101562 884.230469 C 1396.101562 886.671875 1398.199219 888.765625 1400.644531 888.765625 C 1403.089844 888.765625 1405.1875 886.671875 1405.1875 884.230469 C 1405.1875 881.785156 1403.089844 879.691406 1400.644531 879.691406 Z M 1400.644531 936.242188 C 1398.433594 936.242188 1396.683594 938.105469 1396.683594 940.199219 C 1396.683594 942.410156 1398.546875 944.15625 1400.644531 944.15625 C 1402.742188 944.15625 1404.605469 942.292969 1404.605469 940.199219 C 1404.605469 938.105469 1402.859375 936.242188 1400.644531 936.242188 Z M 1400.644531 992.910156 C 1398.78125 992.910156 1397.265625 994.421875 1397.265625 996.285156 C 1397.265625 998.148438 1398.78125 999.660156 1400.644531 999.660156 C 1402.507812 999.660156 1404.023438 998.148438 1404.023438 996.285156 C 1404.023438 994.308594 1402.507812 992.910156 1400.644531 992.910156 Z M 1456.445312 712.480469 C 1454.347656 712.480469 1452.484375 714.222656 1452.484375 716.320312 C 1452.484375 718.414062 1454.230469 720.160156 1456.445312 720.160156 C 1458.65625 720.160156 1460.402344 718.414062 1460.402344 716.320312 C 1460.402344 714.109375 1458.539062 712.480469 1456.445312 712.480469 Z M 1400.644531 767.75 C 1398.199219 767.75 1396.21875 769.84375 1396.21875 772.289062 C 1396.21875 774.734375 1398.316406 776.710938 1400.761719 776.710938 C 1403.207031 776.710938 1405.1875 774.617188 1405.1875 772.171875 C 1405.1875 769.730469 1403.089844 767.75 1400.644531 767.75 Z M 1400.644531 656.859375 C 1398.78125 656.859375 1397.265625 658.371094 1397.265625 660.117188 C 1397.265625 661.976562 1398.78125 663.492188 1400.644531 663.492188 C 1402.507812 663.492188 1404.023438 661.976562 1404.023438 660.117188 C 1404.023438 658.371094 1402.507812 656.859375 1400.644531 656.859375 Z M 1512.242188 825 C 1510.378906 825 1508.980469 826.511719 1508.980469 828.375 C 1508.980469 830.238281 1510.496094 831.632812 1512.359375 831.632812 C 1514.222656 831.632812 1515.621094 830.121094 1515.621094 828.257812 C 1515.621094 826.398438 1514.105469 825 1512.242188 825 Z M 1512.242188 880.972656 C 1510.378906 880.972656 1508.980469 882.484375 1508.980469 884.34375 C 1508.980469 886.207031 1510.496094 887.605469 1512.359375 887.605469 C 1514.222656 887.605469 1515.621094 886.089844 1515.621094 884.230469 C 1515.621094 882.367188 1514.105469 880.972656 1512.242188 880.972656 Z M 1512.242188 936.941406 C 1510.378906 936.941406 1508.980469 938.453125 1508.980469 940.316406 C 1508.980469 942.175781 1510.496094 943.574219 1512.359375 943.574219 C 1514.222656 943.574219 1515.621094 942.0625 1515.621094 940.199219 C 1515.621094 938.335938 1514.105469 936.941406 1512.242188 936.941406 Z M 1512.242188 992.910156 C 1510.378906 992.910156 1508.980469 994.421875 1508.980469 996.285156 C 1508.980469 998.148438 1510.496094 999.542969 1512.359375 999.542969 C 1514.222656 999.542969 1515.621094 998.03125 1515.621094 996.167969 C 1515.621094 994.308594 1514.105469 992.910156 1512.242188 992.910156 Z M 1512.242188 713.0625 C 1510.496094 713.0625 1508.980469 714.574219 1508.980469 716.320312 C 1508.980469 718.066406 1510.496094 719.578125 1512.242188 719.578125 C 1513.988281 719.578125 1515.503906 718.066406 1515.503906 716.320312 C 1515.621094 714.457031 1513.988281 713.0625 1512.242188 713.0625 Z M 1512.242188 656.972656 C 1510.378906 656.972656 1508.980469 658.488281 1508.980469 660.347656 C 1508.980469 662.210938 1510.496094 663.605469 1512.359375 663.605469 C 1514.222656 663.605469 1515.621094 662.09375 1515.621094 660.234375 C 1515.621094 658.371094 1514.105469 656.972656 1512.242188 656.972656 Z M 1233.25 768.914062 C 1231.039062 768.914062 1229.40625 770.660156 1229.40625 772.753906 C 1229.40625 774.847656 1231.152344 776.59375 1233.25 776.59375 C 1235.347656 776.59375 1237.09375 774.847656 1237.09375 772.753906 C 1237.210938 770.542969 1235.347656 768.914062 1233.25 768.914062 Z M 1233.25 657.554688 C 1231.386719 657.554688 1229.871094 658.953125 1229.871094 660.816406 C 1229.871094 662.675781 1231.269531 664.1875 1233.132812 664.1875 C 1235 664.1875 1236.511719 662.792969 1236.511719 660.929688 C 1236.628906 658.953125 1235.113281 657.441406 1233.25 657.554688 C 1233.25 657.441406 1233.25 657.441406 1233.25 657.554688 Z M 1344.964844 712.945312 C 1342.867188 712.945312 1341.003906 714.691406 1341.003906 716.785156 C 1341.003906 718.878906 1342.75 720.742188 1344.847656 720.742188 C 1346.945312 720.742188 1348.808594 718.996094 1348.808594 716.902344 C 1348.925781 714.691406 1347.058594 712.828125 1344.964844 712.945312 C 1344.964844 712.828125 1344.964844 712.828125 1344.964844 712.945312 Z M 1289.050781 712.945312 C 1286.953125 712.945312 1285.203125 714.574219 1285.203125 716.785156 C 1285.203125 718.878906 1286.835938 720.625 1289.050781 720.625 C 1291.261719 720.625 1292.894531 718.996094 1292.894531 716.785156 C 1293.007812 714.691406 1291.261719 712.945312 1289.050781 712.945312 Z M 1233.25 712.945312 C 1231.039062 712.945312 1229.40625 714.691406 1229.40625 716.785156 C 1229.40625 718.878906 1231.152344 720.625 1233.25 720.625 C 1235.347656 720.625 1237.09375 718.878906 1237.09375 716.785156 C 1237.210938 714.574219 1235.464844 712.945312 1233.25 712.945312 Z M 1512.242188 769.03125 C 1510.496094 769.03125 1508.980469 770.542969 1508.980469 772.289062 C 1508.980469 774.035156 1510.496094 775.546875 1512.242188 775.546875 C 1513.988281 775.546875 1515.503906 774.035156 1515.503906 772.289062 C 1515.621094 770.425781 1513.988281 769.03125 1512.242188 769.03125 Z M 1512.242188 769.03125 " fill-opacity="1" fill-rule="nonzero"/></g><g clip-path="url(#id9)"><path fill="#ffffff" d="M 108 389.324219 C 108 396.78125 101.957031 402.824219 94.5 402.824219 C 87.042969 402.824219 81 396.78125 81 389.324219 C 81 381.871094 87.042969 375.824219 94.5 375.824219 C 101.957031 375.824219 108 381.871094 108 389.324219 " fill-opacity="1" fill-rule="nonzero"/></g><path fill="#4e45ff" d="M 93.058594 383.128906 C 93.058594 383.441406 92.808594 383.691406 92.496094 383.691406 C 92.1875 383.691406 91.933594 383.441406 91.933594 383.128906 C 91.933594 382.820312 92.1875 382.570312 92.496094 382.570312 C 92.808594 382.570312 93.058594 382.820312 93.058594 383.128906 " fill-opacity="1" fill-rule="nonzero"/><path fill="#4e45ff" d="M 93.058594 384.679688 C 93.058594 384.988281 92.808594 385.242188 92.496094 385.242188 C 92.1875 385.242188 91.933594 384.988281 91.933594 384.679688 C 91.933594 384.371094 92.1875 384.117188 92.496094 384.117188 C 92.808594 384.117188 93.058594 384.371094 93.058594 384.679688 " fill-opacity="1" fill-rule="nonzero"/><path fill="#4e45ff" d="M 93.058594 386.226562 C 93.058594 386.539062 92.808594 386.789062 92.496094 386.789062 C 92.1875 386.789062 91.933594 386.539062 91.933594 386.226562 C 91.933594 385.917969 92.1875 385.667969 92.496094 385.667969 C 92.808594 385.667969 93.058594 385.917969 93.058594 386.226562 " fill-opacity="1" fill-rule="nonzero"/><path fill="#4e45ff" d="M 93.058594 387.777344 C 93.058594 388.085938 92.808594 388.339844 92.496094 388.339844 C 92.1875 388.339844 91.933594 388.085938 91.933594 387.777344 C 91.933594 387.46875 92.1875 387.214844 92.496094 387.214844 C 92.808594 387.214844 93.058594 387.46875 93.058594 387.777344 " fill-opacity="1" fill-rule="nonzero"/><path fill="#4e45ff" d="M 93.058594 389.324219 C 93.058594 389.636719 92.808594 389.886719 92.496094 389.886719 C 92.1875 389.886719 91.933594 389.636719 91.933594 389.324219 C 91.933594 389.015625 92.1875 388.765625 92.496094 388.765625 C 92.808594 388.765625 93.058594 389.015625 93.058594 389.324219 " fill-opacity="1" fill-rule="nonzero"/><path fill="#4e45ff" d="M 93.058594 390.875 C 93.058594 391.183594 92.808594 391.4375 92.496094 391.4375 C 92.1875 391.4375 91.933594 391.183594 91.933594 390.875 C 91.933594 390.5625 92.1875 390.3125 92.496094 390.3125 C 92.808594 390.3125 93.058594 390.5625 93.058594 390.875 " fill-opacity="1" fill-rule="nonzero"/><path fill="#4e45ff" d="M 93.058594 392.421875 C 93.058594 392.734375 92.808594 392.984375 92.496094 392.984375 C 92.1875 392.984375 91.933594 392.734375 91.933594 392.421875 C 91.933594 392.113281 92.1875 391.863281 92.496094 391.863281 C 92.808594 391.863281 93.058594 392.113281 93.058594 392.421875 " fill-opacity="1" fill-rule="nonzero"/><path fill="#4e45ff" d="M 93.058594 393.972656 C 93.058594 394.28125 92.808594 394.535156 92.496094 394.535156 C 92.1875 394.535156 91.933594 394.28125 91.933594 393.972656 C 91.933594 393.660156 92.1875 393.410156 92.496094 393.410156 C 92.808594 393.410156 93.058594 393.660156 93.058594 393.972656 " fill-opacity="1" fill-rule="nonzero"/><path fill="#4e45ff" d="M 93.058594 395.519531 C 93.058594 395.832031 92.808594 396.082031 92.496094 396.082031 C 92.1875 396.082031 91.933594 395.832031 91.933594 395.519531 C 91.933594 395.210938 92.1875 394.960938 92.496094 394.960938 C 92.808594 394.960938 93.058594 395.210938 93.058594 395.519531 " fill-opacity="1" fill-rule="nonzero"/><path fill="#4e45ff" d="M 94.621094 384.679688 C 94.621094 384.988281 94.371094 385.242188 94.058594 385.242188 C 93.75 385.242188 93.5 384.988281 93.5 384.679688 C 93.5 384.371094 93.75 384.117188 94.058594 384.117188 C 94.371094 384.117188 94.621094 384.371094 94.621094 384.679688 " fill-opacity="1" fill-rule="nonzero"/><path fill="#4e45ff" d="M 94.621094 386.226562 C 94.621094 386.539062 94.371094 386.789062 94.058594 386.789062 C 93.75 386.789062 93.5 386.539062 93.5 386.226562 C 93.5 385.917969 93.75 385.667969 94.058594 385.667969 C 94.371094 385.667969 94.621094 385.917969 94.621094 386.226562 " fill-opacity="1" fill-rule="nonzero"/><path fill="#4e45ff" d="M 94.621094 387.777344 C 94.621094 388.085938 94.371094 388.339844 94.058594 388.339844 C 93.75 388.339844 93.5 388.085938 93.5 387.777344 C 93.5 387.46875 93.75 387.214844 94.058594 387.214844 C 94.371094 387.214844 94.621094 387.46875 94.621094 387.777344 " fill-opacity="1" fill-rule="nonzero"/><path fill="#4e45ff" d="M 94.621094 389.324219 C 94.621094 389.636719 94.371094 389.886719 94.058594 389.886719 C 93.75 389.886719 93.5 389.636719 93.5 389.324219 C 93.5 389.015625 93.75 388.765625 94.058594 388.765625 C 94.371094 388.765625 94.621094 389.015625 94.621094 389.324219 " fill-opacity="1" fill-rule="nonzero"/><path fill="#4e45ff" d="M 94.621094 390.875 C 94.621094 391.183594 94.371094 391.4375 94.058594 391.4375 C 93.75 391.4375 93.5 391.183594 93.5 390.875 C 93.5 390.5625 93.75 390.3125 94.058594 390.3125 C 94.371094 390.3125 94.621094 390.5625 94.621094 390.875 " fill-opacity="1" fill-rule="nonzero"/><path fill="#4e45ff" d="M 94.621094 392.421875 C 94.621094 392.734375 94.371094 392.984375 94.058594 392.984375 C 93.75 392.984375 93.5 392.734375 93.5 392.421875 C 93.5 392.113281 93.75 391.863281 94.058594 391.863281 C 94.371094 391.863281 94.621094 392.113281 94.621094 392.421875 " fill-opacity="1" fill-rule="nonzero"/><path fill="#4e45ff" d="M 94.621094 393.972656 C 94.621094 394.28125 94.371094 394.535156 94.058594 394.535156 C 93.75 394.535156 93.5 394.28125 93.5 393.972656 C 93.5 393.660156 93.75 393.410156 94.058594 393.410156 C 94.371094 393.410156 94.621094 393.660156 94.621094 393.972656 " fill-opacity="1" fill-rule="nonzero"/><path fill="#4e45ff" d="M 96.183594 386.226562 C 96.183594 386.539062 95.933594 386.789062 95.621094 386.789062 C 95.3125 386.789062 95.0625 386.539062 95.0625 386.226562 C 95.0625 385.917969 95.3125 385.667969 95.621094 385.667969 C 95.933594 385.667969 96.183594 385.917969 96.183594 386.226562 " fill-opacity="1" fill-rule="nonzero"/><path fill="#4e45ff" d="M 96.183594 387.777344 C 96.183594 388.085938 95.933594 388.339844 95.621094 388.339844 C 95.3125 388.339844 95.0625 388.085938 95.0625 387.777344 C 95.0625 387.46875 95.3125 387.214844 95.621094 387.214844 C 95.933594 387.214844 96.183594 387.46875 96.183594 387.777344 " fill-opacity="1" fill-rule="nonzero"/><path fill="#4e45ff" d="M 96.183594 389.324219 C 96.183594 389.636719 95.933594 389.886719 95.621094 389.886719 C 95.3125 389.886719 95.0625 389.636719 95.0625 389.324219 C 95.0625 389.015625 95.3125 388.765625 95.621094 388.765625 C 95.933594 388.765625 96.183594 389.015625 96.183594 389.324219 " fill-opacity="1" fill-rule="nonzero"/><path fill="#4e45ff" d="M 96.183594 390.875 C 96.183594 391.183594 95.933594 391.4375 95.621094 391.4375 C 95.3125 391.4375 95.0625 391.183594 95.0625 390.875 C 95.0625 390.5625 95.3125 390.3125 95.621094 390.3125 C 95.933594 390.3125 96.183594 390.5625 96.183594 390.875 " fill-opacity="1" fill-rule="nonzero"/><path fill="#4e45ff" d="M 96.183594 392.421875 C 96.183594 392.734375 95.933594 392.984375 95.621094 392.984375 C 95.3125 392.984375 95.0625 392.734375 95.0625 392.421875 C 95.0625 392.113281 95.3125 391.863281 95.621094 391.863281 C 95.933594 391.863281 96.183594 392.113281 96.183594 392.421875 " fill-opacity="1" fill-rule="nonzero"/><path fill="#4e45ff" d="M 97.746094 387.777344 C 97.746094 388.085938 97.496094 388.339844 97.1875 388.339844 C 96.875 388.339844 96.625 388.085938 96.625 387.777344 C 96.625 387.46875 96.875 387.214844 97.1875 387.214844 C 97.496094 387.214844 97.746094 387.46875 97.746094 387.777344 " fill-opacity="1" fill-rule="nonzero"/><path fill="#4e45ff" d="M 97.746094 389.324219 C 97.746094 389.636719 97.496094 389.886719 97.1875 389.886719 C 96.875 389.886719 96.625 389.636719 96.625 389.324219 C 96.625 389.015625 96.875 388.765625 97.1875 388.765625 C 97.496094 388.765625 97.746094 389.015625 97.746094 389.324219 " fill-opacity="1" fill-rule="nonzero"/><path fill="#4e45ff" d="M 97.746094 390.875 C 97.746094 391.183594 97.496094 391.4375 97.1875 391.4375 C 96.875 391.4375 96.625 391.183594 96.625 390.875 C 96.625 390.5625 96.875 390.3125 97.1875 390.3125 C 97.496094 390.3125 97.746094 390.5625 97.746094 390.875 " fill-opacity="1" fill-rule="nonzero"/><path fill="#4e45ff" d="M 99.308594 389.324219 C 99.308594 389.636719 99.058594 389.886719 98.75 389.886719 C 98.4375 389.886719 98.1875 389.636719 98.1875 389.324219 C 98.1875 389.015625 98.4375 388.765625 98.75 388.765625 C 99.058594 388.765625 99.308594 389.015625 99.308594 389.324219 " fill-opacity="1" fill-rule="nonzero"/><g fill="#ffffff" fill-opacity="1"><g transform="translate(113.621931, 398.081961)"><g><path d="M 3.390625 -2.34375 C 1.679688 -4 0.828125 -6.101562 0.828125 -8.65625 C 0.828125 -11.207031 1.679688 -13.3125 3.390625 -14.96875 C 5.097656 -16.625 7.1875 -17.453125 9.65625 -17.453125 C 11.570312 -17.453125 13.269531 -16.945312 14.75 -15.9375 C 16.238281 -14.925781 17.28125 -13.519531 17.875 -11.71875 L 12.875 -11.71875 C 12.21875 -12.976562 11.171875 -13.609375 9.734375 -13.609375 C 8.296875 -13.609375 7.160156 -13.15625 6.328125 -12.25 C 5.503906 -11.351562 5.09375 -10.15625 5.09375 -8.65625 C 5.09375 -7.15625 5.503906 -5.953125 6.328125 -5.046875 C 7.160156 -4.148438 8.296875 -3.703125 9.734375 -3.703125 C 11.171875 -3.703125 12.21875 -4.332031 12.875 -5.59375 L 17.875 -5.59375 C 17.28125 -3.789062 16.238281 -2.382812 14.75 -1.375 C 13.269531 -0.363281 11.570312 0.140625 9.65625 0.140625 C 7.1875 0.140625 5.097656 -0.6875 3.390625 -2.34375 Z M 3.390625 -2.34375 "/></g></g></g><g fill="#ffffff" fill-opacity="1"><g transform="translate(131.128274, 398.081961)"><g><path d="M 10.046875 -4.28125 C 10.609375 -4.875 10.890625 -5.722656 10.890625 -6.828125 C 10.890625 -7.941406 10.601562 -8.789062 10.03125 -9.375 C 9.457031 -9.957031 8.773438 -10.25 7.984375 -10.25 C 7.203125 -10.25 6.53125 -9.957031 5.96875 -9.375 C 5.40625 -8.789062 5.125 -7.941406 5.125 -6.828125 C 5.125 -5.722656 5.410156 -4.875 5.984375 -4.28125 C 6.566406 -3.695312 7.25 -3.40625 8.03125 -3.40625 C 8.820312 -3.40625 9.492188 -3.695312 10.046875 -4.28125 Z M 2.921875 -1.765625 C 1.546875 -3.054688 0.859375 -4.753906 0.859375 -6.859375 C 0.859375 -8.972656 1.546875 -10.660156 2.921875 -11.921875 C 4.296875 -13.191406 5.992188 -13.828125 8.015625 -13.828125 C 10.046875 -13.828125 11.742188 -13.191406 13.109375 -11.921875 C 14.472656 -10.660156 15.15625 -8.972656 15.15625 -6.859375 C 15.15625 -4.753906 14.472656 -3.054688 13.109375 -1.765625 C 11.753906 -0.472656 10.0625 0.171875 8.03125 0.171875 C 6.007812 0.171875 4.304688 -0.472656 2.921875 -1.765625 Z M 2.921875 -1.765625 "/></g></g></g><g fill="#ffffff" fill-opacity="1"><g transform="translate(145.913026, 398.081961)"><g><path d="M 10.171875 -4.328125 C 10.773438 -4.921875 11.078125 -5.753906 11.078125 -6.828125 C 11.078125 -7.910156 10.773438 -8.742188 10.171875 -9.328125 C 9.566406 -9.910156 8.867188 -10.203125 8.078125 -10.203125 C 7.296875 -10.203125 6.601562 -9.90625 6 -9.3125 C 5.394531 -8.726562 5.09375 -7.894531 5.09375 -6.8125 C 5.09375 -5.738281 5.394531 -4.910156 6 -4.328125 C 6.601562 -3.742188 7.296875 -3.453125 8.078125 -3.453125 C 8.867188 -3.453125 9.566406 -3.742188 10.171875 -4.328125 Z M 2.640625 -1.78125 C 1.429688 -3.09375 0.828125 -4.769531 0.828125 -6.8125 C 0.828125 -8.851562 1.429688 -10.53125 2.640625 -11.84375 C 3.859375 -13.164062 5.335938 -13.828125 7.078125 -13.828125 C 8.816406 -13.828125 10.148438 -13.179688 11.078125 -11.890625 L 11.078125 -18.140625 L 15.265625 -18.140625 L 15.265625 0 L 11.078125 0 L 11.078125 -1.984375 C 10.066406 -0.546875 8.710938 0.171875 7.015625 0.171875 C 5.316406 0.171875 3.859375 -0.476562 2.640625 -1.78125 Z M 2.640625 -1.78125 "/></g></g></g><g fill="#ffffff" fill-opacity="1"><g transform="translate(161.801131, 398.081961)"><g><path d="M 7.65625 0.171875 C 5.65625 0.171875 4.015625 -0.46875 2.734375 -1.75 C 1.460938 -3.03125 0.828125 -4.734375 0.828125 -6.859375 C 0.828125 -8.984375 1.460938 -10.675781 2.734375 -11.9375 C 4.003906 -13.195312 5.644531 -13.828125 7.65625 -13.828125 C 9.664062 -13.828125 11.332031 -13.203125 12.65625 -11.953125 C 13.976562 -10.710938 14.640625 -8.992188 14.640625 -6.796875 C 14.640625 -6.316406 14.601562 -5.875 14.53125 -5.46875 L 5.125 -5.46875 C 5.207031 -4.863281 5.476562 -4.367188 5.9375 -3.984375 C 6.394531 -3.597656 6.890625 -3.40625 7.421875 -3.40625 C 7.953125 -3.40625 8.347656 -3.457031 8.609375 -3.5625 C 8.867188 -3.664062 9.054688 -3.769531 9.171875 -3.875 C 9.296875 -3.988281 9.457031 -4.164062 9.65625 -4.40625 L 14.1875 -4.40625 C 13.800781 -3.039062 13.019531 -1.9375 11.84375 -1.09375 C 10.664062 -0.25 9.269531 0.171875 7.65625 0.171875 Z M 10.265625 -8.09375 C 10.203125 -8.726562 9.925781 -9.242188 9.4375 -9.640625 C 8.945312 -10.046875 8.363281 -10.25 7.6875 -10.25 C 7.019531 -10.25 6.457031 -10.046875 6 -9.640625 C 5.539062 -9.242188 5.253906 -8.726562 5.140625 -8.09375 Z M 10.265625 -8.09375 "/></g></g></g><g fill="#ffffff" fill-opacity="1"><g transform="translate(176.070978, 398.081961)"><g><path d="M 6.03125 -13.6875 L 6.03125 -11.671875 C 6.894531 -13.109375 8.273438 -13.828125 10.171875 -13.828125 C 11.179688 -13.828125 12.082031 -13.597656 12.875 -13.140625 C 13.675781 -12.679688 14.296875 -12.023438 14.734375 -11.171875 C 15.242188 -11.972656 15.898438 -12.613281 16.703125 -13.09375 C 17.515625 -13.582031 18.421875 -13.828125 19.421875 -13.828125 C 21.085938 -13.828125 22.410156 -13.3125 23.390625 -12.28125 C 24.367188 -11.25 24.859375 -9.816406 24.859375 -7.984375 L 24.859375 0 L 20.6875 0 L 20.6875 -7.421875 C 20.6875 -8.304688 20.453125 -8.988281 19.984375 -9.46875 C 19.523438 -9.957031 18.882812 -10.203125 18.0625 -10.203125 C 17.25 -10.203125 16.609375 -9.957031 16.140625 -9.46875 C 15.671875 -8.988281 15.4375 -8.304688 15.4375 -7.421875 L 15.4375 0 L 11.28125 0 L 11.28125 -7.421875 C 11.28125 -8.304688 11.046875 -8.988281 10.578125 -9.46875 C 10.109375 -9.957031 9.460938 -10.203125 8.640625 -10.203125 C 7.828125 -10.203125 7.1875 -9.957031 6.71875 -9.46875 C 6.257812 -8.988281 6.03125 -8.304688 6.03125 -7.421875 L 6.03125 0 L 1.84375 0 L 1.84375 -13.6875 Z M 6.03125 -13.6875 "/></g></g></g><g fill="#ffffff" fill-opacity="1"><g transform="translate(201.42336, 398.081961)"><g><path d="M 10.171875 -4.328125 C 10.773438 -4.921875 11.078125 -5.753906 11.078125 -6.828125 C 11.078125 -7.910156 10.773438 -8.742188 10.171875 -9.328125 C 9.566406 -9.910156 8.867188 -10.203125 8.078125 -10.203125 C 7.296875 -10.203125 6.601562 -9.90625 6 -9.3125 C 5.394531 -8.726562 5.09375 -7.894531 5.09375 -6.8125 C 5.09375 -5.738281 5.394531 -4.910156 6 -4.328125 C 6.601562 -3.742188 7.296875 -3.453125 8.078125 -3.453125 C 8.867188 -3.453125 9.566406 -3.742188 10.171875 -4.328125 Z M 2.640625 -1.78125 C 1.429688 -3.09375 0.828125 -4.769531 0.828125 -6.8125 C 0.828125 -8.851562 1.429688 -10.53125 2.640625 -11.84375 C 3.859375 -13.164062 5.335938 -13.828125 7.078125 -13.828125 C 8.816406 -13.828125 10.148438 -13.179688 11.078125 -11.890625 L 11.078125 -13.6875 L 15.265625 -13.6875 L 15.265625 0 L 11.078125 0 L 11.078125 -1.984375 C 10.066406 -0.546875 8.710938 0.171875 7.015625 0.171875 C 5.316406 0.171875 3.859375 -0.476562 2.640625 -1.78125 Z M 2.640625 -1.78125 "/></g></g></g><g fill="#ffffff" fill-opacity="1"><g transform="translate(217.311462, 398.081961)"><g><path d="M 0.90625 -9.5625 C 0.90625 -10.769531 1.421875 -11.78125 2.453125 -12.59375 C 3.484375 -13.414062 4.875 -13.828125 6.625 -13.828125 C 8.382812 -13.828125 9.800781 -13.425781 10.875 -12.625 C 11.957031 -11.820312 12.53125 -10.726562 12.59375 -9.34375 L 8.3125 -9.34375 C 8.257812 -9.8125 8.09375 -10.128906 7.8125 -10.296875 C 7.539062 -10.472656 7.125 -10.5625 6.5625 -10.5625 C 5.46875 -10.5625 4.921875 -10.226562 4.921875 -9.5625 C 4.921875 -8.957031 5.59375 -8.539062 6.9375 -8.3125 C 8.289062 -8.082031 9.523438 -7.726562 10.640625 -7.25 C 11.210938 -7.019531 11.691406 -6.640625 12.078125 -6.109375 C 12.460938 -5.578125 12.65625 -4.929688 12.65625 -4.171875 C 12.65625 -2.890625 12.101562 -1.84375 11 -1.03125 C 9.90625 -0.226562 8.523438 0.171875 6.859375 0.171875 C 5.191406 0.171875 3.800781 -0.207031 2.6875 -0.96875 C 1.582031 -1.726562 0.976562 -2.851562 0.875 -4.34375 L 5.171875 -4.34375 C 5.285156 -3.507812 5.875 -3.09375 6.9375 -3.09375 C 7.425781 -3.09375 7.828125 -3.207031 8.140625 -3.4375 C 8.460938 -3.664062 8.625 -3.957031 8.625 -4.3125 C 8.625 -4.675781 8.359375 -4.960938 7.828125 -5.171875 C 7.296875 -5.378906 6.65625 -5.554688 5.90625 -5.703125 C 5.15625 -5.859375 4.398438 -6.046875 3.640625 -6.265625 C 2.878906 -6.484375 2.234375 -6.863281 1.703125 -7.40625 C 1.171875 -7.957031 0.90625 -8.675781 0.90625 -9.5625 Z M 0.90625 -9.5625 "/></g></g></g><g fill="#ffffff" fill-opacity="1"><g transform="translate(229.693353, 398.081961)"><g><path d="M 7.65625 -3.5625 L 9.140625 -3.5625 L 9.140625 0 L 7.015625 0 C 5.472656 0 4.28125 -0.335938 3.4375 -1.015625 C 2.601562 -1.691406 2.1875 -2.859375 2.1875 -4.515625 L 2.1875 -10.203125 L 0.90625 -10.203125 L 0.90625 -13.6875 L 2.1875 -13.6875 L 2.1875 -17.015625 L 6.375 -17.015625 L 6.375 -13.6875 L 9.125 -13.6875 L 9.125 -10.203125 L 6.375 -10.203125 L 6.375 -4.515625 C 6.375 -3.878906 6.800781 -3.5625 7.65625 -3.5625 Z M 7.65625 -3.5625 "/></g></g></g><g fill="#ffffff" fill-opacity="1"><g transform="translate(238.642618, 398.081961)"><g><path d="M 7.65625 0.171875 C 5.65625 0.171875 4.015625 -0.46875 2.734375 -1.75 C 1.460938 -3.03125 0.828125 -4.734375 0.828125 -6.859375 C 0.828125 -8.984375 1.460938 -10.675781 2.734375 -11.9375 C 4.003906 -13.195312 5.644531 -13.828125 7.65625 -13.828125 C 9.664062 -13.828125 11.332031 -13.203125 12.65625 -11.953125 C 13.976562 -10.710938 14.640625 -8.992188 14.640625 -6.796875 C 14.640625 -6.316406 14.601562 -5.875 14.53125 -5.46875 L 5.125 -5.46875 C 5.207031 -4.863281 5.476562 -4.367188 5.9375 -3.984375 C 6.394531 -3.597656 6.890625 -3.40625 7.421875 -3.40625 C 7.953125 -3.40625 8.347656 -3.457031 8.609375 -3.5625 C 8.867188 -3.664062 9.054688 -3.769531 9.171875 -3.875 C 9.296875 -3.988281 9.457031 -4.164062 9.65625 -4.40625 L 14.1875 -4.40625 C 13.800781 -3.039062 13.019531 -1.9375 11.84375 -1.09375 C 10.664062 -0.25 9.269531 0.171875 7.65625 0.171875 Z M 10.265625 -8.09375 C 10.203125 -8.726562 9.925781 -9.242188 9.4375 -9.640625 C 8.945312 -10.046875 8.363281 -10.25 7.6875 -10.25 C 7.019531 -10.25 6.457031 -10.046875 6 -9.640625 C 5.539062 -9.242188 5.253906 -8.726562 5.140625 -8.09375 Z M 10.265625 -8.09375 "/></g></g></g><g fill="#ffffff" fill-opacity="1"><g transform="translate(252.912472, 398.081961)"><g><path d="M 6.03125 -13.6875 L 6.03125 -11.125 C 7.007812 -12.925781 8.316406 -13.828125 9.953125 -13.828125 L 9.953125 -9.5625 L 8.921875 -9.5625 C 7.960938 -9.5625 7.238281 -9.332031 6.75 -8.875 C 6.269531 -8.414062 6.03125 -7.613281 6.03125 -6.46875 L 6.03125 0 L 1.84375 0 L 1.84375 -13.6875 Z M 6.03125 -13.6875 "/></g></g></g><g fill="#ffffff" fill-opacity="1"><g transform="translate(262.082407, 398.081961)"><g><path d="M 5.4375 -2.296875 C 5.4375 -1.648438 5.21875 -1.101562 4.78125 -0.65625 C 4.34375 -0.21875 3.800781 0 3.15625 0 C 2.507812 0 1.960938 -0.21875 1.515625 -0.65625 C 1.078125 -1.101562 0.859375 -1.648438 0.859375 -2.296875 C 0.859375 -2.941406 1.078125 -3.484375 1.515625 -3.921875 C 1.960938 -4.359375 2.507812 -4.578125 3.15625 -4.578125 C 3.800781 -4.578125 4.34375 -4.359375 4.78125 -3.921875 C 5.21875 -3.484375 5.4375 -2.941406 5.4375 -2.296875 Z M 5.4375 -2.296875 "/></g></g></g><g fill="#ffffff" fill-opacity="1"><g transform="translate(267.157683, 398.081961)"><g><path d="M 2.734375 -1.734375 C 1.460938 -3.015625 0.828125 -4.71875 0.828125 -6.84375 C 0.828125 -8.96875 1.460938 -10.660156 2.734375 -11.921875 C 4.003906 -13.191406 5.644531 -13.828125 7.65625 -13.828125 C 9.320312 -13.828125 10.734375 -13.410156 11.890625 -12.578125 C 13.046875 -11.753906 13.8125 -10.578125 14.1875 -9.046875 L 9.65625 -9.046875 C 9.269531 -9.859375 8.628906 -10.265625 7.734375 -10.265625 C 6.847656 -10.265625 6.1875 -9.953125 5.75 -9.328125 C 5.3125 -8.703125 5.09375 -7.875 5.09375 -6.84375 C 5.09375 -5.8125 5.3125 -4.976562 5.75 -4.34375 C 6.1875 -3.71875 6.820312 -3.40625 7.65625 -3.40625 C 8.175781 -3.40625 8.582031 -3.492188 8.875 -3.671875 C 9.164062 -3.859375 9.425781 -4.179688 9.65625 -4.640625 L 14.1875 -4.640625 C 13.8125 -3.160156 13.035156 -1.988281 11.859375 -1.125 C 10.679688 -0.257812 9.28125 0.171875 7.65625 0.171875 C 5.644531 0.171875 4.003906 -0.460938 2.734375 -1.734375 Z M 2.734375 -1.734375 "/></g></g></g><g fill="#ffffff" fill-opacity="1"><g transform="translate(280.642933, 398.081961)"><g><path d="M 10.046875 -4.28125 C 10.609375 -4.875 10.890625 -5.722656 10.890625 -6.828125 C 10.890625 -7.941406 10.601562 -8.789062 10.03125 -9.375 C 9.457031 -9.957031 8.773438 -10.25 7.984375 -10.25 C 7.203125 -10.25 6.53125 -9.957031 5.96875 -9.375 C 5.40625 -8.789062 5.125 -7.941406 5.125 -6.828125 C 5.125 -5.722656 5.410156 -4.875 5.984375 -4.28125 C 6.566406 -3.695312 7.25 -3.40625 8.03125 -3.40625 C 8.820312 -3.40625 9.492188 -3.695312 10.046875 -4.28125 Z M 2.921875 -1.765625 C 1.546875 -3.054688 0.859375 -4.753906 0.859375 -6.859375 C 0.859375 -8.972656 1.546875 -10.660156 2.921875 -11.921875 C 4.296875 -13.191406 5.992188 -13.828125 8.015625 -13.828125 C 10.046875 -13.828125 11.742188 -13.191406 13.109375 -11.921875 C 14.472656 -10.660156 15.15625 -8.972656 15.15625 -6.859375 C 15.15625 -4.753906 14.472656 -3.054688 13.109375 -1.765625 C 11.753906 -0.472656 10.0625 0.171875 8.03125 0.171875 C 6.007812 0.171875 4.304688 -0.472656 2.921875 -1.765625 Z M 2.921875 -1.765625 "/></g></g></g><g fill="#ffffff" fill-opacity="1"><g transform="translate(295.42769, 398.081961)"><g><path d="M 6.03125 -13.6875 L 6.03125 -11.671875 C 6.894531 -13.109375 8.273438 -13.828125 10.171875 -13.828125 C 11.179688 -13.828125 12.082031 -13.597656 12.875 -13.140625 C 13.675781 -12.679688 14.296875 -12.023438 14.734375 -11.171875 C 15.242188 -11.972656 15.898438 -12.613281 16.703125 -13.09375 C 17.515625 -13.582031 18.421875 -13.828125 19.421875 -13.828125 C 21.085938 -13.828125 22.410156 -13.3125 23.390625 -12.28125 C 24.367188 -11.25 24.859375 -9.816406 24.859375 -7.984375 L 24.859375 0 L 20.6875 0 L 20.6875 -7.421875 C 20.6875 -8.304688 20.453125 -8.988281 19.984375 -9.46875 C 19.523438 -9.957031 18.882812 -10.203125 18.0625 -10.203125 C 17.25 -10.203125 16.609375 -9.957031 16.140625 -9.46875 C 15.671875 -8.988281 15.4375 -8.304688 15.4375 -7.421875 L 15.4375 0 L 11.28125 0 L 11.28125 -7.421875 C 11.28125 -8.304688 11.046875 -8.988281 10.578125 -9.46875 C 10.109375 -9.957031 9.460938 -10.203125 8.640625 -10.203125 C 7.828125 -10.203125 7.1875 -9.957031 6.71875 -9.46875 C 6.257812 -8.988281 6.03125 -8.304688 6.03125 -7.421875 L 6.03125 0 L 1.84375 0 L 1.84375 -13.6875 Z M 6.03125 -13.6875 "/></g></g></g><g fill="#ffffff" fill-opacity="1"><g transform="translate(81.000002, 517.502682)"><g><path d="M 11.078125 -7.640625 C 5.503906 -13.054688 2.71875 -19.921875 2.71875 -28.234375 C 2.71875 -36.554688 5.503906 -43.421875 11.078125 -48.828125 C 16.648438 -54.242188 23.460938 -56.953125 31.515625 -56.953125 C 37.753906 -56.953125 43.300781 -55.300781 48.15625 -52 C 53.007812 -48.695312 56.394531 -44.109375 58.3125 -38.234375 L 42 -38.234375 C 39.863281 -42.347656 36.445312 -44.40625 31.75 -44.40625 C 27.0625 -44.40625 23.367188 -42.9375 20.671875 -40 C 17.984375 -37.0625 16.640625 -33.140625 16.640625 -28.234375 C 16.640625 -23.328125 17.984375 -19.40625 20.671875 -16.46875 C 23.367188 -13.539062 27.0625 -12.078125 31.75 -12.078125 C 36.445312 -12.078125 39.863281 -14.128906 42 -18.234375 L 58.3125 -18.234375 C 56.394531 -12.367188 53.007812 -7.78125 48.15625 -4.46875 C 43.300781 -1.164062 37.753906 0.484375 31.515625 0.484375 C 23.460938 0.484375 16.648438 -2.222656 11.078125 -7.640625 Z M 11.078125 -7.640625 "/></g></g></g><g fill="#ffffff" fill-opacity="1"><g transform="translate(142.11407, 517.502682)"><g><path d="M 32.796875 -14 C 34.609375 -15.914062 35.515625 -18.6875 35.515625 -22.3125 C 35.515625 -25.945312 34.582031 -28.707031 32.71875 -30.59375 C 30.851562 -32.488281 28.640625 -33.4375 26.078125 -33.4375 C 23.515625 -33.4375 21.3125 -32.488281 19.46875 -30.59375 C 17.632812 -28.707031 16.71875 -25.945312 16.71875 -22.3125 C 16.71875 -18.6875 17.664062 -15.914062 19.5625 -14 C 21.457031 -12.082031 23.679688 -11.125 26.234375 -11.125 C 28.796875 -11.125 30.984375 -12.082031 32.796875 -14 Z M 9.546875 -5.75 C 5.046875 -9.96875 2.796875 -15.515625 2.796875 -22.390625 C 2.796875 -29.273438 5.035156 -34.785156 9.515625 -38.921875 C 13.992188 -43.054688 19.539062 -45.125 26.15625 -45.125 C 32.769531 -45.125 38.300781 -43.054688 42.75 -38.921875 C 47.207031 -34.785156 49.4375 -29.273438 49.4375 -22.390625 C 49.4375 -15.515625 47.222656 -9.96875 42.796875 -5.75 C 38.367188 -1.539062 32.847656 0.5625 26.234375 0.5625 C 19.617188 0.5625 14.054688 -1.539062 9.546875 -5.75 Z M 9.546875 -5.75 "/></g></g></g><g fill="#ffffff" fill-opacity="1"><g transform="translate(194.348999, 517.502682)"><g><path d="M 33.1875 -14.15625 C 35.164062 -16.082031 36.15625 -18.800781 36.15625 -22.3125 C 36.15625 -25.832031 35.164062 -28.539062 33.1875 -30.4375 C 31.21875 -32.332031 28.953125 -33.28125 26.390625 -33.28125 C 23.835938 -33.28125 21.570312 -32.316406 19.59375 -30.390625 C 17.625 -28.472656 16.640625 -25.753906 16.640625 -22.234375 C 16.640625 -18.710938 17.625 -16.003906 19.59375 -14.109375 C 21.570312 -12.222656 23.835938 -11.28125 26.390625 -11.28125 C 28.953125 -11.28125 31.21875 -12.238281 33.1875 -14.15625 Z M 8.640625 -5.828125 C 4.691406 -10.097656 2.71875 -15.566406 2.71875 -22.234375 C 2.71875 -28.898438 4.691406 -34.378906 8.640625 -38.671875 C 12.585938 -42.972656 17.398438 -45.125 23.078125 -45.125 C 28.753906 -45.125 33.113281 -43.015625 36.15625 -38.796875 L 36.15625 -59.203125 L 49.84375 -59.203125 L 49.84375 0 L 36.15625 0 L 36.15625 -6.484375 C 32.851562 -1.785156 28.425781 0.5625 22.875 0.5625 C 17.332031 0.5625 12.585938 -1.566406 8.640625 -5.828125 Z M 8.640625 -5.828125 "/></g></g></g><g fill="#ffffff" fill-opacity="1"><g transform="translate(250.183576, 517.502682)"><g><path d="M 24.953125 0.5625 C 18.453125 0.5625 13.117188 -1.53125 8.953125 -5.71875 C 4.796875 -9.90625 2.71875 -15.460938 2.71875 -22.390625 C 2.71875 -29.328125 4.785156 -34.847656 8.921875 -38.953125 C 13.054688 -43.066406 18.398438 -45.125 24.953125 -45.125 C 31.515625 -45.125 36.957031 -43.09375 41.28125 -39.03125 C 45.601562 -34.976562 47.765625 -29.351562 47.765625 -22.15625 C 47.765625 -20.613281 47.65625 -19.175781 47.4375 -17.84375 L 16.71875 -17.84375 C 16.988281 -15.863281 17.867188 -14.25 19.359375 -13 C 20.847656 -11.75 22.457031 -11.125 24.1875 -11.125 C 25.925781 -11.125 27.222656 -11.296875 28.078125 -11.640625 C 28.929688 -11.984375 29.554688 -12.328125 29.953125 -12.671875 C 30.359375 -13.023438 30.878906 -13.601562 31.515625 -14.40625 L 46.3125 -14.40625 C 45.039062 -9.925781 42.484375 -6.3125 38.640625 -3.5625 C 34.796875 -0.8125 30.234375 0.5625 24.953125 0.5625 Z M 33.515625 -26.40625 C 33.304688 -28.476562 32.398438 -30.164062 30.796875 -31.46875 C 29.203125 -32.78125 27.3125 -33.4375 25.125 -33.4375 C 22.9375 -33.4375 21.09375 -32.78125 19.59375 -31.46875 C 18.101562 -30.164062 17.171875 -28.476562 16.796875 -26.40625 Z M 33.515625 -26.40625 "/></g></g></g><g fill="#ffffff" fill-opacity="1"><g transform="translate(300.738662, 517.502682)"><g><path d="M 69.59375 -56.15625 L 69.59375 0 L 55.921875 0 L 55.921875 -31.6875 L 42.875 0 L 32.71875 0 L 19.6875 -31.6875 L 19.6875 0 L 6 0 L 6 -56.15625 L 21.6875 -56.15625 L 37.84375 -17.4375 L 53.921875 -56.15625 Z M 69.59375 -56.15625 "/></g></g></g><g fill="#ffffff" fill-opacity="1"><g transform="translate(376.331324, 517.502682)"><g><path d="M 33.1875 -14.15625 C 35.164062 -16.082031 36.15625 -18.800781 36.15625 -22.3125 C 36.15625 -25.832031 35.164062 -28.539062 33.1875 -30.4375 C 31.21875 -32.332031 28.953125 -33.28125 26.390625 -33.28125 C 23.835938 -33.28125 21.570312 -32.316406 19.59375 -30.390625 C 17.625 -28.472656 16.640625 -25.753906 16.640625 -22.234375 C 16.640625 -18.710938 17.625 -16.003906 19.59375 -14.109375 C 21.570312 -12.222656 23.835938 -11.28125 26.390625 -11.28125 C 28.953125 -11.28125 31.21875 -12.238281 33.1875 -14.15625 Z M 8.640625 -5.828125 C 4.691406 -10.097656 2.71875 -15.566406 2.71875 -22.234375 C 2.71875 -28.898438 4.691406 -34.378906 8.640625 -38.671875 C 12.585938 -42.972656 17.398438 -45.125 23.078125 -45.125 C 28.753906 -45.125 33.113281 -43.015625 36.15625 -38.796875 L 36.15625 -44.640625 L 49.84375 -44.640625 L 49.84375 0 L 36.15625 0 L 36.15625 -6.484375 C 32.851562 -1.785156 28.425781 0.5625 22.875 0.5625 C 17.332031 0.5625 12.585938 -1.566406 8.640625 -5.828125 Z M 8.640625 -5.828125 "/></g></g></g><g fill="#ffffff" fill-opacity="1"><g transform="translate(432.165901, 517.502682)"><g><path d="M 2.953125 -31.203125 C 2.953125 -35.148438 4.632812 -38.457031 8 -41.125 C 11.363281 -43.789062 15.910156 -45.125 21.640625 -45.125 C 27.367188 -45.125 31.992188 -43.816406 35.515625 -41.203125 C 39.035156 -38.585938 40.90625 -35.015625 41.125 -30.484375 L 27.125 -30.484375 C 26.957031 -32.023438 26.421875 -33.078125 25.515625 -33.640625 C 24.609375 -34.203125 23.25 -34.484375 21.4375 -34.484375 C 17.863281 -34.484375 16.078125 -33.390625 16.078125 -31.203125 C 16.078125 -29.222656 18.265625 -27.863281 22.640625 -27.125 C 27.066406 -26.375 31.09375 -25.226562 34.71875 -23.6875 C 36.582031 -22.9375 38.140625 -21.691406 39.390625 -19.953125 C 40.648438 -18.222656 41.28125 -16.101562 41.28125 -13.59375 C 41.28125 -9.4375 39.492188 -6.035156 35.921875 -3.390625 C 32.347656 -0.753906 27.835938 0.5625 22.390625 0.5625 C 16.953125 0.5625 12.421875 -0.675781 8.796875 -3.15625 C 5.171875 -5.632812 3.195312 -9.300781 2.875 -14.15625 L 16.875 -14.15625 C 17.25 -11.4375 19.171875 -10.078125 22.640625 -10.078125 C 24.242188 -10.078125 25.5625 -10.445312 26.59375 -11.1875 C 27.632812 -11.9375 28.15625 -12.898438 28.15625 -14.078125 C 28.15625 -15.253906 27.285156 -16.1875 25.546875 -16.875 C 23.816406 -17.570312 21.722656 -18.160156 19.265625 -18.640625 C 16.816406 -19.117188 14.351562 -19.71875 11.875 -20.4375 C 9.394531 -21.15625 7.285156 -22.40625 5.546875 -24.1875 C 3.816406 -25.976562 2.953125 -28.316406 2.953125 -31.203125 Z M 2.953125 -31.203125 "/></g></g></g><g fill="#ffffff" fill-opacity="1"><g transform="translate(476.561582, 517.502682)"><g><path d="M 24.953125 -11.59375 L 29.84375 -11.59375 L 29.84375 0 L 22.875 0 C 17.863281 0 13.984375 -1.101562 11.234375 -3.3125 C 8.492188 -5.53125 7.125 -9.332031 7.125 -14.71875 L 7.125 -33.28125 L 2.953125 -33.28125 L 2.953125 -44.640625 L 7.125 -44.640625 L 7.125 -55.515625 L 20.796875 -55.515625 L 20.796875 -44.640625 L 29.765625 -44.640625 L 29.765625 -33.28125 L 20.796875 -33.28125 L 20.796875 -14.71875 C 20.796875 -12.632812 22.179688 -11.59375 24.953125 -11.59375 Z M 24.953125 -11.59375 "/></g></g></g><g fill="#ffffff" fill-opacity="1"><g transform="translate(509.758373, 517.502682)"><g><path d="M 24.953125 0.5625 C 18.453125 0.5625 13.117188 -1.53125 8.953125 -5.71875 C 4.796875 -9.90625 2.71875 -15.460938 2.71875 -22.390625 C 2.71875 -29.328125 4.785156 -34.847656 8.921875 -38.953125 C 13.054688 -43.066406 18.398438 -45.125 24.953125 -45.125 C 31.515625 -45.125 36.957031 -43.09375 41.28125 -39.03125 C 45.601562 -34.976562 47.765625 -29.351562 47.765625 -22.15625 C 47.765625 -20.613281 47.65625 -19.175781 47.4375 -17.84375 L 16.71875 -17.84375 C 16.988281 -15.863281 17.867188 -14.25 19.359375 -13 C 20.847656 -11.75 22.457031 -11.125 24.1875 -11.125 C 25.925781 -11.125 27.222656 -11.296875 28.078125 -11.640625 C 28.929688 -11.984375 29.554688 -12.328125 29.953125 -12.671875 C 30.359375 -13.023438 30.878906 -13.601562 31.515625 -14.40625 L 46.3125 -14.40625 C 45.039062 -9.925781 42.484375 -6.3125 38.640625 -3.5625 C 34.796875 -0.8125 30.234375 0.5625 24.953125 0.5625 Z M 33.515625 -26.40625 C 33.304688 -28.476562 32.398438 -30.164062 30.796875 -31.46875 C 29.203125 -32.78125 27.3125 -33.4375 25.125 -33.4375 C 22.9375 -33.4375 21.09375 -32.78125 19.59375 -31.46875 C 18.101562 -30.164062 17.171875 -28.476562 16.796875 -26.40625 Z M 33.515625 -26.40625 "/></g></g></g><g fill="#ffffff" fill-opacity="1"><g transform="translate(560.313469, 517.502682)"><g><path d="M 19.6875 -44.640625 L 19.6875 -36.3125 C 22.882812 -42.1875 27.148438 -45.125 32.484375 -45.125 L 32.484375 -31.203125 L 29.125 -31.203125 C 25.976562 -31.203125 23.617188 -30.453125 22.046875 -28.953125 C 20.472656 -27.460938 19.6875 -24.851562 19.6875 -21.125 L 19.6875 0 L 6 0 L 6 -44.640625 Z M 19.6875 -44.640625 "/></g></g></g><g clip-path="url(#id10)"><path fill="#ffcf3e" d="M 103.5 684 L 425.25 684 L 425.25 729 L 103.5 729 L 103.5 684 " fill-opacity="1" fill-rule="nonzero"/></g><path fill="#ffcf3e" d="M 103.5 684 C 91.074219 684 81 694.074219 81 706.5 C 81 718.925781 91.074219 729 103.5 729 C 115.925781 729 126 718.925781 126 706.5 C 126 694.074219 115.925781 684 103.5 684 " fill-opacity="1" fill-rule="nonzero"/><g clip-path="url(#id11)"><path fill="#ffcf3e" d="M 425.328125 684 C 412.902344 684 402.828125 694.074219 402.828125 706.5 C 402.828125 718.925781 412.902344 729 425.328125 729 C 437.753906 729 447.828125 718.925781 447.828125 706.5 C 447.828125 694.074219 437.753906 684 425.328125 684 " fill-opacity="1" fill-rule="nonzero"/></g><g fill="#171717" fill-opacity="1"><g transform="translate(227.98761, 713.237552)"><g><path d="M 7.046875 -3.40625 L 7.046875 -13.796875 L 8.4375 -13.796875 L 8.4375 -3.40625 C 8.4375 -2.332031 8.101562 -1.472656 7.4375 -0.828125 C 6.78125 -0.179688 5.894531 0.140625 4.78125 0.140625 C 3.675781 0.140625 2.789062 -0.179688 2.125 -0.828125 C 1.457031 -1.472656 1.125 -2.332031 1.125 -3.40625 L 2.5625 -3.40625 C 2.570312 -2.738281 2.753906 -2.179688 3.109375 -1.734375 C 3.460938 -1.285156 4.023438 -1.0625 4.796875 -1.0625 C 5.566406 -1.0625 6.132812 -1.285156 6.5 -1.734375 C 6.863281 -2.179688 7.046875 -2.738281 7.046875 -3.40625 Z M 7.046875 -3.40625 "/></g></g></g><g fill="#171717" fill-opacity="1"><g transform="translate(238.803341, 713.237552)"><g><path d="M 11.8125 -2.671875 C 12.875 -3.742188 13.40625 -5.148438 13.40625 -6.890625 C 13.40625 -8.640625 12.875 -10.046875 11.8125 -11.109375 C 10.757812 -12.179688 9.425781 -12.71875 7.8125 -12.71875 C 6.207031 -12.71875 4.875 -12.179688 3.8125 -11.109375 C 2.75 -10.046875 2.21875 -8.640625 2.21875 -6.890625 C 2.21875 -5.148438 2.75 -3.742188 3.8125 -2.671875 C 4.875 -1.597656 6.207031 -1.0625 7.8125 -1.0625 C 9.414062 -1.0625 10.75 -1.597656 11.8125 -2.671875 Z M 2.828125 -1.84375 C 1.472656 -3.175781 0.796875 -4.859375 0.796875 -6.890625 C 0.796875 -8.929688 1.472656 -10.613281 2.828125 -11.9375 C 4.179688 -13.269531 5.847656 -13.9375 7.828125 -13.9375 C 9.804688 -13.9375 11.46875 -13.269531 12.8125 -11.9375 C 14.164062 -10.613281 14.84375 -8.929688 14.84375 -6.890625 C 14.84375 -4.859375 14.164062 -3.175781 12.8125 -1.84375 C 11.46875 -0.519531 9.804688 0.140625 7.828125 0.140625 C 5.847656 0.140625 4.179688 -0.519531 2.828125 -1.84375 Z M 2.828125 -1.84375 "/></g></g></g><g fill="#171717" fill-opacity="1"><g transform="translate(254.417178, 713.237552)"><g><path d="M 1.5 0 L 1.5 -13.796875 L 2.90625 -13.796875 L 2.90625 0 Z M 1.5 0 "/></g></g></g><g fill="#171717" fill-opacity="1"><g transform="translate(258.81544, 713.237552)"><g><path d="M 10.640625 -13.796875 L 12.046875 -13.796875 L 12.046875 0 L 10.640625 0 L 2.90625 -11.5625 L 2.90625 0 L 1.5 0 L 1.5 -13.796875 L 2.90625 -13.796875 L 10.640625 -2.234375 Z M 10.640625 -13.796875 "/></g></g></g><g fill="#171717" fill-opacity="1"><g transform="translate(272.350103, 713.237552)"><g/></g></g><g fill="#171717" fill-opacity="1"><g transform="translate(278.347734, 713.237552)"><g><path d="M 1.5 -4.640625 L 1.5 -13.796875 L 2.90625 -13.796875 L 2.90625 -4.640625 C 2.90625 -3.410156 3.234375 -2.5 3.890625 -1.90625 C 4.546875 -1.3125 5.445312 -1.015625 6.59375 -1.015625 C 7.738281 -1.015625 8.640625 -1.3125 9.296875 -1.90625 C 9.953125 -2.5 10.28125 -3.410156 10.28125 -4.640625 L 10.28125 -13.796875 L 11.6875 -13.796875 L 11.6875 -4.640625 C 11.6875 -3.066406 11.210938 -1.875 10.265625 -1.0625 C 9.316406 -0.257812 8.09375 0.140625 6.59375 0.140625 C 5.101562 0.140625 3.878906 -0.257812 2.921875 -1.0625 C 1.972656 -1.875 1.5 -3.066406 1.5 -4.640625 Z M 1.5 -4.640625 "/></g></g></g><g fill="#171717" fill-opacity="1"><g transform="translate(291.502545, 713.237552)"><g><path d="M 2.5 -10.15625 C 2.5 -9.613281 2.640625 -9.164062 2.921875 -8.8125 C 3.210938 -8.46875 3.582031 -8.210938 4.03125 -8.046875 C 4.488281 -7.878906 4.988281 -7.734375 5.53125 -7.609375 C 6.082031 -7.492188 6.628906 -7.363281 7.171875 -7.21875 C 7.722656 -7.070312 8.222656 -6.878906 8.671875 -6.640625 C 9.128906 -6.410156 9.5 -6.054688 9.78125 -5.578125 C 10.070312 -5.097656 10.21875 -4.503906 10.21875 -3.796875 C 10.21875 -2.742188 9.820312 -1.820312 9.03125 -1.03125 C 8.25 -0.25 7.175781 0.140625 5.8125 0.140625 C 4.445312 0.140625 3.335938 -0.164062 2.484375 -0.78125 C 1.628906 -1.394531 1.203125 -2.222656 1.203125 -3.265625 L 2.6875 -3.265625 C 2.738281 -2.617188 3.007812 -2.085938 3.5 -1.671875 C 3.988281 -1.253906 4.722656 -1.046875 5.703125 -1.046875 C 6.691406 -1.046875 7.472656 -1.296875 8.046875 -1.796875 C 8.628906 -2.304688 8.921875 -2.9375 8.921875 -3.6875 C 8.921875 -4.4375 8.648438 -5 8.109375 -5.375 C 7.578125 -5.757812 6.9375 -6.023438 6.1875 -6.171875 C 5.4375 -6.328125 4.679688 -6.5 3.921875 -6.6875 C 3.171875 -6.882812 2.53125 -7.257812 2 -7.8125 C 1.46875 -8.375 1.203125 -9.1875 1.203125 -10.25 C 1.203125 -11.320312 1.597656 -12.203125 2.390625 -12.890625 C 3.179688 -13.585938 4.226562 -13.9375 5.53125 -13.9375 C 6.832031 -13.9375 7.851562 -13.632812 8.59375 -13.03125 C 9.34375 -12.4375 9.796875 -11.640625 9.953125 -10.640625 L 8.375 -10.640625 C 8.320312 -11.203125 8.039062 -11.691406 7.53125 -12.109375 C 7.03125 -12.523438 6.335938 -12.734375 5.453125 -12.734375 C 4.578125 -12.734375 3.863281 -12.515625 3.3125 -12.078125 C 2.769531 -11.640625 2.5 -11 2.5 -10.15625 Z M 2.5 -10.15625 "/></g></g></g></svg>