<svg width="797" height="664" viewBox="0 0 797 664" fill="none" xmlns="http://www.w3.org/2000/svg">
<rect width="797" height="664" fill="#F5F5F5"/>
<g clip-path="url(#clip0_0_1)">
<path d="M796.36 661.434C792.666 654.743 782.436 651.631 775.81 649.258C761.081 643.982 745.667 640.538 730.364 637.406C708.49 632.931 686.416 629.442 664.302 626.389C637.308 622.661 610.219 619.633 583.088 617.092C552.409 614.219 521.68 611.955 490.902 610.298C458.322 608.52 425.715 607.392 393.081 606.915C360.264 606.455 327.433 606.686 294.632 607.806C263.228 608.878 231.839 610.752 200.565 613.831C172.317 616.613 144.124 620.343 116.253 625.76C92.4003 630.395 68.6597 636.216 45.8152 644.571C41.0417 646.317 36.3171 648.187 31.6415 650.182L33.845 651.876C42.3104 631.111 51.631 605.744 38.4056 584.767C33.3027 576.674 24.1055 569.651 14.0411 570.939C5.88475 571.983 -2.14093 580.295 0.519141 588.939C2.82101 596.418 13.2481 599.859 18.9976 594.243C19.2001 594.03 19.3365 593.763 19.3903 593.475C19.4441 593.186 19.4129 592.888 19.3006 592.617C19.1883 592.346 18.9996 592.113 18.7575 591.947C18.5154 591.781 18.2304 591.689 17.9369 591.682C7.10409 592.546 3.70104 605.536 7.27906 614.346C12.8247 628.001 31.2746 628.057 43.4402 626.593C45.3332 626.366 45.3561 623.363 43.4402 623.593C33.0925 624.838 17.9734 625.596 11.3237 615.65C6.91256 609.052 8.22601 595.456 17.9369 594.682L16.8763 592.121C13.586 595.335 8.25781 594.277 5.25526 591.136C1.208 586.902 3.37385 580.527 7.34626 577.066C17.1948 568.486 30.6389 577.773 36.1298 586.781C48.4413 606.978 39.0243 631.278 30.9521 651.079C30.3915 652.454 32.1232 653.213 33.1556 652.773C54.3659 643.735 76.7108 637.444 99.1713 632.392C125.941 626.518 153.001 622.053 180.239 619.016C210.613 615.468 241.13 613.194 271.672 611.742C303.786 610.215 335.942 609.611 368.091 609.703C400.606 609.796 433.109 610.577 465.601 612.047C496.724 613.427 527.814 615.397 558.871 617.957C586.851 620.274 614.793 623.081 642.654 626.549C666.23 629.484 689.762 632.872 713.137 637.131C730.357 640.268 747.592 643.773 764.395 648.721C773.317 651.349 784.247 654.13 791.474 660.311C792.399 661.037 793.179 661.931 793.77 662.948C794.703 664.638 797.295 663.127 796.36 661.434L796.36 661.434Z" fill="#F2F2F2"/>
<path d="M450.847 150.889L512.696 186.286C515.321 187.778 518.427 188.178 521.344 187.4C524.261 186.622 526.755 184.728 528.288 182.128C529.082 180.782 529.592 179.289 529.79 177.74C529.987 176.19 529.867 174.617 529.436 173.116C529.006 171.614 528.274 170.216 527.286 169.007C526.297 167.798 525.073 166.802 523.687 166.082L458.314 131.282L419.482 108.462C419.752 106.419 419.387 104.342 418.436 102.513C417.485 100.685 415.994 99.1935 414.166 98.2418C412.337 97.2902 410.26 96.9245 408.217 97.1943C406.174 97.4641 404.263 98.3565 402.744 99.75C401.226 101.144 400.173 102.971 399.729 104.984C399.285 106.996 399.472 109.097 400.263 111C401.055 112.903 402.413 114.516 404.153 115.621C405.894 116.725 407.932 117.267 409.991 117.172L450.847 150.889Z" fill="#FFB6B6"/>
<path d="M496.84 184.757C497.02 185.477 497.432 186.119 498.012 186.583C498.592 187.047 499.308 187.308 500.051 187.325C500.966 187.364 501.847 187.688 502.57 188.252C502.708 188.362 502.839 188.482 502.962 188.61C503.683 189.398 504.584 190 505.588 190.365C506.592 190.73 507.669 190.848 508.728 190.708C512.207 190.196 516.264 191.401 519.621 192.901C523.294 194.542 526.934 196.406 530.894 197.12C536.605 198.15 543.334 196.384 544.932 189.34C545.565 186.333 545.143 183.201 543.736 180.469C540.87 174.72 535.273 171.258 529.887 167.998L532.65 168.247C526.705 164.789 521.52 160.165 517.406 154.654C516.863 156.111 514.552 155.963 513.551 154.774C512.551 153.585 512.434 151.917 512.168 150.386C511.833 148.456 510.919 146.27 508.514 146.42C507.94 146.472 507.383 146.642 506.877 146.919C506.372 147.197 505.929 147.576 505.577 148.033C498.746 156.523 493.743 166.335 490.885 176.851C490.252 179.187 489.756 181.803 490.914 183.928C492.073 186.053 495.607 186.839 496.84 184.757Z" fill="#2F2E41"/>
<path d="M349.924 322.518C346.42 322.331 343.036 321.174 340.15 319.177C337.265 317.179 334.992 314.419 333.583 311.204C330.363 304.018 331.516 295.51 335.478 288.872C339.611 281.948 346.076 277.851 353.064 274.228C359.467 270.907 366.363 267.015 369.281 260.017C370.59 256.976 370.761 253.565 369.765 250.408C369.292 248.923 368.542 247.541 367.555 246.335C366.399 245.111 364.993 244.151 363.433 243.517C361.91 242.727 361.199 241.249 360.442 239.78C359.602 238.15 358.686 236.577 357.766 234.992C355.58 231.225 353.48 227.41 351.468 223.546C343.395 208.141 336.855 191.981 331.942 175.297C322.765 143.834 319.9 109.997 327.585 77.9027C331.258 62.5629 337.256 47.5349 346.095 34.4183C354.241 22.3294 365.418 11.646 379.411 6.81561C392.86 2.17283 409.302 2.6249 420.82 11.8126C430.281 19.359 435.841 32.5552 433.276 44.5695C432.655 47.483 431.546 50.2704 429.994 52.8133L432.736 53.9692C439.424 35.977 461.855 29.217 479.145 34.1382C500.28 40.154 511.496 62.8534 512.466 83.4419C513.655 108.703 500.354 131.99 484.701 150.82C468.584 170.068 449.736 186.854 428.757 200.641C407.888 214.458 385.158 225.232 361.251 232.638C358.292 233.55 355.317 234.41 352.326 235.216C351.955 235.332 351.643 235.588 351.457 235.93C351.271 236.271 351.225 236.672 351.328 237.047C351.431 237.422 351.676 237.743 352.011 237.941C352.347 238.139 352.745 238.199 353.124 238.108C378.281 231.285 402.299 220.802 424.409 206.997C446.566 193.218 466.556 176.227 483.727 156.581C500.415 137.394 515.247 113.771 515.54 87.5308C515.78 65.9469 505.655 41.7611 484.674 32.9181C467.257 25.5776 443.69 30.2994 433.034 46.7196C431.737 48.7466 430.667 50.9103 429.843 53.1716C429.236 54.8048 431.728 55.7372 432.585 54.3275C439.374 43.159 437.554 28.7189 430.532 18.1087C422.543 6.03769 408.425 0.370381 394.233 0.957311C361.286 2.31993 340.164 32.0801 329.755 60.3425C318.007 92.2393 317.828 127.464 325.042 160.404C328.945 177.888 334.673 194.914 342.133 211.202C345.888 219.488 350.038 227.58 354.581 235.477C355.541 237.148 356.568 238.784 357.448 240.499C358.128 242.093 359.054 243.57 360.19 244.879C361.426 246.109 363.185 246.387 364.501 247.467C365.841 248.694 366.759 250.314 367.125 252.094C369.058 260.039 361.646 266.064 355.558 269.498C351.769 271.636 347.767 273.403 344.13 275.805C340.944 277.883 338.097 280.438 335.688 283.381C330.802 289.434 328.02 297.11 328.883 304.936C329.224 308.578 330.421 312.088 332.375 315.18C334.329 318.272 336.985 320.86 340.127 322.732C343.11 324.462 346.477 325.419 349.924 325.518C351.855 325.573 351.854 322.573 349.924 322.518V322.518Z" fill="#3C3652"/>
<path d="M215.565 301.691L229.565 226.691L273.565 222.691L302.449 304.305L215.565 301.691Z" fill="#A0616A"/>
<path d="M526.565 232.691L490.565 311.691L574.065 320.423L596.565 224.691L526.565 232.691Z" fill="#FFB6B6"/>
<path d="M654.207 543.912L646.856 552.118L611.001 527.038L621.85 514.927L654.207 543.912Z" fill="#FFB6B6"/>
<path d="M644.031 581.972C645.005 582.842 646.284 583.291 647.588 583.219C648.892 583.148 650.114 582.562 650.987 581.591L665.601 565.274L662.302 557.26L669.096 561.366L674.615 555.213L652.325 538.364L650.281 540.395L641.923 548.662L639.232 551.334L645.104 556.595L642.431 577.687C642.331 578.477 642.425 579.28 642.703 580.026C642.982 580.773 643.438 581.44 644.031 581.972Z" fill="#2F2E41"/>
<path d="M511.44 618.695L500.43 619.102L493.585 575.885L509.833 575.284L511.44 618.695Z" fill="#FFB6B6"/>
<path d="M476.984 637.797C477.034 639.102 477.599 640.334 478.556 641.223C479.512 642.112 480.783 642.585 482.088 642.538L503.977 641.727L507.455 633.788L509.216 641.528L517.476 641.228L514.126 613.488L511.245 613.427L499.492 613.152L495.701 613.071L495.992 620.949L478.957 633.67C478.319 634.147 477.806 634.772 477.462 635.49C477.119 636.209 476.955 637.001 476.984 637.797Z" fill="#2F2E41"/>
<path d="M576.589 305.139H493.809L467.565 362.691C467.565 362.691 447.369 460.264 458.565 484.691C469.565 508.691 490.565 593.691 490.565 593.691L512.565 588.691L517.565 573.691C517.565 573.691 509.123 559.659 511.565 554.691C514.007 549.722 505.565 549.691 505.565 549.691C505.565 549.691 505.697 546.397 506.565 536.691C507.433 526.984 498.565 466.691 498.565 466.691L528.565 372.691L576.589 305.139Z" fill="#2F2E41"/>
<path d="M511.392 324.256L528.565 372.691L518.618 454.077C518.295 456.718 518.641 459.398 519.625 461.871C520.609 464.343 522.199 466.529 524.248 468.226L616.565 544.691L637.565 520.691L630.795 514.927C630.795 514.927 619.792 511.344 622.678 508.017C625.565 504.691 615.53 501.932 615.53 501.932C615.53 501.932 613.892 508.89 607.729 495.29C601.565 481.691 564.478 458.47 564.478 458.47C564.478 458.47 615.565 350.691 576.589 305.139L511.392 324.256Z" fill="#2F2E41"/>
<path d="M139.923 530.912L147.274 539.118L183.129 514.038L172.279 501.927L139.923 530.912Z" fill="#A0616A"/>
<path d="M151.699 564.687L149.026 543.595L154.898 538.334L152.207 535.662L143.849 527.395L141.805 525.364L119.515 542.213L125.034 548.366L131.827 544.26L128.529 552.274L143.143 568.591C143.844 569.373 144.776 569.91 145.804 570.125C146.832 570.34 147.901 570.221 148.856 569.785C149.812 569.349 150.603 568.619 151.114 567.702C151.625 566.785 151.83 565.728 151.699 564.687Z" fill="#2F2E41"/>
<path d="M235.809 576.882L245.821 581.479L268.712 544.189L253.935 537.404L235.809 576.882Z" fill="#A0616A"/>
<path d="M260.068 603.167L249.211 584.887L252.501 577.723L248.968 576.344L238.008 572.092L235.324 571.044L221.595 595.38L229.108 598.824L233.703 592.35L233.871 601.015L253.776 610.157C254.731 610.595 255.8 610.717 256.828 610.504C257.857 610.291 258.79 609.756 259.492 608.975C260.195 608.195 260.63 607.21 260.733 606.166C260.837 605.121 260.604 604.07 260.068 603.167Z" fill="#2F2E41"/>
<path d="M217.541 292.139H300.321L326.565 349.691C326.565 349.691 354.565 452.691 335.565 471.691C316.565 490.691 264.565 555.691 264.565 555.691L246.565 548.691L295.565 453.691L265.565 359.691L217.541 292.139Z" fill="#2F2E41"/>
<path d="M282.738 311.256L265.565 359.691L275.512 441.077C275.835 443.718 275.489 446.398 274.505 448.871C273.521 451.343 271.931 453.529 269.882 455.226L181.565 516.691L168.565 501.691L229.652 445.47C229.652 445.47 178.565 337.691 217.541 292.139L282.738 311.256Z" fill="#2F2E41"/>
<path d="M582.565 284.691L509.565 265.691C509.565 265.691 512.269 241.713 507.917 242.702C503.565 243.691 507.415 235.689 507.415 235.689C507.415 235.689 510.565 232.691 506.887 228.332C494.307 213.425 504.446 194.271 504.446 194.271C504.76 184.844 508.369 175.825 514.645 168.784C520.921 161.744 529.467 157.126 538.796 155.734L565.909 151.691C571.547 151.691 577.117 152.913 582.238 155.272C587.358 157.632 591.906 161.073 595.568 165.36C599.231 169.646 601.921 174.675 603.453 180.1C604.985 185.526 605.324 191.219 604.444 196.788L582.565 284.691Z" fill="#2F2E41"/>
<path d="M570.565 160.691L529.565 161.691L533.565 142.691H563.565L570.565 160.691Z" fill="#2F2E41"/>
<path d="M631.26 251.08L584.427 197.368C582.45 195.087 581.449 192.119 581.64 189.106C581.831 186.093 583.199 183.276 585.449 181.263C586.613 180.221 587.977 179.428 589.457 178.931C590.938 178.433 592.505 178.243 594.061 178.371C595.618 178.499 597.132 178.942 598.512 179.675C599.891 180.407 601.107 181.412 602.086 182.63L649.023 239.915L679.012 273.521C680.962 272.855 683.07 272.806 685.05 273.381C687.029 273.955 688.784 275.125 690.076 276.731C691.367 278.337 692.133 280.302 692.269 282.359C692.405 284.415 691.904 286.464 690.835 288.226C689.766 289.988 688.181 291.379 686.294 292.209C684.407 293.038 682.311 293.267 680.29 292.864C678.268 292.461 676.42 291.445 674.996 289.955C673.572 288.465 672.642 286.573 672.33 284.535L631.26 251.08Z" fill="#FFB6B6"/>
<path d="M589.035 212.617C588.293 212.581 587.583 212.303 587.014 211.825C586.446 211.348 586.05 210.696 585.887 209.972C585.669 209.081 585.179 208.281 584.484 207.683C584.349 207.569 584.206 207.464 584.056 207.368C583.142 206.816 582.375 206.05 581.82 205.137C581.265 204.225 580.939 203.191 580.869 202.125C580.689 198.614 578.712 194.872 576.583 191.874C574.254 188.593 571.713 185.39 570.237 181.647C568.108 176.248 568.52 169.303 575.114 166.356C577.939 165.146 581.093 164.946 584.047 165.79C590.247 167.474 594.738 172.284 598.991 176.926L598.205 174.266C602.762 179.417 608.312 183.595 614.522 186.55C613.201 187.367 613.798 189.605 615.16 190.353C616.522 191.101 618.181 190.888 619.734 190.849C621.692 190.8 624.015 191.267 624.34 193.655C624.402 194.228 624.344 194.808 624.171 195.358C623.998 195.908 623.713 196.416 623.334 196.851C616.347 205.214 607.706 212.043 597.954 216.906C595.787 217.985 593.319 218.985 591.008 218.265C588.697 217.545 587.234 214.234 589.035 212.617Z" fill="#2F2E41"/>
<path d="M518.338 105.514C527.466 121.239 510.279 147.733 527.6 153.234L526.173 151.807C515.717 138.946 537.571 111.725 527.116 98.864C525.491 96.9774 524.097 94.9045 522.961 92.6888L518.338 105.514Z" fill="#2F2E41"/>
<path d="M589.557 103.131C589.559 108.227 588.309 113.245 585.919 117.746C583.529 122.246 580.07 126.091 575.847 128.943C571.624 131.794 566.765 133.566 561.697 134.102C556.63 134.637 551.508 133.921 546.782 132.015C542.056 130.109 537.87 127.072 534.591 123.171C531.313 119.27 529.042 114.623 527.979 109.639C526.915 104.656 527.091 99.4872 528.491 94.5875C529.892 89.6877 532.474 85.2067 536.01 81.5376L536.159 81.3883C536.408 81.1267 536.657 80.8653 536.919 80.6161C536.921 80.6161 536.922 80.6158 536.924 80.6152C536.925 80.6146 536.927 80.6137 536.928 80.6125C536.929 80.6114 536.93 80.61 536.931 80.6084C536.931 80.6069 536.931 80.6053 536.931 80.6036C537.255 80.3048 537.579 80.0059 537.915 79.7196C542.414 75.7756 547.954 73.2118 553.872 72.335C559.79 71.4582 565.835 72.3056 571.284 74.7758C576.733 77.246 581.354 81.2342 584.595 86.263C587.836 91.2919 589.558 97.1481 589.557 103.131Z" fill="#2F2E41"/>
<path d="M550.755 136.439C565.172 136.439 576.86 124.751 576.86 110.334C576.86 95.9161 565.172 84.2283 550.755 84.2283C536.337 84.2283 524.65 95.9161 524.65 110.334C524.65 124.751 536.337 136.439 550.755 136.439Z" fill="#FFB8B8"/>
<path d="M569.405 85.234C565.362 81.4491 560.333 78.8813 554.896 77.8257C549.459 76.7701 543.834 77.2694 538.668 79.2664C538.536 79.3253 538.388 79.3842 538.256 79.4432C537.74 79.6494 537.224 79.8852 536.709 80.1357L536.414 80.2683V80.3125L536.237 80.4452C536.115 80.5563 535.969 80.637 535.81 80.6809C533.542 80.6204 531.287 81.0394 529.192 81.9103C527.097 82.7812 525.21 84.0845 523.653 85.735C519.616 90.126 517.701 97.2282 518.29 105.716L518.305 105.981L518.54 106.128C518.614 106.172 518.673 106.217 518.747 106.261C520.81 107.543 522.769 108.677 524.67 109.679C525.819 110.298 526.939 110.858 528.059 111.374L528.457 111.551C528.884 111.757 529.326 111.949 529.754 112.14C540.54 116.855 550.486 117.592 560.034 114.424L560.211 114.365L563.423 108.987L564.44 107.292C564.661 108.5 564.793 110.401 564.941 112.582C565.107 115.987 565.486 119.377 566.075 122.735V122.764C566.665 125.74 567.578 128.142 569.081 128.938C569.305 129.08 569.556 129.176 569.818 129.218L572.205 126.065L578.482 117.784L578.585 117.297C581.135 105.789 577.451 92.9109 569.405 85.234Z" fill="#2F2E41"/>
<path d="M643.565 35.6906C638.275 28.6767 633.424 8.87322 625.659 4.77695C624.878 4.36433 624.097 3.98121 623.301 3.62759C624.079 5.48359 624.229 7.54292 623.729 9.49206C623.036 11.8792 621.268 13.78 619.544 15.5776C614.755 20.6023 609.961 25.622 605.163 30.6368C608.388 26.365 610.681 21.4642 611.894 16.251C613.107 11.0378 613.213 5.62804 612.206 0.371215C608.204 -0.226329 604.127 -0.106584 600.167 0.724845C591.592 2.58145 583.723 8.38694 580.319 16.4765C577.417 23.3135 577.829 31.0788 578.758 38.4463C579.686 45.8138 581.115 53.2697 580.084 60.6224C579.067 67.9899 575.015 75.4605 568.104 78.2012C569.637 77.2729 569.534 74.7828 568.252 73.545C567.207 72.6482 565.854 72.1937 564.479 72.2778C564.05 72.2743 563.621 72.3088 563.197 72.381C557.701 73.2503 553.679 77.8476 550.172 82.1796C549.285 82.3041 548.449 82.6694 547.756 83.2358C547.062 83.8021 546.537 84.5479 546.238 85.3919C545.906 86.2804 545.906 87.2588 546.238 88.1473C547.402 91.0649 552.087 91.6248 553.9 89.0609C553.383 91.1594 553.325 93.3447 553.729 95.4678C554.133 97.5909 554.99 99.6019 556.242 101.364C557.494 103.126 559.11 104.597 560.982 105.678C562.853 106.759 564.936 107.424 567.087 107.627C573.438 108.231 583.532 109.189 587.731 104.371C594.288 96.8262 604.352 89.2672 605.413 79.3211C606.459 69.3897 611.955 71.3642 614.254 61.6391C616.553 51.8993 625.998 48.5397 634.883 43.9572C644.814 38.8294 634.444 29.2072 643.565 35.6906Z" fill="#2F2E41"/>
<path d="M563.225 108.646C572.353 124.37 555.166 150.864 572.487 156.366L571.06 154.939C560.605 142.078 582.459 114.857 572.003 101.996C570.378 100.109 568.984 98.0362 567.849 95.8205L563.225 108.646Z" fill="#2F2E41"/>
<path d="M577.365 117.053C577.365 117.053 569.632 88.1874 536.483 81.5251C536.446 81.5128 536.321 81.4629 536.159 81.3883C536.06 81.326 535.935 81.2636 535.811 81.2015C536.184 80.9897 536.545 80.8031 536.919 80.6161C536.921 80.6161 536.922 80.6158 536.924 80.6152C536.925 80.6146 536.927 80.6137 536.928 80.6125C536.929 80.6113 536.93 80.6099 536.931 80.6084C536.931 80.6069 536.931 80.6053 536.931 80.6036C537.255 80.3048 537.579 80.0059 537.915 79.7195L538.862 79.7569C538.862 79.7569 572.123 74.4895 577.365 117.053Z" fill="#FD6584"/>
<path d="M287.67 247.588L258.089 175.519C256.845 172.462 256.852 169.038 258.11 165.987C259.368 162.935 261.775 160.501 264.812 159.208C266.383 158.54 268.074 158.198 269.781 158.204C271.489 158.211 273.177 158.565 274.743 159.245C276.309 159.925 277.721 160.916 278.891 162.16C280.061 163.403 280.966 164.871 281.551 166.476L309.983 242.279L329.201 287.612C331.455 287.61 333.654 288.3 335.501 289.591C337.348 290.882 338.752 292.71 339.524 294.827C340.296 296.944 340.397 299.247 339.814 301.423C339.232 303.6 337.993 305.544 336.267 306.992C334.54 308.44 332.41 309.322 330.166 309.517C327.921 309.712 325.67 309.212 323.72 308.083C321.77 306.955 320.214 305.254 319.264 303.21C318.315 301.167 318.017 298.881 318.412 296.663L287.67 247.588Z" fill="#A0616A"/>
<path d="M257.494 192.923C256.739 192.625 256.102 192.088 255.681 191.393C255.261 190.699 255.08 189.885 255.166 189.078C255.254 188.08 255.028 187.079 254.52 186.216C254.42 186.05 254.309 185.891 254.187 185.739C253.436 184.846 252.911 183.784 252.658 182.644C252.405 181.504 252.43 180.319 252.733 179.191C253.781 175.493 253.051 170.925 251.903 167.073C250.646 162.858 249.142 158.648 248.931 154.255C248.627 147.917 251.497 140.874 259.359 140.143C262.708 139.884 266.043 140.787 268.804 142.701C274.629 146.624 277.585 153.182 280.354 159.483L280.477 156.453C283.381 163.388 287.656 169.665 293.045 174.908C291.389 175.289 291.22 177.815 292.367 179.069C293.514 180.322 295.305 180.685 296.927 181.191C298.971 181.829 301.211 183.13 300.707 185.715C300.569 186.33 300.306 186.91 299.933 187.419C299.56 187.927 299.086 188.353 298.541 188.669C288.368 194.868 277.022 198.896 265.217 200.5C262.595 200.855 259.689 201.021 257.55 199.463C255.411 197.905 255.061 193.963 257.494 192.923Z" fill="#E6E6E6"/>
<path d="M288.565 264.691L222.374 265.521C222.374 265.521 214.952 265.195 214.952 260.71C214.952 256.226 219.101 255.287 213.663 251.833C208.225 248.378 205.983 250.62 207.104 245.015C208.225 239.409 209.346 237.555 209.346 236.24C209.346 234.924 208.225 229.319 208.225 223.713C208.225 220.996 216.956 216.061 214.784 200.135C212.137 180.732 213.066 151.039 231.769 145.234L245.222 121.691H270.867L278.856 145.234L288.326 157.644C288.326 157.644 307.005 181.266 301.4 193.598C295.794 205.931 288.565 264.691 288.565 264.691Z" fill="#E6E6E6"/>
<path d="M347.921 152.999L273.075 174.61C269.901 175.516 266.498 175.138 263.601 173.557C260.703 171.977 258.543 169.32 257.587 166.162C257.093 164.527 256.936 162.809 257.127 161.113C257.318 159.416 257.852 157.776 258.698 156.293C259.543 154.809 260.682 153.513 262.044 152.484C263.407 151.455 264.965 150.715 266.623 150.307L345.057 130.242L392.203 116.041C392.444 113.801 393.369 111.689 394.852 109.993C396.335 108.296 398.304 107.098 400.492 106.56C402.68 106.021 404.981 106.17 407.082 106.985C409.182 107.799 410.981 109.241 412.234 111.114C413.487 112.987 414.133 115.2 414.084 117.452C414.035 119.705 413.294 121.888 411.961 123.705C410.628 125.522 408.769 126.884 406.635 127.607C404.501 128.33 402.196 128.379 400.033 127.747L347.921 152.999Z" fill="#A0616A"/>
<path d="M290.312 177.083C289.934 177.802 289.331 178.377 288.595 178.72C287.859 179.063 287.031 179.155 286.238 178.982C285.255 178.787 284.236 178.903 283.322 179.315C283.147 179.397 282.977 179.49 282.813 179.594C281.843 180.244 280.731 180.651 279.57 180.779C278.409 180.908 277.235 180.754 276.146 180.332C272.583 178.889 267.962 179.121 264.009 179.846C259.683 180.639 255.335 181.678 250.944 181.413C244.611 181.03 237.92 177.415 238.044 169.52C238.149 166.163 239.408 162.945 241.608 160.407C246.138 155.041 252.978 152.811 259.542 150.74L256.543 150.291C263.751 148.154 270.454 144.583 276.249 139.793C276.448 141.48 278.942 141.921 280.312 140.917C281.682 139.912 282.237 138.171 282.915 136.613C283.77 134.65 285.306 132.564 287.822 133.345C288.418 133.548 288.966 133.873 289.431 134.299C289.896 134.724 290.268 135.241 290.524 135.817C295.586 146.602 298.363 158.317 298.681 170.226C298.75 172.871 298.6 175.778 296.82 177.736C295.04 179.693 291.083 179.615 290.312 177.083Z" fill="#E6E6E6"/>
<path d="M253.573 125.914C270.085 125.914 283.471 112.528 283.471 96.0164C283.471 79.5044 270.085 66.1188 253.573 66.1188C237.061 66.1188 223.676 79.5044 223.676 96.0164C223.676 112.528 237.061 125.914 253.573 125.914Z" fill="#A0616A"/>
<path d="M230.471 73.9132C230.779 71.2226 232.623 67.8971 233.906 65.5119C235.188 63.1268 237.666 61.179 240.369 61.3452C241.473 61.4732 242.53 61.8665 243.45 62.4914C244.37 63.1164 245.124 63.9546 245.65 64.9344C246.682 66.9071 247.244 69.0915 247.293 71.3172C247.576 76.2832 246.746 81.2497 244.866 85.8545C242.985 90.4593 240.101 94.5865 236.423 97.9351C234.327 99.8144 231.806 101.487 228.992 101.551C227.714 101.52 226.455 101.234 225.289 100.71C224.123 100.185 223.074 99.4332 222.203 98.4973C217.648 93.9357 216.96 86.4365 219.392 80.4668C221.825 74.4971 222.91 72.1742 228.471 68.9132" fill="#2F2E41"/>
<path d="M272.471 116.913C271.971 119.573 276.571 132.223 275.101 134.503C275.101 134.503 259.88 139.79 254.06 140.17C246.95 140.63 241.231 137.713 234.581 133.323C234.461 130.942 233.771 128.624 232.571 126.563C232.672 128.159 232.347 129.753 231.631 131.183C221.891 123.423 218.235 102.084 227.865 92.1741L237.865 69.1741C234.865 70.1741 243.921 54.7233 253.471 65.9133C265.421 53.7433 288.571 71.2632 291.471 86.9133C288.68 83.3808 287.227 83.7973 286.511 86.2334C285.688 84.1844 284.385 82.3632 282.711 80.9233C283.544 82.5684 283.969 84.3895 283.951 86.2333C265.101 87.4033 268.61 100.12 284.06 119.17C278.346 115.613 282.202 130.94 279.151 134.603C279.001 132.043 273.011 119.403 272.471 116.913Z" fill="#2F2E41"/>
<path d="M245.269 92.4202C245.028 92.42 244.795 92.3326 244.613 92.1741C244.431 92.0157 244.313 91.7968 244.279 91.558C244.246 91.3191 244.3 91.0763 244.432 90.8742C244.564 90.6721 244.764 90.5244 244.996 90.4583C245.258 90.0257 245.15 88.2049 245.064 86.7337C244.739 81.2098 244.194 71.9647 253.17 65.724C253.278 65.6485 253.399 65.5951 253.528 65.5668C253.656 65.5384 253.789 65.5357 253.919 65.5588C254.048 65.5818 254.172 65.6302 254.283 65.7012C254.393 65.7721 254.489 65.8642 254.564 65.9722C254.639 66.0802 254.692 66.202 254.72 66.3305C254.748 66.4591 254.751 66.5919 254.727 66.7213C254.704 66.8507 254.655 66.9743 254.584 67.0848C254.512 67.1954 254.42 67.2908 254.312 67.3656C246.257 72.9666 246.74 81.181 247.061 86.616C247.243 89.7235 247.376 91.9681 245.491 92.3953C245.418 92.412 245.343 92.4203 245.269 92.4202Z" fill="#3C3652"/>
<path d="M245.735 83.8169C239.631 86.3499 233.13 87.7906 226.528 88.0734C221.292 88.2953 215.044 87.1276 212.915 82.338C211.624 79.4323 212.312 76.0265 213.493 73.0744C214.674 70.1223 216.332 67.3331 217.016 64.2278C218.49 57.5381 215.012 50.4487 209.674 46.156C204.335 41.8632 197.446 39.9689 190.651 39.1076C195.756 37.2133 200.94 35.301 206.367 34.8466C211.794 34.3922 217.59 35.572 221.641 39.2105C226.026 43.148 227.711 49.2635 228.457 55.1093C229.203 60.9551 229.241 66.9756 231.223 72.5256C233.204 78.0756 237.756 83.2443 243.629 83.7365" fill="#2F2E41"/>
<path d="M708.942 524.461C709.164 522.577 709.011 520.667 708.495 518.842C707.978 517.016 707.107 515.31 705.931 513.822C704.755 512.333 703.297 511.09 701.641 510.165C699.985 509.239 698.162 508.649 696.278 508.428C696.243 508.424 696.208 508.422 696.172 508.418L696.173 508.416L696.17 508.418L696.182 508.312L696.074 508.299C696.292 506.344 696.109 504.365 695.535 502.483C694.961 500.602 694.008 498.857 692.736 497.356C691.464 495.856 689.899 494.631 688.136 493.757C686.374 492.883 684.451 492.378 682.487 492.273C680.522 492.168 678.557 492.466 676.711 493.148C674.866 493.829 673.179 494.881 671.755 496.238C670.33 497.594 669.198 499.228 668.427 501.038C667.656 502.848 667.263 504.796 667.272 506.764L664.117 533.641L664.222 533.653L664.225 533.651L691.208 536.818C693.194 537.301 695.259 537.356 697.268 536.979C699.277 536.603 701.183 535.804 702.86 534.636C704.537 533.468 705.946 531.956 706.995 530.202C708.043 528.448 708.707 526.491 708.942 524.461Z" fill="#F2F2F2"/>
<path d="M111.321 474.311C109.425 474.27 107.538 474.603 105.77 475.29C104.002 475.978 102.387 477.008 101.017 478.32C99.6463 479.632 98.5479 481.201 97.7841 482.938C97.0203 484.675 96.606 486.545 96.5649 488.442C96.5642 488.477 96.5659 488.512 96.5653 488.548L96.5626 488.548L96.5649 488.55L96.4587 488.548L96.4563 488.657C94.4892 488.625 92.5365 488.996 90.7178 489.747C88.8991 490.497 87.2528 491.611 85.8799 493.02C84.507 494.429 83.4363 496.104 82.7337 497.941C82.031 499.779 81.7111 501.74 81.7935 503.706C81.876 505.672 82.359 507.6 83.2131 509.372C84.0672 511.144 85.2743 512.724 86.7604 514.013C88.2465 515.302 89.9803 516.274 91.8554 516.869C93.7305 517.465 95.7075 517.671 97.6651 517.475L124.72 518.061L124.723 517.954L124.72 517.952L125.309 490.79C125.6 488.768 125.458 486.706 124.893 484.742C124.327 482.778 123.351 480.957 122.029 479.399C120.706 477.84 119.068 476.581 117.222 475.704C115.376 474.827 113.365 474.352 111.321 474.311Z" fill="#F2F2F2"/>
</g>
<defs>
<clipPath id="clip0_0_1">
<rect width="796.56" height="663.687" fill="white"/>
</clipPath>
</defs>
</svg>
